<?xml version="1.0" encoding="utf-8"?>
<!-- Generator: Adobe Illustrator 23.0.1, SVG Export Plug-In . SVG Version: 6.00 Build 0)  -->
<svg version="1.1" id="Layer_1" xmlns="http://www.w3.org/2000/svg" xmlns:xlink="http://www.w3.org/1999/xlink" x="0px" y="0px"
	 viewBox="0 0 3082.92 236.73" style="enable-background:new 0 0 3082.92 236.73;" xml:space="preserve">
<style type="text/css">
	.st0{fill:#E51E21;}
</style>
<path class="st0" d="M24.35,231.6V52.86H0V5.45h82.65V231.6H24.35z"/>
<path class="st0" d="M297.6,196.69c-11.11,12.81-24.51,22.69-40.2,29.63s-31.98,10.41-48.85,10.41c-15.38,0-30.38-3.04-45.01-9.13
	c-14.63-6.09-27.39-14.57-38.28-25.47c-10.89-10.89-19.38-23.65-25.47-38.28c-6.09-14.63-9.13-29.74-9.13-45.33
	c0-14.73,2.67-28.88,8.01-42.45c5.34-13.56,12.82-25.78,22.43-36.68c11.1-12.38,24.34-21.99,39.72-28.83
	c15.37-6.83,31.39-10.25,48.05-10.25c3.41,0,7.95,0.27,13.61,0.8c5.66,0.53,11.9,1.81,18.74,3.84c6.83,2.03,14.09,4.91,21.78,8.65
	c7.69,3.74,15.27,8.81,22.75,15.21c13.02,11.11,23.17,24.56,30.43,40.36c7.26,15.81,10.89,32.36,10.89,49.65
	c0,14.1-2.51,27.87-7.53,41.32C314.52,173.62,307.21,185.8,297.6,196.69z M254.67,81.04c-3.84-4.69-8.01-8.49-12.49-11.37
	c-4.49-2.88-8.86-5.07-13.14-6.57c-4.27-1.49-8.17-2.45-11.69-2.88c-3.52-0.42-6.36-0.64-8.49-0.64c-7.9,0-16.02,1.82-24.35,5.45
	c-10.47,4.7-18.9,11.91-25.3,21.63s-9.61,20.45-9.61,32.19c0,1.92,0.16,4.44,0.48,7.53c0.32,3.09,1.12,6.57,2.4,10.41
	c1.29,3.84,3.09,7.85,5.45,12.01c2.35,4.16,5.45,8.17,9.29,12.01c5.55,5.56,11.96,9.83,19.22,12.82c7.26,2.99,14.74,4.48,22.43,4.48
	c1.71,0,3.95-0.16,6.73-0.48c2.77-0.32,5.82-0.96,9.13-1.92s6.89-2.35,10.73-4.16c3.85-1.81,7.58-4.22,11.22-7.21
	c4.69-3.84,8.49-8.01,11.37-12.49c2.88-4.48,5.07-8.81,6.57-12.97c1.49-4.16,2.45-8.06,2.88-11.69c0.42-3.63,0.64-6.51,0.64-8.65
	C268.12,104.43,263.64,91.94,254.67,81.04z"/>
<path class="st0" d="M378.63,222.44c-3.63,4.48-7.74,7.69-12.33,9.61c-4.6,1.92-9.56,3.09-14.9,3.52h-5.45h-10.89v-30.43
	c8.76,0.43,14.31-0.8,16.66-3.68c2.35-2.88,3.31-7.85,2.88-14.89h-19.54V130.5h52.86v57.34c0,6.19-0.43,12.12-1.28,17.78
	C385.79,211.28,383.12,216.88,378.63,222.44z"/>
<path class="st0" d="M601.27,196.69c-11.11,12.81-24.51,22.69-40.2,29.63c-15.7,6.94-31.98,10.41-48.85,10.41
	c-15.38,0-30.38-3.04-45.01-9.13c-14.63-6.09-27.39-14.57-38.28-25.47c-10.89-10.89-19.38-23.65-25.47-38.28
	c-6.09-14.63-9.13-29.74-9.13-45.33c0-14.73,2.67-28.88,8.01-42.45c5.34-13.56,12.82-25.78,22.43-36.68
	c11.1-12.38,24.34-21.99,39.72-28.83c15.37-6.83,31.39-10.25,48.05-10.25c3.41,0,7.95,0.27,13.61,0.8
	c5.66,0.53,11.9,1.81,18.74,3.84c6.83,2.03,14.09,4.91,21.78,8.65c7.69,3.74,15.27,8.81,22.75,15.21
	c13.02,11.11,23.17,24.56,30.43,40.36c7.26,15.81,10.89,32.36,10.89,49.65c0,14.1-2.51,27.87-7.53,41.32
	C618.19,173.62,610.88,185.8,601.27,196.69z M558.34,81.04c-3.84-4.69-8.01-8.49-12.49-11.37c-4.49-2.88-8.86-5.07-13.14-6.57
	c-4.27-1.49-8.17-2.45-11.69-2.88c-3.52-0.42-6.36-0.64-8.49-0.64c-7.9,0-16.02,1.82-24.35,5.45c-10.47,4.7-18.9,11.91-25.3,21.63
	s-9.61,20.45-9.61,32.19c0,1.92,0.16,4.44,0.48,7.53c0.32,3.09,1.12,6.57,2.4,10.41c1.29,3.84,3.09,7.85,5.45,12.01
	c2.35,4.16,5.45,8.17,9.29,12.01c5.55,5.56,11.96,9.83,19.22,12.82c7.26,2.99,14.74,4.48,22.43,4.48c1.71,0,3.95-0.16,6.73-0.48
	c2.77-0.32,5.82-0.96,9.13-1.92s6.89-2.35,10.73-4.16c3.85-1.81,7.58-4.22,11.22-7.21c4.69-3.84,8.49-8.01,11.37-12.49
	c2.88-4.48,5.07-8.81,6.57-12.97c1.49-4.16,2.45-8.06,2.88-11.69c0.42-3.63,0.64-6.51,0.64-8.65
	C571.8,104.43,567.31,91.94,558.34,81.04z"/>
<path class="st0" d="M844.09,196.69c-11.11,12.81-24.51,22.69-40.2,29.63c-15.7,6.94-31.98,10.41-48.85,10.41
	c-15.38,0-30.38-3.04-45.01-9.13c-14.63-6.09-27.39-14.57-38.28-25.47c-10.89-10.89-19.38-23.65-25.47-38.28
	c-6.09-14.63-9.13-29.74-9.13-45.33c0-14.73,2.67-28.88,8.01-42.45c5.34-13.56,12.82-25.78,22.43-36.68
	c11.1-12.38,24.34-21.99,39.72-28.83c15.37-6.83,31.39-10.25,48.05-10.25c3.41,0,7.95,0.27,13.61,0.8
	c5.66,0.53,11.9,1.81,18.74,3.84c6.83,2.03,14.09,4.91,21.78,8.65c7.69,3.74,15.27,8.81,22.75,15.21
	c13.02,11.11,23.17,24.56,30.43,40.36c7.26,15.81,10.89,32.36,10.89,49.65c0,14.1-2.51,27.87-7.53,41.32
	C861.01,173.62,853.69,185.8,844.09,196.69z M801.16,81.04c-3.84-4.69-8.01-8.49-12.49-11.37c-4.49-2.88-8.86-5.07-13.14-6.57
	c-4.27-1.49-8.17-2.45-11.69-2.88c-3.52-0.42-6.36-0.64-8.49-0.64c-7.9,0-16.02,1.82-24.35,5.45c-10.47,4.7-18.9,11.91-25.3,21.63
	c-6.41,9.72-9.61,20.45-9.61,32.19c0,1.92,0.16,4.44,0.48,7.53c0.32,3.09,1.12,6.57,2.4,10.41c1.29,3.84,3.09,7.85,5.45,12.01
	c2.35,4.16,5.45,8.17,9.29,12.01c5.55,5.56,11.96,9.83,19.22,12.82c7.26,2.99,14.74,4.48,22.43,4.48c1.71,0,3.95-0.16,6.73-0.48
	c2.77-0.32,5.82-0.96,9.13-1.92s6.89-2.35,10.73-4.16c3.85-1.81,7.58-4.22,11.22-7.21c4.69-3.84,8.49-8.01,11.37-12.49
	c2.88-4.48,5.07-8.81,6.57-12.97c1.49-4.16,2.45-8.06,2.88-11.69c0.42-3.63,0.64-6.51,0.64-8.65
	C814.61,104.43,810.13,91.94,801.16,81.04z"/>
<path class="st0" d="M1086.9,196.69c-11.11,12.81-24.51,22.69-40.2,29.63c-15.7,6.94-31.98,10.41-48.85,10.41
	c-15.38,0-30.38-3.04-45.01-9.13c-14.63-6.09-27.39-14.57-38.28-25.47c-10.89-10.89-19.38-23.65-25.47-38.28
	c-6.09-14.63-9.13-29.74-9.13-45.33c0-14.73,2.67-28.88,8.01-42.45c5.34-13.56,12.82-25.78,22.43-36.68
	c11.1-12.38,24.34-21.99,39.72-28.83c15.37-6.83,31.39-10.25,48.05-10.25c3.41,0,7.95,0.27,13.61,0.8
	c5.66,0.53,11.9,1.81,18.74,3.84c6.83,2.03,14.09,4.91,21.78,8.65c7.69,3.74,15.27,8.81,22.75,15.21
	c13.02,11.11,23.17,24.56,30.43,40.36c7.26,15.81,10.89,32.36,10.89,49.65c0,14.1-2.51,27.87-7.53,41.32
	C1103.82,173.62,1096.51,185.8,1086.9,196.69z M1043.97,81.04c-3.84-4.69-8.01-8.49-12.49-11.37c-4.49-2.88-8.86-5.07-13.14-6.57
	c-4.27-1.49-8.17-2.45-11.69-2.88c-3.52-0.42-6.36-0.64-8.49-0.64c-7.9,0-16.02,1.82-24.35,5.45c-10.47,4.7-18.9,11.91-25.3,21.63
	c-6.41,9.72-9.61,20.45-9.61,32.19c0,1.92,0.16,4.44,0.48,7.53c0.32,3.09,1.12,6.57,2.4,10.41c1.29,3.84,3.09,7.85,5.45,12.01
	c2.35,4.16,5.45,8.17,9.29,12.01c5.55,5.56,11.96,9.83,19.22,12.82c7.26,2.99,14.74,4.48,22.43,4.48c1.71,0,3.95-0.16,6.73-0.48
	c2.77-0.32,5.82-0.96,9.13-1.92c3.31-0.96,6.89-2.35,10.73-4.16c3.85-1.81,7.58-4.22,11.22-7.21c4.69-3.84,8.49-8.01,11.37-12.49
	c2.88-4.48,5.07-8.81,6.57-12.97c1.49-4.16,2.45-8.06,2.88-11.69c0.42-3.63,0.64-6.51,0.64-8.65
	C1057.43,104.43,1052.94,91.94,1043.97,81.04z"/>
<path class="st0" d="M1295.43,156.96c-4.48,1.71-9.08,2.84-13.78,3.36c-4.7,0.54-11.64,0.8-20.82,0.8h-18.26v70.48h-62.15V5.45
	h75.28c6.62,0,13.13,0.16,19.54,0.48c6.41,0.32,13.02,1.55,19.86,3.68c8.33,2.56,15.53,6.25,21.62,11.05
	c6.09,4.8,11.22,10.41,15.38,16.82c4.16,6.41,7.25,13.41,9.29,20.98c2.03,7.58,3.04,15.53,3.04,23.86c0,8.12-1.02,16.08-3.04,23.87
	c-2.03,7.8-5.12,14.95-9.29,21.46c-4.16,6.51-9.29,12.33-15.38,17.46C1310.65,150.24,1303.55,154.19,1295.43,156.96z M1269.48,61.82
	c-2.14-0.85-4.06-1.28-5.77-1.28c-1.71,0-3.74,0-6.09,0h-14.73v44.53h14.09c3.2,0,5.61-0.16,7.21-0.48c1.6-0.32,3.26-0.69,4.96-1.12
	c1.28-0.42,2.67-1.06,4.16-1.92c1.49-0.85,2.99-2.08,4.48-3.68c1.49-1.6,2.72-3.58,3.68-5.93c0.97-2.35,1.45-5.34,1.45-8.97
	c0-4.91-1.13-9.24-3.37-12.98C1277.33,66.26,1273.97,63.53,1269.48,61.82z"/>
<path class="st0" d="M1462.65,231.6l-10.89-31.07h-70.8l-10.25,31.07h-69.2l90.66-227.44h49.65l91.62,227.44H1462.65z
	 M1415.56,91.62l-18.26,57.98h37.8L1415.56,91.62z"/>
<path class="st0" d="M1635.32,231.6l-40.68-64.39v64.39h-60.87V5.45h83.93c10.46,0,20.34,0.75,29.63,2.24s18.42,5.77,27.39,12.81
	c2.77,2.14,5.82,4.96,9.13,8.49c3.31,3.52,6.41,7.85,9.29,12.98c2.88,5.12,5.29,11.16,7.21,18.1c1.92,6.94,2.88,14.79,2.88,23.55
	c0,8.97-1.07,16.87-3.2,23.7c-2.14,6.84-4.8,12.81-8.01,17.94c-3.2,5.13-6.57,9.4-10.09,12.82c-3.52,3.42-6.68,6.09-9.45,8.01
	c-2.35,1.71-4.7,3.15-7.05,4.32c-2.35,1.18-5.66,2.62-9.93,4.32l54.14,76.88H1635.32z M1638.52,70.79c-3-4.91-6.89-7.95-11.7-9.13
	c-4.8-1.17-10.2-1.76-16.18-1.76h-16.02v55.74h14.73c0.64-0.21,1.49-0.32,2.56-0.32c1.06,0,2.24-0.1,3.52-0.32
	c2.35,0,5.34-0.53,8.97-1.6c1.49-0.42,3.26-1.22,5.29-2.4c2.03-1.17,4-2.88,5.93-5.12c1.92-2.24,3.52-5.02,4.8-8.33
	c1.28-3.31,1.92-7.21,1.92-11.69c0-2.56-0.27-5.13-0.8-7.69C1641.02,75.6,1640.01,73.15,1638.52,70.79z"/>
<path class="st0" d="M1807.98,60.54V231.6h-60.55V60.22h-42.61V5.45h146.72v55.1H1807.98z"/>
<path class="st0" d="M1981.6,147.35v84.25h-62.14v-83.29L1851.86,5.45h67.59l27.05,64.71c0.85,2.14,1.66,4.22,2.41,6.25
	c0.75,2.03,1.56,4.22,2.42,6.57c1.71-3.85,3.27-7.58,4.67-11.22c1.39-3.63,2.95-7.37,4.67-11.21l23.17-55.1h64.39L1981.6,147.35z"/>
<path class="st0" d="M2214.48,156.96c-4.48,1.71-9.08,2.84-13.78,3.36c-4.7,0.54-11.64,0.8-20.82,0.8h-18.26v70.48h-62.15V5.45
	h75.28c6.62,0,13.13,0.16,19.54,0.48c6.41,0.32,13.02,1.55,19.86,3.68c8.33,2.56,15.53,6.25,21.62,11.05
	c6.09,4.8,11.22,10.41,15.38,16.82c4.16,6.41,7.25,13.41,9.29,20.98c2.03,7.58,3.04,15.53,3.04,23.86c0,8.12-1.02,16.08-3.04,23.87
	c-2.03,7.8-5.12,14.95-9.29,21.46c-4.16,6.51-9.29,12.33-15.38,17.46C2229.7,150.24,2222.6,154.19,2214.48,156.96z M2188.54,61.82
	c-2.14-0.85-4.06-1.28-5.77-1.28c-1.71,0-3.74,0-6.09,0h-14.73v44.53h14.09c3.2,0,5.61-0.16,7.21-0.48c1.6-0.32,3.25-0.69,4.96-1.12
	c1.28-0.42,2.67-1.06,4.16-1.92c1.49-0.85,2.99-2.08,4.48-3.68s2.72-3.58,3.68-5.93c0.97-2.35,1.45-5.34,1.45-8.97
	c0-4.91-1.13-9.24-3.37-12.98C2196.38,66.26,2193.02,63.53,2188.54,61.82z"/>
<path class="st0" d="M2269.9,231.6V5.45h128.46V59.9h-65.99v27.87h65.99v57.34h-65.67v30.43H2399v56.06H2269.9z"/>
<path class="st0" d="M2613.31,194.12c-10.89,13.45-24.3,23.76-40.2,30.91c-15.91,7.15-32.52,10.73-49.81,10.73
	c-15.38,0-30.38-3.04-45.01-9.13c-14.63-6.09-27.39-14.57-38.28-25.47c-10.89-10.89-19.38-23.65-25.47-38.28
	c-6.09-14.63-9.13-29.63-9.13-45.01c0-3.41,0.26-7.9,0.8-13.45c0.53-5.55,1.76-11.8,3.68-18.74c1.92-6.94,4.75-14.2,8.49-21.79
	c3.74-7.58,8.81-15.11,15.22-22.58c11.1-13.02,24.61-23.17,40.52-30.43C2490.03,3.63,2506.42,0,2523.29,0
	c9.61,0,18.53,1.07,26.75,3.2c8.22,2.13,15.59,4.7,22.11,7.69c6.51,2.99,12.12,6.09,16.82,9.29c4.7,3.2,8.33,5.88,10.89,8.01
	c13.02,11.11,23.17,24.56,30.43,40.36c7.26,15.81,10.89,32.36,10.89,49.65c0,3.42-0.27,7.9-0.8,13.46
	c-0.54,5.55-1.76,11.69-3.69,18.42c-1.92,6.73-4.75,13.89-8.49,21.46C2624.46,179.12,2619.5,186.65,2613.31,194.12z M2575.51,98.34
	c-4.06-10.68-10.89-19.33-20.5-25.95c-9.61-6.61-20.18-9.93-31.71-9.93c-3.64,0-9.19,0.96-16.66,2.88
	c-7.48,1.92-14.95,6.3-22.42,13.13c-5.34,5.13-9.45,11.16-12.33,18.1c-2.88,6.94-4.32,14.15-4.32,21.62c0,1.71,0.16,4.06,0.48,7.05
	c0.32,3,1.01,6.25,2.08,9.77c1.06,3.52,2.72,7.26,4.96,11.21c2.24,3.96,5.17,7.74,8.81,11.37c5.12,5.12,11.15,9.13,18.1,12.02
	c6.94,2.88,14.04,4.32,21.3,4.32c5.34,0,10.25-0.64,14.73-1.92c4.48-1.28,8.38-2.88,11.69-4.81c3.31-1.92,6.19-3.89,8.65-5.93
	c2.45-2.03,4.32-3.68,5.61-4.96c1.28-1.28,2.77-3.04,4.48-5.29c1.71-2.24,3.36-4.96,4.96-8.17s2.93-6.89,4-11.05
	c1.06-4.16,1.6-8.7,1.6-13.62C2579.03,111.59,2577.85,104.97,2575.51,98.34z"/>
<path class="st0" d="M2762.58,156.96c-4.48,1.71-9.08,2.84-13.78,3.36c-4.7,0.54-11.64,0.8-20.82,0.8h-18.26v70.48h-62.15V5.45
	h75.28c6.62,0,13.13,0.16,19.54,0.48c6.41,0.32,13.02,1.55,19.86,3.68c8.33,2.56,15.53,6.25,21.62,11.05s11.22,10.41,15.38,16.82
	c4.16,6.41,7.25,13.41,9.29,20.98c2.03,7.58,3.04,15.53,3.04,23.86c0,8.12-1.02,16.08-3.04,23.87c-2.03,7.8-5.12,14.95-9.29,21.46
	c-4.16,6.51-9.29,12.33-15.38,17.46S2770.69,154.19,2762.58,156.96z M2736.63,61.82c-2.14-0.85-4.06-1.28-5.77-1.28
	c-1.71,0-3.74,0-6.09,0h-14.73v44.53h14.09c3.2,0,5.61-0.16,7.21-0.48c1.6-0.32,3.26-0.69,4.96-1.12c1.28-0.42,2.67-1.06,4.16-1.92
	c1.49-0.85,2.99-2.08,4.48-3.68c1.49-1.6,2.72-3.58,3.68-5.93c0.97-2.35,1.45-5.34,1.45-8.97c0-4.91-1.13-9.24-3.37-12.98
	C2744.48,66.26,2741.12,63.53,2736.63,61.82z"/>
<path class="st0" d="M2818,231.6V5.45h61.19v169.14h65.03v57.02H2818z"/>
<path class="st0" d="M2953.82,231.6V5.45h128.46V59.9h-65.99v27.87h65.99v57.34h-65.67v30.43h66.31v56.06H2953.82z"/>
</svg>
