<?xml version="1.0" encoding="utf-8"?>
<!-- Generator: Adobe Illustrator 23.0.1, SVG Export Plug-In . SVG Version: 6.00 Build 0)  -->
<svg version="1.1" id="Layer_1" xmlns="http://www.w3.org/2000/svg" xmlns:xlink="http://www.w3.org/1999/xlink" x="0px" y="0px"
	 viewBox="0 0 1059.98 236.55" style="enable-background:new 0 0 1059.98 236.55;" xml:space="preserve">
<style type="text/css">
	.st0{fill:#FFFFFF;}
</style>
<g>
	<path class="st0" d="M24.36,231.42V52.57H0V5.13h82.7v226.29H24.36z"/>
	<path class="st0" d="M252.89,193.28v38.14h-59.62v-38.14h-91.35v-46.15l91.35-142h59.3v137.51h17.95v50.64H252.89z M166.99,142.63
		l26.28-0.32c0-4.49,0-8.92,0-13.3c0-4.38,0.11-8.82,0.32-13.31l0.64-21.15L166.99,142.63z"/>
	<path class="st0" d="M288.15,231.42v-53.53h52.88v53.53H288.15z"/>
	<path class="st0" d="M543.61,196.48c-11.12,12.82-24.52,22.71-40.23,29.65c-15.7,6.94-32.01,10.42-48.88,10.42
		c-15.38,0-30.4-3.04-45.04-9.13c-14.64-6.09-27.4-14.58-38.3-25.48c-10.9-10.9-19.39-23.66-25.48-38.3
		c-6.09-14.63-9.13-29.75-9.13-45.35c0-14.74,2.67-28.9,8.01-42.47C349.9,62.24,357.39,50,367,39.1
		c11.11-12.39,24.36-22.01,39.75-28.85C422.13,3.42,438.16,0,454.83,0c3.41,0,7.96,0.27,13.62,0.8c5.66,0.53,11.91,1.81,18.75,3.84
		c6.83,2.04,14.1,4.92,21.8,8.65c7.69,3.74,15.27,8.82,22.76,15.22c13.03,11.12,23.18,24.57,30.45,40.39
		c7.26,15.82,10.9,32.37,10.9,49.68c0,14.11-2.52,27.89-7.54,41.35S553.23,185.58,543.61,196.48z M500.66,80.77
		c-3.84-4.69-8.01-8.49-12.5-11.38s-8.87-5.07-13.14-6.57c-4.28-1.49-8.17-2.46-11.7-2.88c-3.52-0.43-6.36-0.64-8.49-0.64
		c-7.91,0-16.03,1.82-24.36,5.45c-10.47,4.7-18.91,11.92-25.32,21.64c-6.41,9.72-9.62,20.46-9.62,32.21c0,1.92,0.16,4.44,0.49,7.54
		c0.32,3.1,1.12,6.57,2.4,10.42c1.29,3.84,3.1,7.85,5.45,12.02c2.35,4.17,5.45,8.17,9.29,12.02c5.56,5.56,11.97,9.83,19.23,12.82
		c7.26,3,14.74,4.49,22.44,4.49c1.71,0,3.95-0.16,6.73-0.48c2.77-0.32,5.82-0.97,9.13-1.92c3.31-0.96,6.89-2.35,10.74-4.17
		c3.85-1.81,7.58-4.22,11.22-7.21c4.7-3.84,8.49-8.01,11.38-12.5c2.88-4.49,5.08-8.82,6.57-12.98c1.49-4.17,2.46-8.06,2.88-11.7
		c0.43-3.63,0.64-6.52,0.64-8.65C514.12,104.17,509.63,91.67,500.66,80.77z"/>
	<path class="st0" d="M679.83,231.42h-74.68l51.6-66.67c-3,0.22-6.41,0.22-10.26,0c-3.84-0.21-7.91-0.97-12.18-2.25
		c-8.12-2.35-15.38-6.09-21.8-11.22c-6.41-5.13-11.86-11.16-16.34-18.11c-4.49-6.94-7.91-14.48-10.26-22.6
		c-2.36-8.12-3.53-16.35-3.53-24.68c0-11.75,2.29-22.81,6.89-33.18c4.59-10.36,10.74-19.39,18.43-27.09
		c7.69-7.69,16.72-13.78,27.09-18.27c10.36-4.49,21.32-6.73,32.85-6.73c4.69,0,11.43,0.8,20.19,2.4c8.76,1.6,18.05,5.83,27.89,12.66
		c3.2,2.35,6.94,5.56,11.22,9.61c4.27,4.07,8.33,9.03,12.18,14.91c3.84,5.88,7.05,12.87,9.61,20.99c2.56,8.12,3.84,17.42,3.84,27.89
		c0,6.84-0.53,13.14-1.6,18.91c-1.07,5.77-2.67,11.33-4.8,16.66c-2.14,5.35-4.65,10.58-7.54,15.7c-2.88,5.13-6.04,10.37-9.46,15.71
		L679.83,231.42z M685.92,67.95c-1.28-1.28-3.48-2.88-6.57-4.81c-3.1-1.92-7.11-2.88-12.02-2.88c-7.27,0-13.41,2.57-18.43,7.69
		c-5.03,5.13-7.53,11.33-7.53,18.59c0,7.48,2.56,13.73,7.69,18.75c5.13,5.03,11.33,7.53,18.59,7.53c7.47,0,13.67-2.56,18.59-7.69
		c4.91-5.13,7.37-11.43,7.37-18.91c0-1.71-0.37-4.33-1.12-7.85C691.75,74.84,689.56,71.37,685.92,67.95z"/>
	<path class="st0" d="M734.97,231.42v-53.53h52.88v53.53H734.97z"/>
	<path class="st0" d="M812.53,231.42V52.57h-24.36V5.13h82.7v226.29H812.53z"/>
	<path class="st0" d="M987.22,231.42h-74.68l51.6-66.67c-3,0.22-6.41,0.22-10.26,0c-3.84-0.21-7.91-0.97-12.18-2.25
		c-8.12-2.35-15.38-6.09-21.8-11.22c-6.41-5.13-11.85-11.16-16.34-18.11c-4.49-6.94-7.91-14.48-10.26-22.6
		c-2.36-8.12-3.53-16.35-3.53-24.68c0-11.75,2.29-22.81,6.89-33.18c4.59-10.36,10.74-19.39,18.43-27.09
		c7.69-7.69,16.72-13.78,27.09-18.27c10.36-4.49,21.32-6.73,32.85-6.73c4.69,0,11.43,0.8,20.19,2.4c8.76,1.6,18.05,5.83,27.89,12.66
		c3.2,2.35,6.94,5.56,11.22,9.61c4.27,4.07,8.33,9.03,12.18,14.91c3.84,5.88,7.05,12.87,9.61,20.99c2.56,8.12,3.84,17.42,3.84,27.89
		c0,6.84-0.53,13.14-1.6,18.91c-1.07,5.77-2.67,11.33-4.8,16.66c-2.14,5.35-4.65,10.58-7.54,15.7c-2.88,5.13-6.04,10.37-9.46,15.71
		L987.22,231.42z M993.31,67.95c-1.28-1.28-3.48-2.88-6.57-4.81c-3.1-1.92-7.11-2.88-12.02-2.88c-7.27,0-13.41,2.57-18.43,7.69
		c-5.03,5.13-7.53,11.33-7.53,18.59c0,7.48,2.56,13.73,7.69,18.75c5.13,5.03,11.33,7.53,18.59,7.53c7.47,0,13.67-2.56,18.59-7.69
		c4.91-5.13,7.37-11.43,7.37-18.91c0-1.71-0.37-4.33-1.12-7.85C999.13,74.84,996.95,71.37,993.31,67.95z"/>
</g>
</svg>
