<?xml version="1.0" encoding="utf-8"?>
<!-- Generator: Adobe Illustrator 23.0.1, SVG Export Plug-In . SVG Version: 6.00 Build 0)  -->
<svg version="1.1" id="Layer_1" xmlns="http://www.w3.org/2000/svg" xmlns:xlink="http://www.w3.org/1999/xlink" x="0px" y="0px"
	 viewBox="0 0 2118.87 236.96" style="enable-background:new 0 0 2118.87 236.96;" xml:space="preserve">
<style type="text/css">
	.st0{fill:#E51E21;}
</style>
<path class="st0" d="M24.34,232.16V53.48H0V6.08h82.62v226.07H24.34z"/>
<path class="st0" d="M322.46,199.49c-2.56,2.99-6.72,7.1-12.49,12.33s-13.66,9.77-23.7,13.61c-8.54,3.2-16.71,5.12-24.49,5.76
	c-7.8,0.64-16.17,0.96-25.14,0.96h-86.78V6.08h89.34c1.49,0,3.68-0.05,6.56-0.16c2.88-0.11,6.25,0.05,10.09,0.48
	c3.84,0.43,8.05,0.91,12.65,1.44c4.59,0.53,9.23,1.55,13.93,3.04c8.75,2.78,16.7,6.83,23.86,12.17c7.15,5.34,13.5,11.42,19.05,18.25
	c5.55,6.83,10.19,14.3,13.93,22.41c3.73,8.12,6.56,16.44,8.48,24.98c0.64,2.99,1.33,6.78,2.08,11.37
	c0.74,4.59,1.12,10.41,1.12,17.45c0,3.84-0.22,8.76-0.64,14.73c-0.43,5.98-1.55,12.65-3.36,20.01c-1.82,7.36-4.64,15.11-8.48,23.22
	C334.63,183.59,329.29,191.6,322.46,199.49z M288.51,105.35c-1.92-9.18-5.28-17.45-10.09-24.82c-4.8-7.36-11.69-12.65-20.65-15.85
	c-4.48-1.7-8.81-2.72-12.97-3.04c-4.16-0.32-8.81-0.48-13.93-0.48h-19.53v114.96h29.14c4.27,0,8.16-0.16,11.69-0.48
	c3.52-0.32,7.09-1.23,10.73-2.72c6.61-2.77,11.74-6.89,15.37-12.33c3.63-5.44,6.35-10.99,8.16-16.65c1.81-5.66,2.88-10.78,3.2-15.37
	c0.32-4.59,0.48-7.42,0.48-8.49c0-1.49-0.11-3.47-0.32-5.92C289.58,111.71,289.15,108.77,288.51,105.35z"/>
<path class="st0" d="M488.33,232.16l-10.89-31.06h-70.77l-10.25,31.06h-69.17L417.88,4.8h49.63l91.58,227.35H488.33z M441.26,92.22
	l-18.25,57.96h37.79L441.26,92.22z"/>
<path class="st0" d="M631.79,147.94v84.22h-62.12V148.9L502.1,6.08h67.57l27.04,64.68c0.85,2.14,1.66,4.22,2.41,6.24
	c0.75,2.03,1.56,4.22,2.42,6.57c1.71-3.85,3.27-7.58,4.66-11.21c1.39-3.63,2.95-7.36,4.67-11.21l23.16-55.08h64.37L631.79,147.94z"
	/>
<path class="st0" d="M815.53,5.77l-95.24,227.95h43.25L858.78,5.77H815.53z"/>
<path class="st0" d="M1056.39,183.16c-1.71,4.91-4.48,10.46-8.32,16.65c-3.84,6.2-9.02,12.06-15.53,17.61
	c-6.51,5.55-14.52,10.19-24.01,13.93c-9.5,3.73-20.87,5.6-34.1,5.6c-9.61,0-18.09-0.91-25.45-2.72c-7.37-1.82-13.77-4.16-19.22-7.04
	s-10.09-6.08-13.93-9.61c-3.84-3.52-7.16-6.89-9.93-10.09c-3.41-4.05-6.08-7.84-8-11.37c-1.92-3.52-3.31-6.14-4.16-7.84
	c-0.86-1.7-1.87-4.11-3.04-7.2c-1.18-3.09-2.62-7.74-4.32-13.93h64.05c0,1.53,0.32,2.74,0.96,3.61c0.64,0.88,1.49,1.86,2.56,2.95
	c3.41,3.5,6.93,5.58,10.57,6.23c3.63,0.66,6.3,0.98,8,0.98c1.92,0,3.79-0.1,5.6-0.32c1.81-0.22,3.68-0.75,5.6-1.61
	c4.69-2.15,8.54-5.58,11.53-10.31c2.99-4.72,4.48-9.87,4.48-15.46c-0.22-7.73-2.94-14.17-8.16-19.33
	c-5.24-5.15-11.58-7.73-19.06-7.73c-6.4,0-11.37,1.44-14.89,4.32c-3.52,2.88-6.14,5.28-7.84,7.2l-4.49,9.61l-49.95-13.13L915.5,6.08
	h128.09v49.95h-80.06l-3.52,22.73c8.75-3.41,17.93-5.12,27.54-5.12c2.56,0,6.51,0.32,11.85,0.96c5.33,0.64,11.21,2.46,17.61,5.44
	c14.73,6.84,25.88,16.71,33.46,29.62c7.58,12.92,11.37,27.17,11.37,42.75c0,2.99-0.32,7.16-0.96,12.49
	C1060.23,170.25,1058.74,176.33,1056.39,183.16z"/>
<path class="st0" d="M1239.62,220.95c-5.11,3.84-10.07,6.83-14.86,8.97c-4.79,2.14-9.26,3.68-13.42,4.64
	c-4.15,0.96-7.99,1.54-11.5,1.76c-3.52,0.21-6.56,0.32-9.11,0.32c-11.08,0-20.73-1.5-28.93-4.48s-15.17-6.72-20.93-11.21
	c-5.75-4.48-10.33-9.29-13.74-14.41c-3.41-5.12-5.86-9.81-7.35-14.09c-2.13-5.98-3.47-12.01-4-18.09
	c-0.53-6.09-0.9-12.86-1.12-20.34h58.28c0,6.2,0.43,11.64,1.28,16.33c0.85,4.69,3.41,8.22,7.69,10.57c0.64,0.43,1.7,0.91,3.2,1.44
	c1.49,0.54,3.41,0.8,5.76,0.8c4.91,0,8.86-1.49,11.85-4.48c2.99-2.99,4.48-6.83,4.48-11.53c0-6.19-1.87-10.83-5.6-13.93
	c-3.74-3.09-7.96-5.82-12.65-8.16l-10.25-4.16c-4.06-1.7-8.01-3.41-11.85-5.12c-3.84-1.71-7.79-3.73-11.85-6.08
	c-2.56-1.28-5.88-3.41-9.93-6.41c-4.06-2.99-8.06-6.93-12.01-11.85c-3.95-4.91-7.36-10.78-10.25-17.61
	c-2.88-6.83-4.32-14.84-4.32-24.02c0-2.56,0.16-5.66,0.48-9.29c0.32-3.63,1.17-7.52,2.56-11.69c1.38-4.16,3.41-8.54,6.07-13.13
	c2.66-4.59,6.33-9.13,11.02-13.61c5.11-5.12,10.44-9.13,15.97-12.01c5.54-2.88,10.86-5.07,15.98-6.56c5.11-1.49,9.74-2.45,13.9-2.88
	C1188.65,0.21,1192,0,1194.56,0c2.34,0,5.7,0.16,10.06,0.48c4.37,0.32,9.43,1.44,15.18,3.36c6.81,2.35,12.72,5.28,17.73,8.81
	c5,3.52,9.16,7.26,12.46,11.21c3.31,3.95,6.01,7.8,8.15,11.53c2.13,3.74,3.73,6.89,4.79,9.45c1.06,2.56,1.86,4.91,2.4,7.04
	c0.53,2.14,1.01,4.38,1.44,6.72c0.42,2.35,0.64,4.7,0.64,7.04c0,2.35,0.21,5.56,0.64,9.61h-57c0-3.84-0.05-6.45-0.16-7.84
	c-0.1-1.38-0.37-2.61-0.79-3.68c-0.85-2.99-2.54-5.39-5.07-7.2c-2.54-1.81-5.49-2.72-8.87-2.72c-4.44,0-7.97,1.34-10.61,4
	c-2.64,2.67-3.95,6.24-3.95,10.73c0,2.14,0.31,3.84,0.95,5.12c0.64,1.28,1.17,2.24,1.6,2.88c2.13,2.99,5.32,5.56,9.57,7.69
	c2.35,1.28,4.95,2.51,7.82,3.68c2.87,1.17,6.11,2.61,9.73,4.32c9.57,4.27,17.28,8.22,23.13,11.85c5.85,3.63,10.37,6.84,13.56,9.61
	c1.06,1.07,2.49,2.46,4.3,4.16c1.81,1.71,3.77,4.06,5.91,7.04c5.53,7.69,8.77,14.73,9.73,21.14c0.96,6.4,1.44,11.42,1.44,15.05
	c0,3.42-0.27,7.48-0.8,12.17c-0.53,4.69-1.81,9.71-3.83,15.05c-2.03,5.34-5.01,10.84-8.95,16.49
	C1251.81,210.44,1246.43,215.83,1239.62,220.95z"/>
<path class="st0" d="M1374.37,61.16v171h-60.52V60.84h-42.59V6.08h146.66v55.08H1374.37z"/>
<path class="st0" d="M1542.48,232.16l-10.89-31.06h-70.77l-10.25,31.06h-69.17L1472.03,4.8h49.63l91.58,227.35H1542.48z
	 M1495.41,92.22l-18.25,57.96h37.79L1495.41,92.22z"/>
<path class="st0" d="M1795.46,192.13c-11.53,14.09-25.35,24.98-41.47,32.66c-16.12,7.68-33.25,11.53-51.39,11.53
	c-3.63,0-8.06-0.27-13.29-0.8c-5.23-0.54-10.99-1.71-17.29-3.52c-6.3-1.81-12.97-4.37-20.01-7.68c-7.05-3.31-14.2-7.84-21.46-13.61
	c-3.63-2.77-8-6.77-13.13-12.01c-5.12-5.23-9.98-11.63-14.57-19.21c-4.59-7.58-8.48-16.38-11.69-26.42
	c-3.2-10.03-4.8-21.34-4.8-33.94c0-13.45,1.76-25.4,5.28-35.87c3.52-10.45,7.84-19.58,12.97-27.38
	c5.13-7.79,10.41-14.25,15.85-19.38c5.44-5.12,10.09-9.17,13.93-12.17c20.28-15.16,43.23-22.73,68.85-22.73
	c13.87,0,26.2,1.87,36.99,5.6c10.77,3.74,20.17,8.27,28.18,13.61c8.01,5.34,14.62,10.89,19.86,16.65
	c5.23,5.77,9.23,10.68,12.01,14.73c1.49,2.14,2.77,4.11,3.84,5.92c1.06,1.82,2.13,3.95,3.2,6.4c1.07,2.46,2.29,5.28,3.68,8.48
	s3.04,7.26,4.96,12.17h-68.84l-3.2-4.49c-0.64-0.64-1.23-1.33-1.76-2.08c-0.54-0.74-1.23-1.54-2.08-2.4
	c-4.92-4.27-10.52-7.47-16.81-9.61c-6.3-2.13-12.76-3.2-19.37-3.2c-2.14,0-5.12,0.22-8.97,0.64c-3.84,0.43-8.22,1.71-13.13,3.84
	c-10.25,4.27-18.52,11.16-24.81,20.66c-6.3,9.5-9.34,19.91-9.13,31.22c0,3.63,0.64,8.54,1.93,14.73c1.28,6.19,4.69,12.7,10.25,19.53
	c1.28,1.71,3.2,3.74,5.76,6.08c2.56,2.35,5.66,4.64,9.29,6.88c3.63,2.25,7.9,4.17,12.81,5.77c4.91,1.6,10.25,2.4,16.01,2.4
	c5.12,0,9.77-0.53,13.93-1.6c4.16-1.07,7.84-2.4,11.05-4c3.2-1.61,5.93-3.25,8.17-4.97c2.24-1.7,4-3.2,5.28-4.48
	c1.49-1.49,2.77-3.09,3.84-4.8h-59.24v-52.19h135.46c-0.43,8.97-1.02,17.35-1.76,25.14c-0.75,7.79-2.08,15.32-4.01,22.57
	c-1.92,7.26-4.59,14.3-8,21.14C1805.16,178.79,1800.79,185.51,1795.46,192.13z"/>
<path class="st0" d="M1828.75,232.16V6.08h128.41v54.44h-65.96v27.86h65.96v57.32h-65.64v30.42h66.28v56.04H1828.75z"/>
<path class="st0" d="M2089.15,220.95c-5.11,3.84-10.07,6.83-14.86,8.97c-4.79,2.14-9.26,3.68-13.42,4.64
	c-4.15,0.96-7.99,1.54-11.5,1.76c-3.52,0.21-6.56,0.32-9.11,0.32c-11.08,0-20.73-1.5-28.92-4.48s-15.17-6.72-20.93-11.21
	c-5.75-4.48-10.33-9.29-13.74-14.41c-3.41-5.12-5.86-9.81-7.35-14.09c-2.13-5.98-3.47-12.01-4-18.09
	c-0.53-6.09-0.9-12.86-1.12-20.34h58.28c0,6.2,0.43,11.64,1.28,16.33c0.85,4.69,3.41,8.22,7.69,10.57c0.64,0.43,1.7,0.91,3.2,1.44
	c1.49,0.54,3.41,0.8,5.76,0.8c4.91,0,8.86-1.49,11.85-4.48c2.99-2.99,4.48-6.83,4.48-11.53c0-6.19-1.87-10.83-5.6-13.93
	c-3.74-3.09-7.96-5.82-12.65-8.16l-10.25-4.16c-4.06-1.7-8.01-3.41-11.85-5.12s-7.79-3.73-11.85-6.08
	c-2.56-1.28-5.88-3.41-9.93-6.41c-4.06-2.99-8.06-6.93-12.01-11.85c-3.95-4.91-7.36-10.78-10.25-17.61
	c-2.88-6.83-4.32-14.84-4.32-24.02c0-2.56,0.16-5.66,0.48-9.29c0.32-3.63,1.17-7.52,2.56-11.69c1.38-4.16,3.41-8.54,6.07-13.13
	c2.66-4.59,6.33-9.13,11.02-13.61c5.11-5.12,10.44-9.13,15.97-12.01c5.54-2.88,10.86-5.07,15.98-6.56c5.11-1.49,9.74-2.45,13.9-2.88
	c4.15-0.43,7.51-0.64,10.07-0.64c2.34,0,5.7,0.16,10.06,0.48s9.43,1.44,15.18,3.36c6.81,2.35,12.72,5.28,17.73,8.81
	c5,3.52,9.16,7.26,12.46,11.21c3.31,3.95,6.01,7.8,8.15,11.53c2.13,3.74,3.73,6.89,4.79,9.45c1.06,2.56,1.86,4.91,2.4,7.04
	c0.53,2.14,1.01,4.38,1.44,6.72c0.42,2.35,0.64,4.7,0.64,7.04c0,2.35,0.21,5.56,0.64,9.61h-57c0-3.84-0.05-6.45-0.16-7.84
	c-0.1-1.38-0.37-2.61-0.79-3.68c-0.85-2.99-2.54-5.39-5.07-7.2c-2.54-1.81-5.49-2.72-8.87-2.72c-4.43,0-7.97,1.34-10.61,4
	c-2.64,2.67-3.95,6.24-3.95,10.73c0,2.14,0.31,3.84,0.95,5.12s1.17,2.24,1.6,2.88c2.13,2.99,5.32,5.56,9.57,7.69
	c2.35,1.28,4.95,2.51,7.82,3.68c2.87,1.17,6.11,2.61,9.73,4.32c9.57,4.27,17.28,8.22,23.13,11.85c5.85,3.63,10.37,6.84,13.56,9.61
	c1.06,1.07,2.49,2.46,4.3,4.16c1.81,1.71,3.77,4.06,5.91,7.04c5.53,7.69,8.77,14.73,9.73,21.14c0.96,6.4,1.44,11.42,1.44,15.05
	c0,3.42-0.27,7.48-0.8,12.17c-0.53,4.69-1.81,9.71-3.83,15.05c-2.03,5.34-5.01,10.84-8.95,16.49
	C2101.35,210.44,2095.97,215.83,2089.15,220.95z"/>
</svg>
