<?xml version="1.0" encoding="utf-8"?>
<!-- Generator: Adobe Illustrator 23.0.1, SVG Export Plug-In . SVG Version: 6.00 Build 0)  -->
<svg version="1.1" id="Layer_1" xmlns="http://www.w3.org/2000/svg" xmlns:xlink="http://www.w3.org/1999/xlink" x="0px" y="0px"
	 viewBox="0 0 233.84 233.84" style="enable-background:new 0 0 233.84 233.84;" xml:space="preserve">
<style type="text/css">
	.st0{clip-path:url(#SVGID_2_);fill:#E52421;}
	.st1{clip-path:url(#SVGID_2_);}
	.st2{clip-path:url(#SVGID_4_);fill:#E52421;}
	.st3{clip-path:url(#SVGID_4_);fill:#FFFFFF;}
</style>
<g id="Vector_Smart_Object_1_">
	<g>
		<defs>
			<rect id="SVGID_1_" width="233.84" height="233.84"/>
		</defs>
		<clipPath id="SVGID_2_">
			<use xlink:href="#SVGID_1_"  style="overflow:visible;"/>
		</clipPath>
		<polygon class="st0" points="212.18,142.71 207.92,142.92 211.46,145.27 		"/>
		<polygon class="st0" points="135.3,213.86 137.9,213.33 135.76,209.64 		"/>
		<g class="st1">
			<defs>
				<rect id="SVGID_3_" width="233.84" height="233.84"/>
			</defs>
			<clipPath id="SVGID_4_">
				<use xlink:href="#SVGID_3_"  style="overflow:visible;"/>
			</clipPath>
			<path class="st2" d="M195.2,61.95c-0.16,0.19-0.31,0.41-0.45,0.68c-0.14,0.27-0.24,0.57-0.31,0.91c-0.1,0.47-0.1,0.95-0.01,1.45
				c0.09,0.49,0.27,0.94,0.53,1.35c0.19,0.3,0.41,0.55,0.64,0.75c0.23,0.2,0.47,0.36,0.69,0.48c0.23,0.12,0.44,0.2,0.64,0.27
				c0.2,0.06,0.36,0.11,0.48,0.13c0.12,0.02,0.27,0.04,0.46,0.06c0.19,0.01,0.4,0.01,0.64-0.02c0.24-0.03,0.49-0.09,0.76-0.18
				c0.27-0.09,0.54-0.23,0.82-0.4c0.37-0.24,0.7-0.55,0.98-0.92c0.45-0.61,0.68-1.31,0.7-2.09c0.02-0.78-0.18-1.49-0.6-2.13
				c-0.13-0.2-0.39-0.48-0.77-0.83c-0.38-0.35-0.89-0.61-1.55-0.78c-0.48-0.11-0.96-0.12-1.46-0.03c-0.49,0.09-0.95,0.27-1.36,0.54
				c-0.1,0.06-0.22,0.16-0.38,0.28C195.52,61.6,195.36,61.76,195.2,61.95"/>
			<path class="st2" d="M29.68,160.39c0.24-0.04,0.49-0.13,0.75-0.24c0.35-0.16,0.66-0.38,0.95-0.66c0.46-0.47,0.75-1.03,0.86-1.7
				c0.12-0.66,0.03-1.29-0.24-1.9c-0.09-0.19-0.27-0.46-0.55-0.8c-0.28-0.34-0.69-0.63-1.23-0.86c-0.4-0.16-0.81-0.23-1.24-0.21
				c-0.43,0.02-0.84,0.11-1.24,0.29c-0.09,0.04-0.21,0.11-0.36,0.19c-0.15,0.09-0.3,0.2-0.46,0.34c-0.16,0.14-0.32,0.32-0.47,0.53
				c-0.15,0.21-0.28,0.46-0.38,0.73c-0.14,0.39-0.21,0.8-0.19,1.24c0.02,0.43,0.11,0.84,0.29,1.22c0.13,0.28,0.28,0.52,0.46,0.73
				c0.17,0.2,0.35,0.37,0.53,0.5c0.18,0.13,0.35,0.23,0.52,0.31c0.16,0.08,0.3,0.14,0.39,0.17c0.1,0.04,0.23,0.07,0.38,0.11
				c0.16,0.04,0.34,0.06,0.55,0.06C29.21,160.45,29.43,160.43,29.68,160.39"/>
			<path class="st2" d="M24.01,85.17c0.36,0.34,0.78,0.61,1.24,0.78c0.11,0.04,0.26,0.09,0.45,0.14c0.19,0.05,0.41,0.09,0.66,0.1
				c0.24,0.02,0.52,0,0.82-0.04c0.3-0.05,0.6-0.14,0.92-0.28c0.44-0.2,0.83-0.48,1.18-0.84c0.34-0.36,0.6-0.77,0.77-1.22
				c0.13-0.33,0.2-0.65,0.23-0.96c0.03-0.31,0.02-0.59-0.02-0.84c-0.04-0.25-0.1-0.48-0.16-0.68c-0.07-0.2-0.13-0.36-0.18-0.47
				c-0.05-0.11-0.12-0.24-0.22-0.41c-0.1-0.16-0.23-0.33-0.39-0.5c-0.16-0.18-0.36-0.35-0.59-0.51c-0.23-0.17-0.5-0.31-0.81-0.42
				c-0.41-0.16-0.85-0.24-1.32-0.25c-0.76,0-1.46,0.22-2.1,0.66c-0.64,0.44-1.1,1.02-1.37,1.74c-0.09,0.23-0.16,0.59-0.22,1.1
				c-0.06,0.51,0.04,1.08,0.29,1.71C23.37,84.43,23.65,84.82,24.01,85.17"/>
			<path class="st2" d="M64.59,194.32c-0.17-0.12-0.47-0.25-0.89-0.4c-0.42-0.15-0.92-0.18-1.49-0.1c-0.42,0.07-0.81,0.23-1.17,0.46
				c-0.36,0.24-0.66,0.54-0.91,0.89c-0.06,0.08-0.12,0.2-0.2,0.35c-0.08,0.15-0.15,0.33-0.22,0.53c-0.06,0.2-0.1,0.43-0.13,0.69
				c-0.02,0.26,0,0.54,0.05,0.83c0.08,0.41,0.24,0.8,0.47,1.16c0.24,0.36,0.53,0.66,0.88,0.89c0.25,0.17,0.51,0.3,0.77,0.38
				c0.25,0.08,0.49,0.13,0.71,0.15c0.22,0.02,0.42,0.01,0.6,0c0.18-0.02,0.32-0.04,0.43-0.06c0.1-0.02,0.23-0.06,0.38-0.11
				c0.15-0.05,0.32-0.13,0.5-0.23c0.18-0.1,0.36-0.23,0.55-0.4c0.19-0.16,0.36-0.36,0.52-0.6c0.21-0.32,0.37-0.67,0.47-1.06
				c0.15-0.64,0.1-1.27-0.14-1.9C65.54,195.19,65.15,194.69,64.59,194.32"/>
			<path class="st2" d="M44.66,177.4c0.1-0.12,0.19-0.27,0.25-0.45c0.13-0.37,0.12-0.7-0.03-0.99c-0.15-0.29-0.33-0.57-0.56-0.85
				l-0.7-0.86l-2.78,2.26l0.66,0.82c0.03,0.02,0.07,0.05,0.11,0.1c0.05,0.07,0.1,0.12,0.14,0.15c0.07,0.07,0.14,0.13,0.2,0.19
				c0.06,0.06,0.14,0.12,0.22,0.18c0.1,0.06,0.22,0.12,0.37,0.18c0.15,0.05,0.31,0.08,0.5,0.08c0.18,0,0.38-0.03,0.6-0.1
				c0.22-0.07,0.43-0.19,0.65-0.36C44.43,177.64,44.55,177.53,44.66,177.4"/>
			<polygon class="st2" points="123.28,18.07 121.49,22.63 124.55,22.83 			"/>
			<path class="st2" d="M116.92,4.15C54.74,4.15,4.15,54.74,4.15,116.92c0,62.18,50.59,112.76,112.76,112.76
				c62.18,0,112.76-50.59,112.76-112.76C229.68,54.74,179.1,4.15,116.92,4.15 M218.17,91.02c0.23,0.9,0.31,1.72,0.25,2.48
				c-0.06,0.76-0.2,1.44-0.41,2.04c-0.21,0.6-0.46,1.12-0.74,1.55c-0.28,0.43-0.53,0.77-0.75,1.01c-0.1,0.11-0.2,0.22-0.29,0.32
				c-0.09,0.1-0.2,0.2-0.32,0.3c-0.12,0.1-0.26,0.22-0.43,0.34c-0.17,0.12-0.37,0.28-0.62,0.46l-1.07-4.22l0.19-0.22l0.05-0.08
				l0.07-0.06l0.12-0.21c0.23-0.43,0.36-0.88,0.38-1.35c0.02-0.48-0.02-0.93-0.13-1.37c-0.04-0.15-0.11-0.36-0.2-0.61
				c-0.09-0.25-0.26-0.54-0.5-0.84c-0.24-0.32-0.52-0.59-0.83-0.81c-0.31-0.22-0.65-0.4-1.01-0.52c-0.36-0.13-0.74-0.2-1.14-0.22
				c-0.4-0.01-0.79,0.03-1.18,0.12c-0.26,0.07-0.59,0.2-0.99,0.39c-0.4,0.2-0.79,0.55-1.17,1.06c-0.09,0.11-0.19,0.28-0.31,0.5
				c-0.12,0.22-0.22,0.48-0.31,0.77c-0.09,0.29-0.14,0.62-0.17,0.98c-0.03,0.36,0.01,0.74,0.11,1.14c0.09,0.34,0.21,0.65,0.36,0.92
				c0.15,0.27,0.3,0.5,0.46,0.7c0.16,0.19,0.32,0.35,0.49,0.48c0.16,0.13,0.3,0.22,0.4,0.28c0.09,0.05,0.17,0.1,0.27,0.13
				c0.09,0.04,0.24,0.08,0.47,0.15l-1.02-4.03l3.1-0.79l2.19,8.6c-0.57,0.12-1.11,0.21-1.63,0.27c-0.51,0.06-1.01,0.09-1.5,0.08
				c-0.49-0.01-0.97-0.06-1.44-0.16c-0.47-0.1-0.97-0.27-1.48-0.5c-1.1-0.51-2.03-1.23-2.79-2.14c-0.76-0.91-1.29-1.96-1.59-3.13
				c-0.06-0.23-0.12-0.52-0.17-0.87c-0.05-0.35-0.07-0.74-0.06-1.17c0.01-0.44,0.07-0.91,0.17-1.42c0.1-0.51,0.27-1.04,0.53-1.61
				c0.12-0.28,0.31-0.63,0.56-1.04c0.25-0.42,0.59-0.83,1-1.26c0.41-0.42,0.92-0.82,1.51-1.19c0.59-0.37,1.3-0.66,2.11-0.87
				c0.87-0.22,1.67-0.3,2.4-0.25c0.73,0.06,1.39,0.18,1.97,0.38c0.58,0.2,1.08,0.43,1.5,0.71c0.42,0.28,0.76,0.51,1.01,0.71
				C216.89,88.01,217.75,89.37,218.17,91.02 M218.21,116.92c0,1.96-1.59,3.54-3.54,3.54s-3.54-1.59-3.54-3.54
				c0-1.96,1.59-3.54,3.54-3.54S218.21,114.96,218.21,116.92 M211.19,72.33c-0.6,0.99-1.19,1.97-1.76,2.91
				c-0.57,0.95-1.17,1.91-1.8,2.88l-1.77,2.71l7.6-3.33l1.52,3.48l-13.79,6.04l-1.35-3.09l5.27-8.48l-7.54,3.3l-1.52-3.46
				l13.79-6.04L211.19,72.33z M198.33,116.92c0,44.89-36.52,81.41-81.41,81.41s-81.41-36.52-81.41-81.41
				c0-44.89,36.52-81.41,81.41-81.41S198.33,72.03,198.33,116.92 M197.3,56.48c0.56-0.07,1.16-0.06,1.81,0.03
				c1.13,0.15,2.19,0.53,3.17,1.16c0.98,0.63,1.78,1.41,2.39,2.35c0.35,0.54,0.61,1.07,0.79,1.61c0.18,0.54,0.3,1.04,0.37,1.51
				c0.07,0.47,0.1,0.9,0.09,1.27c-0.01,0.38-0.03,0.68-0.05,0.9c-0.15,1.13-0.53,2.18-1.15,3.16c-0.62,0.98-1.41,1.78-2.38,2.41
				c-0.19,0.12-0.45,0.27-0.78,0.44c-0.33,0.17-0.72,0.33-1.16,0.46c-0.45,0.14-0.95,0.24-1.51,0.3c-0.56,0.07-1.16,0.06-1.8-0.01
				c-1.15-0.12-2.21-0.49-3.18-1.12c-0.98-0.63-1.78-1.43-2.41-2.39c-0.56-0.86-0.93-1.81-1.12-2.84c-0.19-1.04-0.18-2.06,0.03-3.06
				c0.21-1,0.62-1.94,1.21-2.81c0.6-0.87,1.32-1.58,2.18-2.14c0.19-0.12,0.45-0.27,0.78-0.44c0.33-0.17,0.72-0.33,1.18-0.47
				C196.23,56.65,196.74,56.55,197.3,56.48 M196.13,49.2l-8.77,7.46l2.93,3.44l-2.7,2.29l-5.44-6.4l11.47-9.75L196.13,49.2z
				 M188.86,41.41l-2.22,2.53l-3.45-3.02l-1.48,1.68l3.45,3.02l-2.35,2.68l-3.43-3.01l-1.6,1.83l3.46,3.04l-2.28,2.6l-6.46-5.67
				l9.93-11.31L188.86,41.41z M180.48,34.22l-1.97,2.79l-4.01-2.83l-1.38,1.95l3.99,2.81l-2.03,2.88l-3.99-2.81l-3.3,4.69l-3.12-2.2
				l8.67-12.3L180.48,34.22z M171.32,28.01l-7.63,12.98l-3.31-1.94l7.63-12.98L171.32,28.01z M158.45,21.23l3.49,1.69l-5.01,10.37
				l4.07,1.97l-1.54,3.19l-7.56-3.66L158.45,21.23z M144.17,16.24l3.7,1.16l-3.45,10.99l4.31,1.35l-1.06,3.38l-8.02-2.52
				L144.17,16.24z M133.5,13.95l3.8,0.77l-2.27,11.29l4.43,0.89l-0.7,3.47l-8.24-1.66L133.5,13.95z M122.14,12.76l3.13,0.2
				l5.11,15.5l-4.43-0.28l-0.61-2.15l-5.04-0.33l-0.84,2.06l-4.32-0.28L122.14,12.76z M96.54,19.48c0.19-0.81,0.45-1.53,0.78-2.15
				c0.33-0.62,0.7-1.13,1.1-1.54c0.4-0.41,0.73-0.73,1-0.95c0.14-0.12,0.33-0.25,0.56-0.4c0.23-0.14,0.5-0.29,0.81-0.44
				c0.31-0.15,0.66-0.28,1.05-0.41c0.39-0.12,0.83-0.22,1.33-0.28c0.24-0.03,0.54-0.05,0.91-0.07c0.36-0.01,0.77,0.01,1.21,0.08
				c0.45,0.06,0.93,0.18,1.45,0.36c0.52,0.18,1.05,0.43,1.59,0.76c0.52,0.32,0.95,0.66,1.32,1.01c0.36,0.35,0.67,0.71,0.92,1.06
				c0.22,0.33,0.42,0.68,0.61,1.04c0.06,0.12,0.12,0.24,0.17,0.34c0.06,0.11,0.11,0.21,0.15,0.32l-4.17,0.55
				c-0.09-0.1-0.16-0.2-0.23-0.28c-0.07-0.08-0.13-0.16-0.18-0.22c-0.43-0.44-0.92-0.76-1.47-0.93c-0.55-0.18-1.12-0.23-1.73-0.15
				c-0.4,0.05-0.72,0.13-0.98,0.24c-0.26,0.11-0.45,0.2-0.58,0.29c-0.68,0.42-1.19,0.98-1.53,1.68c-0.35,0.7-0.46,1.44-0.34,2.23
				c0.05,0.37,0.12,0.67,0.23,0.89c0.1,0.23,0.19,0.41,0.26,0.52c0.09,0.16,0.24,0.37,0.45,0.62c0.2,0.25,0.47,0.49,0.8,0.71
				c0.33,0.22,0.72,0.4,1.18,0.52c0.45,0.13,0.97,0.15,1.55,0.07c0.31-0.04,0.57-0.1,0.77-0.18c0.2-0.08,0.37-0.15,0.49-0.2
				c0.12-0.04,0.34-0.18,0.65-0.41c0.31-0.23,0.58-0.54,0.81-0.93c0.04-0.05,0.07-0.1,0.1-0.15c0.03-0.05,0.05-0.1,0.08-0.15
				l0.22-0.46l4.14-0.55c-0.11,0.55-0.2,0.95-0.27,1.22c-0.06,0.27-0.14,0.51-0.23,0.72c-0.28,0.71-0.61,1.32-1,1.84
				c-0.39,0.52-0.79,0.96-1.2,1.32c-0.41,0.36-0.81,0.65-1.2,0.87c-0.39,0.22-0.71,0.37-0.97,0.46c-0.15,0.05-0.39,0.12-0.7,0.22
				c-0.32,0.1-0.69,0.18-1.13,0.24c-0.94,0.13-1.8,0.11-2.57-0.05c-0.77-0.16-1.44-0.38-2.02-0.67c-0.58-0.29-1.08-0.6-1.48-0.94
				c-0.4-0.34-0.72-0.64-0.94-0.9c-0.15-0.15-0.32-0.35-0.5-0.59c-0.18-0.24-0.36-0.53-0.54-0.86c-0.18-0.33-0.34-0.71-0.48-1.14
				c-0.14-0.43-0.25-0.91-0.32-1.44C96.33,21.21,96.36,20.29,96.54,19.48 M93.21,15.43l3.69,14.6l-3.72,0.94l-3.69-14.6L93.21,15.43
				z M79.06,21.82c0.07-0.34,0.2-0.7,0.4-1.09c0.21-0.42,0.46-0.78,0.75-1.09c0.29-0.3,0.57-0.56,0.86-0.77
				c0.29-0.21,0.56-0.37,0.81-0.49c0.25-0.12,0.46-0.21,0.62-0.26c0.16-0.06,0.38-0.12,0.66-0.2c0.28-0.08,0.62-0.12,1.01-0.12
				c0.48,0,0.92,0.05,1.31,0.15c0.39,0.1,0.73,0.24,1.02,0.41c0.29,0.17,0.55,0.35,0.76,0.53c0.22,0.19,0.39,0.35,0.51,0.49
				c0.06,0.07,0.11,0.14,0.16,0.19c0.05,0.06,0.09,0.12,0.13,0.18c0.05,0.06,0.09,0.12,0.12,0.19c0.03,0.07,0.07,0.14,0.12,0.19
				c0.08,0.14,0.14,0.27,0.18,0.4c0.04,0.13,0.1,0.28,0.2,0.46l-3.36,1.18c-0.07-0.19-0.12-0.32-0.15-0.4
				c-0.03-0.08-0.08-0.15-0.13-0.2c-0.15-0.22-0.35-0.36-0.6-0.42c-0.25-0.06-0.5-0.05-0.75,0.04c-0.34,0.12-0.57,0.31-0.7,0.58
				c-0.13,0.27-0.13,0.58-0.01,0.93c0.05,0.15,0.12,0.26,0.2,0.35c0.08,0.08,0.15,0.15,0.21,0.19c0.23,0.14,0.52,0.25,0.85,0.31
				c0.19,0.02,0.39,0.04,0.6,0.06c0.21,0.02,0.46,0.03,0.75,0.05c0.72,0.07,1.3,0.14,1.75,0.23c0.45,0.09,0.8,0.19,1.05,0.3
				c0.14,0.04,0.26,0.1,0.37,0.16c0.16,0.07,0.33,0.16,0.51,0.3c0.51,0.35,0.87,0.71,1.07,1.08c0.2,0.37,0.34,0.68,0.42,0.9
				c0.08,0.22,0.15,0.48,0.22,0.78c0.07,0.31,0.1,0.65,0.09,1.02c-0.01,0.37-0.08,0.78-0.21,1.21c-0.13,0.44-0.35,0.89-0.66,1.36
				c-0.24,0.35-0.48,0.65-0.74,0.88c-0.26,0.23-0.51,0.43-0.75,0.58c-0.24,0.15-0.47,0.27-0.69,0.36c-0.22,0.09-0.41,0.17-0.57,0.22
				c-0.71,0.25-1.36,0.37-1.94,0.36c-0.58-0.01-1.1-0.09-1.55-0.24c-0.45-0.15-0.84-0.35-1.17-0.58c-0.33-0.24-0.58-0.48-0.77-0.71
				c-0.24-0.31-0.45-0.63-0.61-0.96c-0.16-0.33-0.33-0.72-0.5-1.16l3.46-1.21c0.12,0.35,0.27,0.66,0.43,0.94
				c0.17,0.28,0.43,0.45,0.8,0.52c0.08,0.02,0.18,0.03,0.3,0.03c0.12,0,0.27-0.03,0.44-0.09c0.36-0.13,0.62-0.34,0.77-0.65
				c0.15-0.31,0.16-0.64,0.04-0.99c-0.15-0.43-0.4-0.71-0.73-0.84c-0.34-0.13-0.71-0.22-1.1-0.28L84.6,27.2
				c-0.31-0.01-0.6-0.03-0.89-0.06c-0.29-0.03-0.58-0.06-0.89-0.11c-0.19-0.04-0.45-0.1-0.78-0.19c-0.33-0.09-0.66-0.24-1.01-0.46
				c-0.35-0.22-0.68-0.51-1.01-0.86c-0.33-0.36-0.59-0.82-0.79-1.38c-0.06-0.16-0.11-0.36-0.17-0.58c-0.06-0.23-0.09-0.49-0.09-0.78
				C78.96,22.48,78.99,22.16,79.06,21.82 M68.67,24.55l4.28,8.54c0.17,0.33,0.36,0.61,0.58,0.85c0.22,0.24,0.54,0.39,0.94,0.46
				c0.11,0.01,0.23,0.01,0.33,0c0.11-0.01,0.21-0.03,0.31-0.06c0.08-0.03,0.16-0.06,0.23-0.09c0.07-0.04,0.12-0.06,0.16-0.08
				c0.46-0.23,0.77-0.57,0.95-1.01c0.17-0.45,0.15-0.89-0.07-1.33l-0.22-0.44l-4.25-8.46l3.43-1.72l3.83,7.64
				c0.2,0.39,0.4,0.81,0.6,1.24c0.2,0.43,0.35,0.86,0.44,1.3c0.03,0.16,0.07,0.36,0.11,0.6c0.04,0.24,0.06,0.52,0.04,0.83
				c-0.01,0.31-0.06,0.65-0.15,1.02c-0.09,0.37-0.24,0.76-0.46,1.17c-0.18,0.36-0.47,0.77-0.85,1.21c-0.38,0.45-0.98,0.88-1.81,1.29
				c-0.79,0.39-1.51,0.62-2.16,0.69c-0.65,0.06-1.24,0.04-1.77-0.09c-0.53-0.12-0.99-0.31-1.38-0.57c-0.39-0.26-0.71-0.52-0.96-0.79
				c-0.13-0.13-0.25-0.26-0.36-0.4c-0.11-0.14-0.22-0.3-0.33-0.48c-0.11-0.17-0.23-0.38-0.37-0.61c-0.13-0.23-0.28-0.52-0.45-0.85
				l-4.07-8.12L68.67,24.55z M53.54,34.19c0.84,0.6,1.65,1.19,2.44,1.75c0.78,0.56,1.57,1.14,2.36,1.73
				c0.48,0.35,0.97,0.72,1.47,1.09c0.5,0.38,1.1,0.83,1.8,1.36c-0.29-0.81-0.53-1.51-0.73-2.09c-0.2-0.58-0.4-1.15-0.58-1.7
				c-0.19-0.55-0.36-1.1-0.54-1.64c-0.17-0.54-0.35-1.09-0.52-1.65c-0.13-0.38-0.26-0.76-0.38-1.15c-0.12-0.39-0.25-0.81-0.39-1.27
				l4.15-3l8.81,12.21l-2.94,2.12l-3.56-4.93c-0.13-0.18-0.27-0.37-0.41-0.56c-0.14-0.19-0.29-0.41-0.47-0.66
				c-0.17-0.25-0.37-0.54-0.59-0.87c-0.22-0.32-0.48-0.71-0.78-1.16c0.16,0.51,0.31,0.96,0.43,1.33c0.13,0.37,0.24,0.71,0.34,1
				c0.1,0.3,0.19,0.56,0.26,0.8c0.07,0.24,0.15,0.47,0.22,0.69c0.16,0.57,0.34,1.13,0.53,1.68c0.19,0.56,0.37,1.12,0.53,1.68
				c0.14,0.46,0.28,0.93,0.42,1.41c0.14,0.48,0.29,0.96,0.46,1.46l-2.27,1.63l-4.08-2.92c-0.33-0.22-0.65-0.44-0.95-0.67
				c-0.3-0.23-0.62-0.47-0.94-0.72l-2.53-1.94c0.34,0.44,0.63,0.83,0.87,1.16c0.25,0.33,0.47,0.62,0.66,0.88
				c0.19,0.25,0.36,0.48,0.51,0.68c0.15,0.2,0.28,0.4,0.42,0.58l3.47,4.81l-2.8,2.02l-8.81-12.21L53.54,34.19z M44.34,42.08
				l2.44,2.32l-3.16,3.32l1.62,1.54l3.16-3.32l2.58,2.45l-3.14,3.31l1.76,1.67l3.17-3.34l2.5,2.38l-5.92,6.23L38.45,48.28
				L44.34,42.08z M32.49,56.31c0.07-0.41,0.17-0.78,0.29-1.11c0.13-0.33,0.26-0.62,0.41-0.86c0.14-0.24,0.27-0.43,0.37-0.56
				c0.1-0.14,0.25-0.31,0.44-0.53c0.19-0.22,0.45-0.44,0.78-0.66c0.4-0.27,0.79-0.47,1.17-0.6c0.38-0.13,0.74-0.2,1.08-0.23
				c0.34-0.02,0.65-0.01,0.93,0.02c0.28,0.04,0.52,0.08,0.7,0.12c0.09,0.03,0.16,0.05,0.24,0.07c0.07,0.02,0.14,0.05,0.21,0.08
				c0.07,0.02,0.14,0.05,0.21,0.09c0.07,0.04,0.14,0.07,0.21,0.09c0.14,0.07,0.27,0.15,0.37,0.24c0.1,0.09,0.24,0.18,0.42,0.28
				l-2.15,2.84c-0.16-0.12-0.27-0.2-0.35-0.25c-0.07-0.05-0.14-0.08-0.22-0.1c-0.25-0.1-0.49-0.1-0.73-0.02
				c-0.24,0.08-0.44,0.23-0.61,0.45c-0.22,0.28-0.3,0.57-0.26,0.87c0.04,0.3,0.21,0.56,0.5,0.78c0.12,0.09,0.24,0.15,0.36,0.18
				c0.11,0.02,0.21,0.04,0.28,0.04c0.27-0.01,0.57-0.08,0.88-0.21c0.17-0.08,0.35-0.18,0.53-0.28c0.18-0.1,0.4-0.23,0.65-0.37
				c0.63-0.34,1.16-0.6,1.59-0.78c0.43-0.18,0.77-0.29,1.04-0.34c0.14-0.04,0.27-0.06,0.4-0.07c0.17-0.03,0.36-0.05,0.59-0.04
				c0.62,0.01,1.12,0.11,1.49,0.31c0.37,0.2,0.66,0.38,0.85,0.52c0.18,0.14,0.39,0.31,0.61,0.53c0.23,0.22,0.44,0.48,0.64,0.8
				c0.2,0.32,0.36,0.69,0.5,1.13c0.14,0.43,0.2,0.93,0.2,1.5c0,0.43-0.04,0.81-0.13,1.14c-0.09,0.34-0.19,0.63-0.3,0.89
				c-0.12,0.26-0.24,0.49-0.37,0.68c-0.13,0.2-0.25,0.36-0.35,0.5c-0.45,0.6-0.93,1.06-1.41,1.38c-0.49,0.32-0.96,0.54-1.42,0.66
				c-0.46,0.12-0.89,0.18-1.3,0.16c-0.4-0.02-0.75-0.08-1.04-0.17c-0.37-0.12-0.72-0.28-1.04-0.46c-0.32-0.19-0.67-0.42-1.05-0.69
				l2.21-2.93c0.3,0.22,0.59,0.41,0.88,0.55c0.29,0.14,0.61,0.14,0.96-0.01c0.08-0.03,0.17-0.08,0.27-0.14
				c0.1-0.07,0.21-0.17,0.32-0.32c0.23-0.31,0.32-0.63,0.28-0.97c-0.05-0.34-0.22-0.62-0.51-0.84c-0.36-0.27-0.72-0.37-1.08-0.29
				c-0.35,0.08-0.71,0.21-1.07,0.38l-0.65,0.39c-0.26,0.16-0.52,0.31-0.78,0.44c-0.25,0.14-0.52,0.27-0.8,0.4
				c-0.18,0.08-0.43,0.17-0.75,0.27c-0.32,0.11-0.68,0.16-1.09,0.18c-0.41,0.01-0.85-0.04-1.32-0.16c-0.47-0.12-0.95-0.36-1.42-0.72
				c-0.14-0.1-0.29-0.23-0.47-0.39c-0.17-0.16-0.34-0.36-0.51-0.6c-0.17-0.24-0.31-0.52-0.44-0.84c-0.13-0.32-0.22-0.7-0.27-1.13
				C32.41,57.16,32.42,56.72,32.49,56.31 M25.57,66.8l8.29,4.75c0.32,0.18,0.64,0.31,0.96,0.39c0.32,0.08,0.66,0.03,1.03-0.13
				c0.1-0.06,0.19-0.12,0.28-0.19c0.09-0.07,0.16-0.14,0.22-0.22c0.05-0.07,0.1-0.13,0.14-0.2c0.04-0.07,0.07-0.12,0.09-0.16
				c0.25-0.44,0.33-0.9,0.23-1.37c-0.1-0.47-0.37-0.82-0.8-1.07l-0.43-0.24l-8.22-4.7l1.91-3.33l7.42,4.25
				c0.38,0.22,0.78,0.45,1.18,0.7c0.41,0.25,0.77,0.53,1.08,0.84c0.11,0.12,0.26,0.26,0.42,0.44c0.17,0.18,0.33,0.4,0.49,0.66
				c0.16,0.26,0.31,0.57,0.44,0.93c0.13,0.36,0.22,0.77,0.26,1.23c0.05,0.4,0.04,0.9-0.04,1.48c-0.07,0.58-0.34,1.27-0.79,2.08
				c-0.44,0.77-0.91,1.35-1.42,1.77c-0.51,0.41-1.02,0.72-1.53,0.91c-0.51,0.19-1,0.29-1.47,0.29c-0.47,0-0.88-0.04-1.24-0.13
				c-0.18-0.04-0.35-0.08-0.52-0.14c-0.17-0.06-0.35-0.13-0.54-0.21c-0.19-0.08-0.41-0.19-0.65-0.31c-0.24-0.12-0.52-0.28-0.84-0.46
				l-7.88-4.51L25.57,66.8z M19.23,79.68c0.23-0.6,0.51-1.13,0.83-1.59c0.33-0.46,0.66-0.86,1-1.19c0.34-0.33,0.67-0.61,0.98-0.83
				c0.31-0.22,0.56-0.38,0.76-0.49c1-0.55,2.08-0.86,3.23-0.94c1.16-0.08,2.27,0.09,3.35,0.5c0.21,0.08,0.49,0.2,0.82,0.37
				c0.33,0.17,0.69,0.39,1.06,0.67c0.37,0.28,0.75,0.62,1.13,1.04c0.38,0.41,0.73,0.9,1.05,1.46c0.58,1,0.9,2.07,0.97,3.23
				c0.07,1.16-0.1,2.28-0.51,3.35c-0.36,0.96-0.91,1.82-1.63,2.58c-0.73,0.77-1.56,1.36-2.49,1.78c-0.94,0.42-1.93,0.65-2.99,0.68
				c-1.05,0.03-2.06-0.13-3.02-0.5c-0.21-0.08-0.49-0.2-0.82-0.37c-0.33-0.16-0.69-0.39-1.08-0.67c-0.39-0.28-0.77-0.63-1.15-1.04
				c-0.38-0.41-0.73-0.91-1.04-1.48c-0.55-1-0.86-2.08-0.93-3.24C18.66,81.83,18.83,80.73,19.23,79.68 M14.44,98.05l5.6,1.15
				l0.92-4.49l-5.6-1.15l0.77-3.76l14.75,3.04l-0.77,3.74l-5.56-1.14l-0.93,4.51l5.56,1.14l-0.78,3.78l-14.74-3.04L14.44,98.05z
				 M22.59,116.92c0,1.98-1.61,3.59-3.59,3.59c-1.98,0-3.59-1.61-3.59-3.59c0-1.98,1.61-3.59,3.59-3.59
				C20.98,113.33,22.59,114.93,22.59,116.92 M14.98,132.8l12.84-2.2l0.56,3.27l-12.84,2.2L14.98,132.8z M17.9,146l5.63-6.55
				l-6.88,1.83l-0.84-3.16l12.59-3.34l0.74,2.8c-0.65,0.77-1.28,1.52-1.89,2.26c-0.61,0.74-1.25,1.48-1.92,2.23l-1.87,2.08
				l6.94-1.84l0.84,3.17l-12.59,3.34L17.9,146z M24.69,162.4c-0.76-0.66-1.34-1.44-1.76-2.35c-0.37-0.8-0.57-1.66-0.6-2.57
				c-0.03-0.91,0.1-1.78,0.41-2.62c0.31-0.83,0.77-1.58,1.39-2.25c0.62-0.67,1.33-1.19,2.14-1.56c0.18-0.08,0.42-0.18,0.72-0.28
				c0.3-0.11,0.66-0.19,1.07-0.26c0.41-0.07,0.86-0.09,1.34-0.08c0.49,0.01,1,0.1,1.55,0.25c0.95,0.27,1.8,0.73,2.57,1.39
				c0.76,0.66,1.35,1.43,1.75,2.31c0.23,0.5,0.39,0.99,0.47,1.48c0.09,0.48,0.13,0.93,0.13,1.34c0,0.41-0.03,0.78-0.08,1.1
				c-0.05,0.32-0.11,0.58-0.16,0.76c-0.27,0.95-0.73,1.8-1.38,2.56c-0.65,0.76-1.43,1.35-2.34,1.76c-0.18,0.08-0.42,0.18-0.72,0.28
				c-0.3,0.11-0.65,0.19-1.05,0.25c-0.4,0.06-0.84,0.09-1.33,0.07c-0.49-0.01-1-0.09-1.54-0.24
				C26.31,163.51,25.45,163.06,24.69,162.4 M31.89,174.25c-0.33-0.13-0.7-0.34-1.12-0.62c-0.42-0.29-0.84-0.77-1.27-1.45
				c-0.41-0.64-0.67-1.24-0.78-1.8c-0.11-0.56-0.14-1.07-0.08-1.53c0.06-0.47,0.18-0.88,0.37-1.24c0.19-0.36,0.39-0.66,0.6-0.89
				c0.1-0.12,0.2-0.24,0.32-0.34c0.11-0.11,0.24-0.22,0.38-0.33c0.14-0.11,0.31-0.23,0.5-0.37s0.42-0.29,0.69-0.46l6.64-4.21
				l1.78,2.8l-6.98,4.43c-0.27,0.17-0.5,0.36-0.68,0.58c-0.19,0.21-0.29,0.49-0.32,0.84c0,0.1,0.01,0.19,0.03,0.29
				c0.01,0.09,0.04,0.18,0.08,0.26c0.03,0.07,0.06,0.13,0.1,0.19c0.04,0.06,0.06,0.1,0.08,0.13c0.24,0.37,0.56,0.62,0.95,0.73
				c0.4,0.11,0.78,0.05,1.14-0.18l0.36-0.23l6.92-4.39l1.78,2.8l-6.25,3.96c-0.32,0.2-0.66,0.41-1.01,0.62
				c-0.36,0.21-0.71,0.37-1.08,0.49c-0.13,0.04-0.3,0.09-0.51,0.15c-0.2,0.06-0.44,0.09-0.71,0.11c-0.27,0.02-0.56,0-0.89-0.04
				C32.61,174.51,32.26,174.41,31.89,174.25 M43.32,181.24c-0.28-0.04-0.51-0.08-0.69-0.14c-0.16-0.04-0.32-0.1-0.47-0.17
				c-0.15-0.07-0.39-0.19-0.71-0.37l-1.46,5.25l-2.53-3.12l1.56-4.69l-3.24,2.63l-2.08-2.56l10.11-8.21l3.05,3.75
				c0.39,0.48,0.71,0.95,0.98,1.41c0.27,0.46,0.41,1.02,0.43,1.67c0.01,0.2-0.01,0.44-0.05,0.71c-0.04,0.27-0.12,0.56-0.25,0.88
				c-0.12,0.32-0.3,0.64-0.53,0.97c-0.23,0.33-0.54,0.65-0.93,0.97c-0.4,0.33-0.79,0.56-1.18,0.72c-0.38,0.15-0.74,0.25-1.08,0.29
				C43.9,181.28,43.59,181.28,43.32,181.24 M49.38,194.92l3.29-3.65l-2.96-2.67l-3.29,3.64l-2.48-2.24l8.72-9.67l2.48,2.24
				l-3.31,3.67l2.95,2.66l3.31-3.67l2.47,2.22l-8.72,9.67L49.38,194.92z M67.17,202.16c-0.31,0.26-0.68,0.51-1.1,0.75
				c-0.42,0.24-0.9,0.44-1.44,0.6c-0.95,0.29-1.93,0.35-2.92,0.18c-0.99-0.17-1.9-0.54-2.72-1.1c-0.73-0.5-1.35-1.13-1.85-1.89
				c-0.5-0.76-0.83-1.58-1-2.45c-0.17-0.87-0.16-1.75,0.02-2.65c0.18-0.89,0.52-1.71,1.02-2.44c0.11-0.16,0.27-0.37,0.47-0.62
				c0.21-0.25,0.47-0.51,0.78-0.77c0.32-0.27,0.69-0.52,1.11-0.76c0.42-0.24,0.91-0.44,1.46-0.58c0.95-0.26,1.92-0.31,2.92-0.14
				c0.99,0.17,1.89,0.52,2.7,1.07c0.46,0.31,0.85,0.65,1.17,1.02c0.32,0.37,0.59,0.73,0.81,1.08c0.21,0.35,0.38,0.68,0.5,0.99
				c0.12,0.3,0.21,0.55,0.26,0.73c0.26,0.95,0.31,1.92,0.15,2.91c-0.17,0.99-0.53,1.89-1.09,2.72c-0.11,0.16-0.27,0.37-0.47,0.62
				C67.74,201.65,67.48,201.9,67.17,202.16 M77.39,207.54c-0.19,0.36-0.42,0.69-0.67,0.98c-0.09,0.1-0.21,0.23-0.36,0.39
				c-0.15,0.15-0.33,0.31-0.55,0.46c-0.22,0.15-0.48,0.29-0.78,0.43c-0.3,0.13-0.65,0.23-1.05,0.29c-0.35,0.06-0.77,0.08-1.28,0.04
				c-0.51-0.03-1.12-0.23-1.83-0.58c-0.68-0.34-1.22-0.72-1.6-1.14c-0.38-0.42-0.67-0.84-0.86-1.27c-0.19-0.43-0.3-0.85-0.32-1.25
				c-0.03-0.4-0.01-0.76,0.05-1.08c0.02-0.15,0.05-0.31,0.09-0.46c0.04-0.15,0.09-0.31,0.16-0.48c0.06-0.17,0.14-0.36,0.23-0.57
				c0.09-0.22,0.21-0.46,0.35-0.75l3.5-7.04l2.97,1.48l-3.68,7.4c-0.14,0.29-0.24,0.57-0.29,0.85c-0.05,0.28,0.01,0.57,0.17,0.89
				c0.06,0.08,0.11,0.16,0.17,0.23c0.06,0.07,0.13,0.13,0.2,0.18c0.06,0.04,0.12,0.08,0.18,0.11c0.06,0.03,0.11,0.05,0.14,0.07
				c0.4,0.2,0.79,0.24,1.19,0.13c0.4-0.11,0.69-0.36,0.88-0.74l0.19-0.38l3.65-7.33l2.97,1.48l-3.29,6.62
				C77.77,206.83,77.59,207.18,77.39,207.54 M87.31,210.75c-0.07,0.36-0.14,0.64-0.22,0.83c-0.07,0.18-0.16,0.4-0.28,0.64
				c-0.12,0.24-0.29,0.49-0.5,0.73c-0.21,0.24-0.48,0.47-0.8,0.7c-0.32,0.22-0.72,0.4-1.19,0.55c-0.35,0.11-0.68,0.17-0.98,0.18
				c-0.3,0.01-0.57,0.01-0.82-0.02c-0.24-0.03-0.46-0.07-0.66-0.13c-0.19-0.06-0.36-0.11-0.5-0.16c-0.61-0.22-1.11-0.5-1.5-0.82
				c-0.39-0.32-0.69-0.66-0.91-1.01c-0.22-0.35-0.37-0.69-0.46-1.03c-0.09-0.34-0.13-0.64-0.12-0.9c0.01-0.34,0.05-0.66,0.12-0.98
				c0.08-0.31,0.18-0.66,0.3-1.05l2.98,1.09c-0.11,0.3-0.19,0.59-0.23,0.87c-0.04,0.28,0.04,0.54,0.25,0.79
				c0.04,0.06,0.11,0.12,0.19,0.19c0.08,0.07,0.19,0.13,0.34,0.18c0.31,0.11,0.6,0.11,0.87-0.02s0.46-0.34,0.57-0.64
				c0.14-0.37,0.13-0.69-0.03-0.96c-0.16-0.27-0.35-0.54-0.58-0.79l-0.49-0.43c-0.2-0.18-0.38-0.35-0.56-0.53
				c-0.18-0.18-0.36-0.36-0.53-0.56c-0.11-0.13-0.25-0.32-0.42-0.55c-0.17-0.24-0.31-0.53-0.42-0.86c-0.11-0.34-0.18-0.71-0.2-1.14
				c-0.02-0.42,0.05-0.87,0.23-1.36c0.05-0.14,0.12-0.3,0.21-0.48c0.09-0.18,0.21-0.37,0.37-0.57c0.16-0.2,0.35-0.39,0.59-0.58
				c0.23-0.19,0.52-0.36,0.86-0.51c0.37-0.16,0.74-0.27,1.1-0.32c0.36-0.05,0.69-0.06,1-0.04c0.31,0.02,0.58,0.06,0.81,0.12
				c0.23,0.06,0.42,0.11,0.56,0.16c0.14,0.05,0.32,0.13,0.55,0.23c0.23,0.1,0.48,0.26,0.74,0.48c0.32,0.26,0.59,0.54,0.79,0.82
				c0.2,0.28,0.36,0.56,0.46,0.84c0.1,0.27,0.18,0.53,0.22,0.78c0.04,0.24,0.07,0.45,0.07,0.61c0,0.08,0,0.15,0,0.22
				c0,0.07,0,0.13-0.01,0.19c0,0.07-0.01,0.13-0.02,0.2c-0.02,0.07-0.03,0.13-0.02,0.2c-0.02,0.14-0.06,0.26-0.1,0.36
				c-0.05,0.11-0.09,0.25-0.12,0.42l-2.89-1.06c0.06-0.16,0.1-0.28,0.12-0.35c0.02-0.07,0.03-0.14,0.03-0.21
				c0.02-0.23-0.04-0.43-0.17-0.61c-0.13-0.18-0.31-0.31-0.53-0.39c-0.29-0.11-0.55-0.1-0.79,0.01c-0.24,0.11-0.41,0.31-0.52,0.62
				c-0.05,0.13-0.07,0.24-0.06,0.34c0.01,0.1,0.02,0.18,0.04,0.24c0.08,0.22,0.21,0.45,0.4,0.68c0.11,0.12,0.24,0.24,0.37,0.37
				c0.13,0.13,0.29,0.28,0.47,0.45c0.44,0.44,0.79,0.81,1.04,1.12c0.25,0.31,0.43,0.57,0.54,0.78c0.07,0.1,0.12,0.21,0.16,0.31
				c0.07,0.13,0.13,0.29,0.18,0.48C87.34,209.95,87.38,210.39,87.31,210.75 M97.25,207.97l-3.84-0.99l-0.48,1.88l3.84,0.99
				L96,212.83l-3.82-0.98l-0.53,2.04l3.86,0.99l-0.74,2.89l-7.2-1.85l3.25-12.61l7.16,1.84L97.25,207.97z M113.37,220.16l-3.18-0.27
				l-0.93-5.23l-0.4-2.29l-2.59,7.19l-3.07-0.26l-2.57-13.29l3.6,0.31l0.8,5.2c0.05,0.31,0.09,0.65,0.14,1.01
				c0.04,0.36,0.11,0.85,0.21,1.48l0.71-2.25l1.84-5.12l2.87,0.24l0.95,5.12l0.44,2.72c0.19-0.65,0.35-1.16,0.46-1.52
				c0.12-0.37,0.23-0.71,0.33-1.04l1.57-4.96l3.29,0.28L113.37,220.16z M118.6,220.15l-0.67-13.01l7.39-0.38l0.15,2.91l-3.96,0.2
				l0.1,1.93l3.96-0.2l0.16,3.08l-3.94,0.2l0.11,2.1l3.98-0.2l0.15,2.98L118.6,220.15z M140.29,217.48l-1-1.66l-4.29,0.87
				l-0.23,1.91l-3.67,0.74l2.51-13.87l2.66-0.54l7.78,11.79L140.29,217.48z M151.46,214.18l-3.87-3.08l1.35,3.94l-3.12,1.07
				l-4.23-12.32l4.57-1.57c0.58-0.2,1.14-0.35,1.66-0.44c0.53-0.09,1.1-0.03,1.72,0.17c0.19,0.06,0.41,0.16,0.65,0.29
				c0.24,0.13,0.49,0.31,0.74,0.54s0.49,0.5,0.73,0.83c0.23,0.33,0.43,0.73,0.59,1.21c0.17,0.49,0.26,0.94,0.27,1.35
				c0.01,0.41-0.02,0.78-0.09,1.11c-0.08,0.33-0.18,0.62-0.31,0.87c-0.13,0.25-0.25,0.45-0.37,0.6c-0.1,0.14-0.2,0.26-0.32,0.38
				c-0.12,0.12-0.31,0.3-0.6,0.54l4.43,3.18L151.46,214.18z M156.86,212.16l-5.47-11.82l6.71-3.11l1.22,2.65l-3.6,1.67l0.81,1.76
				l3.6-1.67l1.29,2.8l-3.58,1.66l0.88,1.91l3.62-1.67l1.26,2.71L156.86,212.16z M175.98,201.59l-1.54-1.17l-3.65,2.41l0.5,1.86
				l-3.13,2.06l-2.85-13.81l2.26-1.49l11.61,8.03L175.98,201.59z M180.51,198.27l-8.38-9.97l2.57-2.16l6.41,7.63l2.99-2.52
				l1.97,2.34L180.51,198.27z M187.59,192.2l-9.24-9.18l2.37-2.38l7.07,7.02l2.76-2.78l2.17,2.16L187.59,192.2z M196.46,182.77
				l-10.32-7.95l4.51-5.86l2.31,1.78l-2.42,3.14l1.53,1.18l2.42-3.14l2.44,1.88l-2.41,3.13l1.67,1.28l2.43-3.16l2.37,1.82
				L196.46,182.77z M209.46,164.04c-0.12,0.19-0.24,0.36-0.37,0.53c-0.26,0.37-0.59,0.69-0.99,0.96c-0.12,0.09-0.24,0.16-0.35,0.21
				c-0.11,0.06-0.21,0.11-0.31,0.15c-0.07,0.03-0.14,0.05-0.2,0.07c-0.06,0.02-0.15,0.05-0.27,0.08c-0.02,0.22-0.03,0.44-0.05,0.66
				c-0.02,0.22-0.04,0.46-0.08,0.72c-0.06,0.29-0.15,0.61-0.27,0.95c-0.12,0.34-0.29,0.7-0.51,1.07c-0.43,0.73-0.98,1.36-1.64,1.9
				c-0.67,0.54-1.4,0.93-2.19,1.19c-0.9,0.3-1.84,0.39-2.81,0.28c-0.97-0.11-1.87-0.41-2.7-0.89c-0.71-0.42-1.33-0.95-1.84-1.61
				c-0.52-0.66-0.91-1.38-1.17-2.18c-0.29-0.91-0.38-1.86-0.27-2.83c0.11-0.97,0.41-1.87,0.89-2.7c0.1-0.17,0.25-0.39,0.45-0.66
				c0.2-0.27,0.46-0.55,0.77-0.84c0.31-0.29,0.68-0.56,1.11-0.83c0.43-0.27,0.92-0.49,1.46-0.67c0.9-0.29,1.83-0.37,2.82-0.26
				c0.98,0.12,1.87,0.41,2.66,0.87c0.11,0.06,0.25,0.15,0.42,0.27c0.17,0.12,0.36,0.26,0.56,0.43c0.2,0.17,0.4,0.37,0.61,0.6
				c0.21,0.23,0.4,0.49,0.59,0.78l0.49,0.8c0.23-0.11,0.43-0.23,0.6-0.38c0.16-0.15,0.36-0.38,0.58-0.71l2.36,1.41
				C209.69,163.65,209.57,163.85,209.46,164.04 M212.28,157.1c-0.3,0.7-0.64,1.26-1.03,1.67c-0.39,0.41-0.8,0.72-1.22,0.94
				c-0.42,0.22-0.83,0.35-1.23,0.4c-0.4,0.05-0.76,0.06-1.08,0.02c-0.15-0.01-0.31-0.03-0.46-0.07c-0.15-0.03-0.32-0.07-0.49-0.13
				c-0.17-0.05-0.37-0.12-0.59-0.2c-0.22-0.08-0.48-0.18-0.77-0.31l-7.24-3.05l1.29-3.06l7.62,3.21c0.29,0.12,0.58,0.2,0.86,0.23
				s0.57-0.04,0.87-0.22c0.08-0.06,0.15-0.12,0.22-0.19c0.07-0.06,0.12-0.13,0.17-0.21c0.04-0.06,0.07-0.13,0.1-0.19
				c0.03-0.06,0.05-0.11,0.06-0.14c0.17-0.41,0.19-0.81,0.05-1.2c-0.14-0.39-0.4-0.67-0.8-0.84l-0.39-0.16l-7.55-3.18l1.29-3.06
				l6.82,2.87c0.35,0.15,0.71,0.31,1.09,0.48c0.37,0.17,0.71,0.37,1.01,0.61c0.11,0.09,0.25,0.2,0.41,0.33
				c0.16,0.14,0.33,0.31,0.49,0.52c0.17,0.21,0.32,0.46,0.47,0.75c0.15,0.29,0.27,0.63,0.36,1.03c0.08,0.34,0.12,0.77,0.12,1.27
				C212.74,155.74,212.59,156.37,212.28,157.1 M216.96,142.5l-1.93,0.12l-1.19,4.21l1.59,1.08l-1.02,3.6l-11.17-8.6l0.74-2.61
				l14.04-1.5L216.96,142.5z M205.37,134.96l0.53-3.32l9.84,1.58l0.62-3.86l3.02,0.49l-1.16,7.18L205.37,134.96z"/>
			<path class="st2" d="M201.82,164.66c0.23-0.07,0.43-0.13,0.63-0.18c0.19-0.05,0.41-0.11,0.64-0.17
				c-0.12-0.16-0.23-0.29-0.32-0.41c-0.09-0.12-0.18-0.22-0.26-0.32c-0.09-0.09-0.18-0.18-0.28-0.25c-0.1-0.07-0.21-0.15-0.34-0.22
				c-0.51-0.3-0.97-0.46-1.39-0.47c-0.42-0.01-0.74,0-0.97,0.04c-0.34,0.07-0.64,0.18-0.9,0.31c-0.26,0.14-0.49,0.29-0.68,0.46
				c-0.19,0.17-0.35,0.33-0.47,0.49c-0.12,0.16-0.22,0.3-0.28,0.4c-0.22,0.37-0.36,0.73-0.42,1.07c-0.06,0.34-0.07,0.66-0.04,0.95
				c0.03,0.29,0.09,0.55,0.17,0.77c0.08,0.23,0.15,0.4,0.21,0.52c0.09,0.18,0.2,0.35,0.31,0.49c0.11,0.15,0.29,0.34,0.53,0.58
				c0.06-0.42,0.14-0.76,0.22-1.03c0.08-0.26,0.2-0.52,0.34-0.76c0.09-0.15,0.24-0.36,0.46-0.64c0.22-0.28,0.51-0.54,0.88-0.8
				c0.3-0.19,0.62-0.36,0.97-0.5C201.18,164.88,201.51,164.76,201.82,164.66"/>
			<polygon class="st2" points="172.22,198.63 168.85,196.01 170,200.1 			"/>
			<path class="st2" d="M148.97,205.6c-0.08-0.14-0.19-0.27-0.34-0.39c-0.31-0.25-0.62-0.35-0.94-0.31
				c-0.32,0.04-0.65,0.12-0.98,0.23l-1.05,0.36l1.16,3.38l0.99-0.34c0.03-0.02,0.07-0.04,0.13-0.07c0.08-0.03,0.14-0.06,0.19-0.08
				c0.09-0.04,0.17-0.09,0.25-0.13c0.08-0.04,0.16-0.09,0.24-0.14c0.09-0.07,0.19-0.17,0.29-0.29c0.1-0.12,0.18-0.27,0.25-0.44
				c0.06-0.17,0.1-0.37,0.12-0.6c0.01-0.23-0.03-0.47-0.12-0.74C149.12,205.89,149.05,205.74,148.97,205.6"/>
			<path class="st2" d="M201.25,167.86c-0.3,0.29-0.51,0.53-0.63,0.73c-0.07,0.12-0.13,0.24-0.18,0.38
				c-0.05,0.14-0.09,0.32-0.11,0.55c0.18-0.04,0.3-0.06,0.38-0.08c0.07-0.01,0.13-0.02,0.18-0.03c0.04,0,0.09-0.01,0.14-0.02
				c0.05-0.01,0.1-0.02,0.16-0.05c0.08-0.02,0.21-0.06,0.36-0.13c0.16-0.06,0.33-0.15,0.51-0.26c0.18-0.11,0.36-0.25,0.55-0.42
				c0.19-0.17,0.35-0.38,0.49-0.62c0.06-0.11,0.12-0.22,0.17-0.35c0.05-0.13,0.12-0.34,0.2-0.65l-0.89,0.2
				C201.99,167.34,201.55,167.58,201.25,167.86"/>
			<path class="st3" d="M116.92,0C52.45,0,0,52.45,0,116.92c0,64.47,52.45,116.92,116.92,116.92s116.92-52.45,116.92-116.92
				C233.84,52.45,181.39,0,116.92,0 M116.92,229.68c-62.18,0-112.76-50.59-112.76-112.76C4.15,54.74,54.74,4.15,116.92,4.15
				c62.18,0,112.76,50.59,112.76,112.76C229.68,179.1,179.1,229.68,116.92,229.68"/>
			<path class="st2" d="M142.66,167.6H91.18v12.64h51.49V167.6z M103.13,176.77h-3.54v-6.18h3.52v1.38h-1.89v0.92h1.89v1.46h-1.88v1
				h1.9V176.77z M108.06,175.19c-0.01,0.13-0.05,0.26-0.11,0.41c-0.06,0.14-0.14,0.29-0.25,0.44c-0.11,0.15-0.26,0.3-0.44,0.44
				c-0.14,0.1-0.28,0.19-0.41,0.24c-0.13,0.06-0.25,0.1-0.37,0.12c-0.11,0.03-0.22,0.04-0.32,0.05c-0.1,0.01-0.18,0.01-0.25,0.01
				c-0.31,0-0.58-0.04-0.8-0.12c-0.23-0.08-0.42-0.18-0.57-0.3c-0.15-0.12-0.28-0.25-0.37-0.38c-0.09-0.14-0.16-0.26-0.2-0.38
				c-0.05-0.15-0.09-0.3-0.11-0.46c-0.02-0.15-0.03-0.32-0.03-0.52h1.51c0,0.15,0.01,0.29,0.04,0.42c0.03,0.13,0.11,0.23,0.24,0.31
				c0.03,0.02,0.07,0.03,0.11,0.05c0.05,0.02,0.11,0.03,0.18,0.03c0.16,0,0.29-0.05,0.39-0.15c0.1-0.1,0.15-0.22,0.15-0.38
				c0-0.19-0.06-0.33-0.17-0.42c-0.11-0.1-0.24-0.18-0.39-0.26l-0.29-0.11c-0.12-0.05-0.23-0.09-0.34-0.14
				c-0.11-0.05-0.22-0.1-0.33-0.16c-0.07-0.04-0.16-0.1-0.28-0.18c-0.11-0.08-0.22-0.18-0.33-0.32c-0.11-0.13-0.2-0.29-0.28-0.47
				c-0.08-0.18-0.12-0.4-0.12-0.64c0-0.07,0-0.15,0.01-0.25c0.01-0.1,0.03-0.2,0.07-0.32c0.04-0.11,0.09-0.23,0.17-0.35
				c0.07-0.12,0.17-0.24,0.3-0.37c0.14-0.13,0.29-0.24,0.44-0.32c0.15-0.08,0.3-0.14,0.44-0.18c0.14-0.04,0.27-0.07,0.38-0.08
				c0.11-0.01,0.21-0.02,0.28-0.02c0.07,0,0.16,0,0.29,0.01c0.12,0.01,0.26,0.04,0.41,0.09c0.19,0.06,0.35,0.14,0.49,0.24
				c0.14,0.09,0.25,0.19,0.34,0.3s0.17,0.21,0.22,0.31c0.06,0.1,0.1,0.19,0.13,0.26c0.01,0.03,0.02,0.07,0.04,0.1
				c0.01,0.03,0.02,0.06,0.03,0.09c0.01,0.03,0.02,0.06,0.02,0.09c0,0.03,0.01,0.06,0.02,0.09c0.01,0.06,0.02,0.12,0.01,0.18
				c0,0.05,0,0.12,0.01,0.21h-1.47c0-0.08,0-0.14,0-0.18c0-0.04-0.01-0.07-0.02-0.1c-0.03-0.1-0.09-0.19-0.18-0.25
				c-0.09-0.06-0.19-0.09-0.3-0.09c-0.15,0-0.26,0.04-0.35,0.13c-0.09,0.09-0.13,0.21-0.13,0.36c0,0.06,0.01,0.12,0.03,0.16
				c0.02,0.04,0.04,0.08,0.06,0.1c0.07,0.09,0.17,0.17,0.29,0.24c0.07,0.03,0.14,0.07,0.22,0.1c0.08,0.03,0.17,0.08,0.29,0.12
				c0.27,0.12,0.49,0.23,0.65,0.33c0.16,0.1,0.29,0.18,0.37,0.26c0.05,0.03,0.09,0.07,0.12,0.11c0.05,0.05,0.1,0.11,0.16,0.18
				c0.15,0.2,0.24,0.39,0.27,0.56c0.03,0.17,0.04,0.31,0.04,0.41C108.08,174.95,108.07,175.06,108.06,175.19 M111.44,176.77h-1.57
				v-4.79h-1.21v-1.39h4.02v1.4h-1.24V176.77z M114.04,176.77h-1.45v-1.46h1.45V176.77z M119.12,176.77h-1.56v-5h-0.71v-1.18h2.27
				V176.77z M124.43,173.38c-0.03,0.16-0.07,0.31-0.13,0.46c-0.06,0.15-0.13,0.29-0.21,0.43c-0.08,0.14-0.17,0.28-0.27,0.43
				l-1.37,2.08h-1.92l1.46-1.87c-0.16,0.01-0.3,0.01-0.42,0.01c-0.11-0.01-0.23-0.03-0.35-0.06c-0.22-0.06-0.42-0.16-0.59-0.3
				c-0.17-0.14-0.32-0.3-0.44-0.49c-0.12-0.19-0.22-0.39-0.28-0.61c-0.06-0.22-0.1-0.44-0.1-0.67c0-0.32,0.06-0.62,0.19-0.9
				c0.13-0.28,0.29-0.53,0.51-0.74c0.21-0.21,0.46-0.38,0.74-0.5c0.28-0.12,0.58-0.18,0.9-0.18c0.13,0,0.31,0.02,0.55,0.07
				c0.24,0.04,0.5,0.16,0.76,0.35c0.09,0.06,0.19,0.15,0.31,0.26c0.12,0.11,0.23,0.24,0.33,0.4c0.11,0.16,0.19,0.35,0.26,0.57
				c0.07,0.22,0.11,0.47,0.11,0.76C124.48,173.05,124.46,173.23,124.43,173.38 M129.62,173.38c-0.03,0.16-0.07,0.31-0.13,0.46
				c-0.06,0.15-0.13,0.29-0.21,0.43c-0.08,0.14-0.17,0.28-0.27,0.43l-1.37,2.08h-1.92l1.46-1.87c-0.16,0.01-0.3,0.01-0.42,0.01
				c-0.11-0.01-0.23-0.03-0.35-0.06c-0.22-0.06-0.42-0.16-0.59-0.3c-0.17-0.14-0.32-0.3-0.44-0.49c-0.12-0.19-0.22-0.39-0.28-0.61
				c-0.06-0.22-0.1-0.44-0.1-0.67c0-0.32,0.06-0.62,0.19-0.9c0.13-0.28,0.29-0.53,0.5-0.74c0.21-0.21,0.46-0.38,0.74-0.5
				c0.28-0.12,0.58-0.18,0.9-0.18c0.13,0,0.31,0.02,0.55,0.07c0.24,0.04,0.49,0.16,0.76,0.35c0.09,0.06,0.19,0.15,0.31,0.26
				c0.12,0.11,0.23,0.24,0.33,0.4c0.1,0.16,0.19,0.35,0.26,0.57c0.07,0.22,0.11,0.47,0.11,0.76
				C129.66,173.05,129.64,173.23,129.62,173.38 M134.75,173.38c-0.03,0.16-0.07,0.31-0.13,0.46c-0.06,0.15-0.13,0.29-0.21,0.43
				c-0.08,0.14-0.17,0.28-0.27,0.43l-1.37,2.08h-1.92l1.46-1.87c-0.16,0.01-0.3,0.01-0.42,0.01c-0.11-0.01-0.23-0.03-0.35-0.06
				c-0.22-0.06-0.42-0.16-0.59-0.3c-0.17-0.14-0.32-0.3-0.44-0.49c-0.12-0.19-0.22-0.39-0.28-0.61c-0.06-0.22-0.1-0.44-0.1-0.67
				c0-0.32,0.06-0.62,0.19-0.9c0.13-0.28,0.29-0.53,0.51-0.74c0.21-0.21,0.46-0.38,0.74-0.5c0.28-0.12,0.58-0.18,0.9-0.18
				c0.13,0,0.31,0.02,0.55,0.07c0.24,0.04,0.49,0.16,0.76,0.35c0.09,0.06,0.19,0.15,0.31,0.26c0.12,0.11,0.23,0.24,0.33,0.4
				c0.11,0.16,0.19,0.35,0.26,0.57c0.07,0.22,0.11,0.47,0.11,0.76C134.8,173.05,134.78,173.23,134.75,173.38"/>
			<path class="st2" d="M127.89,172.23c-0.04-0.04-0.11-0.09-0.2-0.15c-0.09-0.06-0.22-0.09-0.37-0.09c-0.11,0-0.22,0.02-0.32,0.07
				c-0.1,0.04-0.19,0.1-0.26,0.18c-0.07,0.07-0.13,0.16-0.17,0.25c-0.04,0.1-0.06,0.2-0.06,0.31c0,0.12,0.02,0.22,0.07,0.32
				c0.04,0.1,0.1,0.18,0.18,0.25c0.07,0.07,0.16,0.13,0.26,0.17c0.1,0.04,0.2,0.06,0.32,0.06c0.23,0,0.43-0.08,0.58-0.24
				c0.15-0.16,0.23-0.35,0.23-0.58c0-0.05-0.01-0.13-0.04-0.24C128.08,172.44,128.01,172.33,127.89,172.23"/>
			<path class="st2" d="M122.71,172.23c-0.04-0.04-0.11-0.09-0.2-0.15c-0.09-0.06-0.22-0.09-0.37-0.09c-0.11,0-0.22,0.02-0.32,0.07
				c-0.1,0.04-0.19,0.1-0.26,0.18c-0.07,0.07-0.13,0.16-0.17,0.25c-0.04,0.1-0.06,0.2-0.06,0.31c0,0.12,0.02,0.22,0.07,0.32
				c0.04,0.1,0.1,0.18,0.18,0.25c0.07,0.07,0.16,0.13,0.26,0.17c0.1,0.04,0.21,0.06,0.32,0.06c0.23,0,0.43-0.08,0.58-0.24
				c0.15-0.16,0.23-0.35,0.23-0.58c0-0.05-0.01-0.13-0.03-0.24C122.9,172.44,122.83,172.33,122.71,172.23"/>
			<path class="st2" d="M133.03,172.23c-0.04-0.04-0.11-0.09-0.2-0.15c-0.09-0.06-0.22-0.09-0.37-0.09c-0.11,0-0.22,0.02-0.32,0.07
				c-0.1,0.04-0.19,0.1-0.26,0.18c-0.07,0.07-0.13,0.16-0.17,0.25c-0.04,0.1-0.06,0.2-0.06,0.31c0,0.12,0.02,0.22,0.07,0.32
				c0.04,0.1,0.1,0.18,0.17,0.25c0.07,0.07,0.16,0.13,0.26,0.17c0.1,0.04,0.21,0.06,0.32,0.06c0.23,0,0.43-0.08,0.58-0.24
				c0.15-0.16,0.23-0.35,0.23-0.58c0-0.05-0.01-0.13-0.03-0.24C133.22,172.44,133.15,172.33,133.03,172.23"/>
			<path class="st2" d="M145.89,61.45c0-1.42-1.11-2.45-2.48-2.46l-0.55-0.01v4.94l0.55,0C144.78,63.92,145.89,62.87,145.89,61.45"
				/>
			<path class="st2" d="M152.48,91.58h-11.22c-1.12,0-1.85,0-1.85,1.86v44.9c0,1.86,0.74,1.86,1.85,1.86h11.22
				c1.12,0,1.86,0,1.86-1.86v-44.9C154.34,91.58,153.6,91.58,152.48,91.58"/>
			<path class="st2" d="M116.92,39.66c-42.6,0-77.25,34.66-77.25,77.25s34.66,77.25,77.25,77.25c42.6,0,77.25-34.66,77.25-77.25
				S159.52,39.66,116.92,39.66 M148.3,56.78h0.38l0.16,0.6c0.01,0.04,0.02,0.09,0.02,0.16c0,0.02,0,0.03,0,0.05
				c0-0.04,0-0.07,0.01-0.11c0.01-0.05,0.01-0.07,0.02-0.1l0.16-0.6h0.38v1.02h-0.25v-0.72l-0.2,0.72h-0.22l-0.2-0.72l-0.01-0.04
				c0,0.02,0,0.76,0,0.76h-0.24V56.78z M147.33,56.78h0.86V57h-0.3v0.8h-0.27V57h-0.3V56.78z M140.38,56.79l3.34,0
				c2.59,0,4.68,2.1,4.68,4.68c0,2.59-2.12,4.68-4.7,4.68l-3.32,0V56.79z M134.49,56.79h5.32v2.08h-2.85v1.41h2.85v2.2h-2.84v1.54
				h2.87v2.14h-5.35V56.79z M127.91,56.79h6.08v2.11h-1.87v7.26h-2.38v-7.27h-1.83V56.79z M121.11,57.22
				c0.38-0.23,1.25-0.64,2.44-0.64c0.61,0,1.86,0.11,3.09,1.11c1.15,0.94,1.49,2.04,1.65,2.59h-2.6c-0.07-0.13-0.15-0.24-0.23-0.36
				c-0.45-0.6-1.13-0.93-1.88-0.93c-0.49,0-0.84,0.13-1.01,0.21c-0.92,0.38-1.47,1.27-1.47,2.26c0.01,0.45,0.12,0.76,0.19,0.92
				c0.19,0.44,0.85,1.53,2.3,1.53c0.38,0,0.65-0.08,0.81-0.13c0.15-0.05,0.66-0.29,1.02-0.72c0.09-0.12,0.15-0.2,0.29-0.44h2.6
				c-0.2,0.61-0.32,0.88-0.46,1.15c-0.9,1.67-2.4,2.26-3.07,2.41c-0.2,0.05-0.62,0.13-1.17,0.13c-2.38,0-3.64-1.46-4.11-2.15
				c-0.31-0.44-0.81-1.3-0.81-2.64C118.69,58.99,120.36,57.67,121.11,57.22 M113.09,56.79h5.32v2.08h-2.85v1.41h2.85v2.2h-2.84v1.54
				h2.87v2.14h-5.35V56.79z M107.15,56.79h5.43v2.11h-3.05v1.5h3.04v2.19h-3.04v3.57h-2.38V56.79z M101.33,56.79h5.32v2.08h-2.85
				v1.41h2.85v2.2h-2.84v1.54h2.87v2.14h-5.35V56.79z M95.94,63.82l0.23,0c1.27,0,2.29-1.06,2.29-2.37c0-1.31-1.03-2.37-2.29-2.38
				l-0.23,0v-2.56l0.15,0c2.73,0,4.94,2.21,4.94,4.95c0,2.73-2.24,4.95-4.97,4.95h-0.13V63.82z M85.2,56.31h10.25v10.25H85.2V56.31z
				 M61.17,154.04v-22.45c0-14.88,2.32-16.04,20.5-20.58l11.22-2.81c1.95-0.49,1.95-1.32,1.95-3.55V93.43
				c0-1.86-0.74-1.86-1.85-1.86H81.77c-1.12,0-1.86,0-1.86,1.86v7.86c0,2.63-1.52,2.63-2.63,2.63H63.81c-1.11,0-2.63,0-2.63-2.63
				V88.94c0-13.86,9.54-13.86,20.59-13.86h11.22c11.05,0,20.59,0,20.59,13.86v15.71c0,14.88-2.32,16.04-20.5,20.58l-11.23,2.81
				c-1.95,0.49-1.95,1.32-1.95,3.55v8.59h14.93v-4.1c0-2.63,1.52-2.63,2.63-2.63h13.47c1.11,0,2.63,0,2.63,2.63v17.96
				c0,2.63-1.52,2.63-2.63,2.63H63.81C62.7,156.68,61.17,156.68,61.17,154.04 M143.4,180.98H90.44v-14.12h52.96V180.98z
				 M173.07,142.82c0,13.86-9.54,13.86-20.59,13.86h-11.22c-11.05,0-20.59,0-20.59-13.86V88.94c0-13.86,9.54-13.86,20.59-13.86
				h11.22c11.05,0,20.59,0,20.59,13.86V142.82z"/>
			<path class="st3" d="M116.92,35.51c-44.89,0-81.41,36.52-81.41,81.41c0,44.89,36.52,81.41,81.41,81.41s81.41-36.52,81.41-81.41
				C198.33,72.03,161.81,35.51,116.92,35.51 M116.92,194.17c-42.6,0-77.25-34.66-77.25-77.25c0-42.6,34.66-77.25,77.25-77.25
				c42.6,0,77.25,34.66,77.25,77.25C194.17,159.52,159.52,194.17,116.92,194.17"/>
			<polygon class="st3" points="106.67,64.02 103.81,64.02 103.81,62.48 106.65,62.48 106.65,60.27 103.8,60.27 103.8,58.87 
				106.65,58.87 106.65,56.79 101.33,56.79 101.33,66.15 106.67,66.15 			"/>
			<polygon class="st3" points="118.44,64.02 115.57,64.02 115.57,62.48 118.41,62.48 118.41,60.27 115.56,60.27 115.56,58.87 
				118.41,58.87 118.41,56.79 113.09,56.79 113.09,66.15 118.44,66.15 			"/>
			<path class="st3" d="M123.61,66.33c0.54,0,0.97-0.08,1.17-0.13c0.66-0.16,2.16-0.74,3.07-2.42c0.15-0.28,0.27-0.54,0.46-1.15
				h-2.6c-0.15,0.24-0.2,0.32-0.29,0.44c-0.36,0.43-0.88,0.66-1.02,0.72c-0.16,0.05-0.42,0.13-0.81,0.13c-1.45,0-2.11-1.09-2.3-1.53
				c-0.07-0.16-0.17-0.46-0.19-0.92c0-0.98,0.56-1.87,1.47-2.26c0.17-0.08,0.52-0.21,1.01-0.21c0.76,0,1.43,0.33,1.88,0.93
				c0.08,0.12,0.16,0.23,0.23,0.36h2.6c-0.16-0.54-0.49-1.65-1.65-2.59c-1.23-1.01-2.48-1.11-3.09-1.11c-1.19,0-2.06,0.41-2.44,0.64
				c-0.76,0.45-2.43,1.76-2.43,4.31c0,1.34,0.5,2.2,0.81,2.64C119.97,64.87,121.23,66.33,123.61,66.33"/>
			<rect x="85.2" y="56.31" class="st3" width="10.25" height="10.25"/>
			<path class="st3" d="M101.04,61.45c0-2.73-2.21-4.95-4.94-4.95l-0.15,0v2.56l0.23,0c1.27,0.01,2.29,1.06,2.29,2.38
				c0,1.31-1.03,2.37-2.29,2.37l-0.23,0v2.58h0.13C98.81,66.4,101.04,64.18,101.04,61.45"/>
			<polygon class="st3" points="109.53,62.58 112.56,62.58 112.56,60.39 109.53,60.39 109.53,58.89 112.58,58.89 112.58,56.79 
				107.15,56.79 107.15,66.15 109.53,66.15 			"/>
			<polygon class="st3" points="129.74,66.15 132.12,66.15 132.12,58.89 133.99,58.89 133.99,56.79 127.91,56.79 127.91,58.88 
				129.74,58.88 			"/>
			<polygon class="st3" points="139.84,64.02 136.97,64.02 136.97,62.48 139.81,62.48 139.81,60.27 136.96,60.27 136.96,58.87 
				139.81,58.87 139.81,56.79 134.49,56.79 134.49,66.15 139.84,66.15 			"/>
			<path class="st3" d="M148.4,61.47c0-2.59-2.1-4.68-4.68-4.68l-3.34,0v9.36l3.32,0C146.29,66.15,148.4,64.06,148.4,61.47
				 M142.85,63.92v-4.94l0.55,0.01c1.37,0.01,2.48,1.04,2.48,2.46c0,1.42-1.11,2.47-2.48,2.47L142.85,63.92z"/>
			<path class="st3" d="M148.54,57.04l0.01,0.04l0.2,0.72h0.22l0.2-0.72v0.72h0.25v-1.02h-0.38l-0.16,0.6
				c-0.01,0.02-0.01,0.05-0.02,0.1c0,0.04-0.01,0.07-0.01,0.11c0-0.02,0-0.03,0-0.05c0-0.07-0.01-0.12-0.02-0.16l-0.16-0.6h-0.38
				v1.02h0.24C148.54,57.8,148.55,57.06,148.54,57.04"/>
			<polygon class="st3" points="147.63,57.8 147.9,57.8 147.9,57 148.19,57 148.19,56.78 147.33,56.78 147.33,57 147.63,57 			"/>
			
				<rect x="15.16" y="131.68" transform="matrix(0.9857 -0.1687 0.1687 0.9857 -22.1788 5.5661)" class="st3" width="13.02" height="3.32"/>
			<path class="st3" d="M30.39,142.3l-6.94,1.84l1.87-2.08c0.67-0.75,1.31-1.49,1.92-2.23c0.61-0.74,1.24-1.49,1.89-2.26l-0.74-2.8
				l-12.59,3.34l0.84,3.16l6.88-1.83L17.9,146l0.75,2.82l12.59-3.34L30.39,142.3z"/>
			<path class="st3" d="M30.14,163.93c0.4-0.06,0.75-0.14,1.05-0.25c0.3-0.11,0.54-0.2,0.72-0.28c0.9-0.42,1.68-1,2.34-1.76
				c0.65-0.76,1.11-1.61,1.38-2.56c0.05-0.19,0.1-0.44,0.16-0.76c0.05-0.32,0.08-0.69,0.08-1.1c0-0.41-0.04-0.86-0.13-1.34
				c-0.09-0.48-0.24-0.97-0.47-1.48c-0.41-0.88-0.99-1.65-1.75-2.31c-0.76-0.66-1.62-1.12-2.57-1.39c-0.55-0.15-1.06-0.24-1.55-0.25
				c-0.49-0.01-0.93,0.01-1.34,0.08c-0.41,0.07-0.77,0.15-1.07,0.26c-0.3,0.1-0.55,0.2-0.72,0.28c-0.8,0.37-1.52,0.89-2.14,1.56
				c-0.62,0.67-1.08,1.42-1.39,2.25c-0.31,0.83-0.45,1.7-0.41,2.62c0.03,0.91,0.23,1.77,0.6,2.57c0.42,0.91,1,1.69,1.76,2.35
				c0.76,0.66,1.62,1.11,2.58,1.36c0.54,0.14,1.05,0.22,1.54,0.24C29.3,164.01,29.75,163.99,30.14,163.93 M28.07,160.27
				c-0.1-0.04-0.23-0.09-0.39-0.17c-0.17-0.08-0.34-0.18-0.52-0.31c-0.18-0.13-0.36-0.29-0.53-0.5c-0.18-0.2-0.33-0.45-0.46-0.73
				c-0.17-0.38-0.27-0.79-0.29-1.22c-0.02-0.43,0.05-0.85,0.19-1.24c0.1-0.28,0.23-0.52,0.38-0.73c0.15-0.21,0.31-0.39,0.47-0.53
				c0.16-0.14,0.31-0.26,0.46-0.34c0.15-0.09,0.27-0.15,0.36-0.19c0.39-0.18,0.8-0.28,1.24-0.29c0.43-0.02,0.85,0.05,1.24,0.21
				c0.54,0.23,0.95,0.51,1.23,0.86c0.28,0.35,0.46,0.61,0.55,0.8c0.28,0.6,0.36,1.24,0.24,1.9c-0.12,0.66-0.4,1.23-0.86,1.7
				c-0.29,0.28-0.61,0.5-0.95,0.66c-0.26,0.12-0.51,0.2-0.75,0.24c-0.24,0.04-0.47,0.06-0.67,0.06c-0.21-0.01-0.39-0.03-0.55-0.06
				C28.3,160.34,28.17,160.31,28.07,160.27"/>
			<path class="st3" d="M34.53,174.48c0.2-0.06,0.37-0.11,0.51-0.15c0.36-0.12,0.72-0.28,1.08-0.49c0.35-0.21,0.69-0.42,1.01-0.62
				l6.25-3.96l-1.78-2.8l-6.92,4.39l-0.36,0.23c-0.36,0.23-0.74,0.29-1.14,0.18c-0.4-0.11-0.72-0.35-0.95-0.73
				c-0.02-0.03-0.05-0.08-0.08-0.13c-0.04-0.06-0.07-0.12-0.1-0.19c-0.04-0.08-0.06-0.16-0.08-0.26c-0.01-0.09-0.02-0.19-0.03-0.29
				c0.02-0.35,0.13-0.63,0.32-0.84c0.19-0.21,0.41-0.4,0.68-0.58l6.98-4.43l-1.78-2.8l-6.64,4.21c-0.27,0.17-0.5,0.32-0.69,0.46
				c-0.19,0.14-0.36,0.26-0.5,0.37c-0.14,0.11-0.27,0.22-0.38,0.33c-0.11,0.11-0.22,0.22-0.32,0.34c-0.21,0.24-0.41,0.54-0.6,0.89
				c-0.19,0.36-0.31,0.77-0.37,1.24c-0.06,0.47-0.03,0.98,0.08,1.53c0.11,0.56,0.37,1.15,0.78,1.8c0.43,0.67,0.85,1.16,1.27,1.45
				c0.42,0.29,0.79,0.5,1.12,0.62c0.37,0.16,0.73,0.25,1.05,0.3c0.32,0.04,0.62,0.05,0.89,0.04
				C34.09,174.57,34.33,174.53,34.53,174.48"/>
			<path class="st3" d="M45.32,180.94c0.38-0.15,0.78-0.39,1.18-0.72c0.39-0.32,0.7-0.64,0.93-0.97c0.23-0.33,0.41-0.65,0.53-0.97
				c0.12-0.31,0.21-0.61,0.25-0.88c0.04-0.27,0.06-0.51,0.05-0.71c-0.02-0.65-0.16-1.21-0.43-1.67c-0.27-0.46-0.59-0.94-0.98-1.41
				l-3.05-3.75l-10.11,8.21l2.08,2.56l3.24-2.63l-1.56,4.69l2.53,3.12l1.46-5.25c0.32,0.18,0.56,0.31,0.71,0.38
				c0.15,0.07,0.31,0.12,0.47,0.17c0.19,0.05,0.42,0.1,0.69,0.14c0.28,0.04,0.58,0.03,0.92-0.01
				C44.57,181.19,44.93,181.09,45.32,180.94 M43.64,178.12c-0.22,0.07-0.42,0.1-0.6,0.09c-0.18,0-0.35-0.03-0.5-0.08
				c-0.15-0.05-0.27-0.11-0.37-0.18c-0.08-0.06-0.15-0.12-0.22-0.18c-0.06-0.06-0.13-0.12-0.2-0.19c-0.04-0.03-0.09-0.08-0.14-0.15
				c-0.04-0.05-0.07-0.08-0.11-0.1l-0.66-0.82l2.78-2.25l0.7,0.86c0.23,0.28,0.41,0.56,0.56,0.84c0.14,0.29,0.15,0.61,0.03,0.99
				c-0.06,0.18-0.15,0.33-0.25,0.45c-0.1,0.12-0.22,0.24-0.36,0.35C44.08,177.93,43.86,178.05,43.64,178.12"/>
			<polygon class="st3" points="58.09,185.23 54.78,188.91 51.83,186.25 55.14,182.58 52.67,180.34 43.95,190.02 46.42,192.25 
				49.71,188.61 52.67,191.28 49.38,194.92 51.84,197.13 60.56,187.46 			"/>
			<path class="st3" d="M69.5,198.06c0.16-0.99,0.12-1.96-0.15-2.91c-0.05-0.18-0.14-0.43-0.26-0.73c-0.12-0.3-0.29-0.63-0.5-0.99
				c-0.21-0.35-0.48-0.71-0.81-1.08c-0.32-0.37-0.71-0.71-1.17-1.02c-0.8-0.55-1.7-0.9-2.7-1.07c-0.99-0.17-1.97-0.12-2.92,0.14
				c-0.55,0.15-1.03,0.34-1.46,0.58c-0.42,0.24-0.79,0.5-1.11,0.76c-0.32,0.27-0.58,0.53-0.78,0.77c-0.2,0.25-0.36,0.45-0.47,0.62
				c-0.5,0.73-0.84,1.55-1.02,2.44c-0.18,0.89-0.19,1.78-0.02,2.65c0.17,0.87,0.5,1.69,1,2.45c0.5,0.76,1.12,1.39,1.85,1.89
				c0.82,0.56,1.73,0.92,2.72,1.1c0.99,0.17,1.96,0.11,2.92-0.18c0.54-0.16,1.02-0.35,1.44-0.6c0.42-0.24,0.79-0.49,1.1-0.75
				c0.31-0.26,0.57-0.51,0.77-0.76c0.2-0.25,0.36-0.45,0.47-0.62C68.97,199.96,69.33,199.05,69.5,198.06 M65.92,197.72
				c-0.1,0.39-0.26,0.74-0.47,1.06c-0.16,0.23-0.33,0.43-0.52,0.6c-0.19,0.16-0.37,0.3-0.55,0.4c-0.18,0.1-0.35,0.18-0.5,0.23
				c-0.15,0.05-0.28,0.09-0.38,0.11c-0.1,0.02-0.25,0.04-0.43,0.06c-0.18,0.02-0.38,0.02-0.6,0c-0.22-0.02-0.46-0.07-0.71-0.15
				c-0.26-0.08-0.51-0.21-0.77-0.38c-0.35-0.23-0.64-0.53-0.88-0.89c-0.24-0.36-0.4-0.75-0.47-1.16c-0.06-0.29-0.07-0.57-0.05-0.83
				c0.02-0.26,0.06-0.49,0.13-0.69c0.06-0.2,0.13-0.38,0.22-0.53c0.08-0.15,0.15-0.27,0.21-0.35c0.24-0.36,0.54-0.65,0.9-0.89
				c0.36-0.24,0.75-0.39,1.17-0.46c0.58-0.08,1.08-0.05,1.49,0.1c0.42,0.15,0.71,0.28,0.89,0.4c0.55,0.37,0.95,0.87,1.19,1.5
				C66.03,196.44,66.08,197.08,65.92,197.72"/>
			<path class="st3" d="M78.26,198.38l-3.65,7.33l-0.19,0.38c-0.19,0.38-0.49,0.63-0.88,0.74c-0.4,0.11-0.8,0.07-1.19-0.13
				c-0.03-0.02-0.08-0.04-0.14-0.07c-0.06-0.03-0.12-0.07-0.18-0.11c-0.07-0.05-0.14-0.11-0.2-0.18c-0.06-0.07-0.12-0.15-0.17-0.23
				c-0.16-0.31-0.22-0.61-0.17-0.89c0.05-0.28,0.14-0.56,0.29-0.85l3.68-7.4l-2.97-1.48l-3.5,7.04c-0.14,0.29-0.26,0.54-0.35,0.75
				c-0.09,0.21-0.17,0.41-0.23,0.57c-0.06,0.17-0.12,0.33-0.16,0.48c-0.04,0.15-0.07,0.3-0.09,0.46c-0.06,0.31-0.08,0.67-0.05,1.08
				c0.03,0.4,0.13,0.82,0.32,1.25c0.19,0.43,0.48,0.86,0.86,1.27c0.38,0.42,0.92,0.79,1.6,1.14c0.72,0.36,1.33,0.55,1.83,0.58
				c0.51,0.03,0.93,0.02,1.28-0.04c0.4-0.06,0.75-0.16,1.05-0.29c0.3-0.13,0.56-0.27,0.78-0.43c0.22-0.15,0.4-0.3,0.55-0.46
				c0.14-0.15,0.26-0.28,0.36-0.39c0.25-0.29,0.48-0.61,0.67-0.98c0.19-0.36,0.38-0.72,0.55-1.06l3.29-6.62L78.26,198.38z"/>
			<path class="st3" d="M87.01,208.96c-0.04-0.11-0.09-0.21-0.16-0.31c-0.11-0.21-0.29-0.47-0.54-0.78
				c-0.25-0.31-0.6-0.68-1.04-1.12c-0.19-0.17-0.34-0.32-0.47-0.45c-0.13-0.13-0.25-0.25-0.37-0.37c-0.19-0.23-0.33-0.45-0.4-0.68
				c-0.02-0.06-0.03-0.14-0.04-0.24c-0.01-0.1,0.01-0.21,0.06-0.34c0.11-0.3,0.28-0.51,0.52-0.62c0.24-0.11,0.5-0.11,0.79-0.01
				c0.22,0.08,0.39,0.21,0.53,0.39c0.13,0.18,0.19,0.38,0.17,0.61c0,0.07-0.01,0.13-0.03,0.21c-0.02,0.07-0.06,0.19-0.12,0.35
				l2.89,1.06c0.04-0.17,0.08-0.31,0.12-0.42c0.05-0.11,0.08-0.23,0.1-0.36c0-0.07,0-0.13,0.02-0.2c0.02-0.07,0.03-0.13,0.02-0.2
				c0.01-0.06,0.01-0.13,0.01-0.19c0-0.07,0-0.14,0-0.22c-0.01-0.16-0.03-0.36-0.07-0.61c-0.04-0.24-0.11-0.5-0.22-0.78
				c-0.1-0.27-0.26-0.55-0.46-0.84c-0.2-0.28-0.47-0.56-0.79-0.82c-0.26-0.21-0.51-0.37-0.74-0.48c-0.23-0.1-0.42-0.18-0.55-0.23
				c-0.14-0.05-0.33-0.1-0.56-0.16c-0.23-0.06-0.5-0.1-0.81-0.12c-0.31-0.02-0.64-0.01-1,0.04c-0.36,0.05-0.72,0.15-1.1,0.32
				c-0.34,0.15-0.63,0.32-0.86,0.51c-0.23,0.19-0.43,0.38-0.59,0.58c-0.16,0.2-0.28,0.39-0.37,0.57c-0.09,0.18-0.16,0.35-0.21,0.48
				c-0.18,0.49-0.25,0.94-0.23,1.36c0.02,0.42,0.09,0.8,0.2,1.14c0.11,0.34,0.25,0.62,0.42,0.86c0.17,0.24,0.31,0.42,0.42,0.55
				c0.18,0.2,0.35,0.38,0.53,0.56c0.18,0.18,0.37,0.35,0.56,0.53l0.49,0.43c0.23,0.26,0.43,0.52,0.58,0.79
				c0.16,0.27,0.17,0.59,0.03,0.96c-0.11,0.3-0.3,0.51-0.57,0.64c-0.27,0.12-0.56,0.13-0.87,0.02c-0.15-0.06-0.26-0.12-0.34-0.18
				c-0.08-0.07-0.14-0.13-0.19-0.19c-0.21-0.25-0.29-0.51-0.25-0.79c0.04-0.28,0.12-0.57,0.23-0.87l-2.98-1.09
				c-0.13,0.38-0.23,0.73-0.3,1.05c-0.08,0.31-0.12,0.64-0.12,0.98c0,0.26,0.04,0.56,0.12,0.9c0.09,0.34,0.24,0.68,0.46,1.03
				c0.22,0.35,0.52,0.69,0.91,1.01c0.38,0.32,0.88,0.6,1.5,0.82c0.14,0.05,0.3,0.1,0.5,0.16c0.2,0.06,0.41,0.1,0.66,0.13
				c0.24,0.03,0.52,0.04,0.82,0.02c0.3-0.01,0.63-0.08,0.98-0.18c0.47-0.14,0.87-0.32,1.19-0.55c0.32-0.22,0.59-0.45,0.8-0.7
				c0.21-0.24,0.38-0.49,0.5-0.73c0.12-0.24,0.22-0.46,0.28-0.64c0.07-0.2,0.14-0.47,0.22-0.83c0.07-0.36,0.03-0.8-0.12-1.31
				C87.14,209.25,87.08,209.09,87.01,208.96"/>
			<polygon class="st3" points="87.57,215.92 94.77,217.77 95.51,214.88 91.65,213.88 92.18,211.85 96,212.83 96.77,209.85 
				92.93,208.86 93.41,206.98 97.25,207.97 97.98,205.15 90.81,203.3 			"/>
			<path class="st3" d="M112.97,212.15c-0.1,0.33-0.21,0.67-0.33,1.04c-0.12,0.37-0.27,0.87-0.46,1.52l-0.44-2.72l-0.95-5.12
				l-2.87-0.24l-1.84,5.12l-0.71,2.25c-0.1-0.62-0.16-1.12-0.21-1.48c-0.04-0.36-0.09-0.7-0.14-1.01l-0.8-5.2l-3.6-0.31l2.58,13.29
				l3.07,0.26l2.59-7.19l0.4,2.29l0.93,5.23l3.18,0.27l4.46-12.69l-3.29-0.28L112.97,212.15z"/>
			<polygon class="st3" points="121.89,216.98 121.79,214.88 125.73,214.68 125.57,211.6 121.61,211.81 121.51,209.87 
				125.47,209.67 125.32,206.76 117.93,207.14 118.6,220.15 126.03,219.76 125.87,216.78 			"/>
			<path class="st3" d="M133.61,205.47l-2.51,13.88l3.67-0.74l0.23-1.91l4.29-0.87l1,1.66l3.76-0.76l-7.78-11.79L133.61,205.47z
				 M135.3,213.86l0.46-4.22l2.14,3.69L135.3,213.86z"/>
			<path class="st3" d="M151.43,209.16c0.12-0.12,0.22-0.25,0.32-0.38c0.12-0.16,0.24-0.36,0.37-0.6c0.13-0.25,0.23-0.54,0.31-0.87
				c0.07-0.33,0.11-0.7,0.09-1.11c-0.01-0.41-0.1-0.86-0.27-1.35c-0.16-0.48-0.36-0.88-0.59-1.21c-0.23-0.33-0.47-0.61-0.73-0.83
				s-0.5-0.4-0.74-0.54c-0.24-0.13-0.46-0.23-0.65-0.29c-0.62-0.2-1.19-0.26-1.72-0.17c-0.53,0.09-1.08,0.24-1.66,0.44l-4.57,1.57
				l4.23,12.32l3.12-1.07l-1.35-3.94l3.87,3.08l3.8-1.31l-4.43-3.18C151.12,209.45,151.32,209.28,151.43,209.16 M149.18,207.39
				c-0.07,0.17-0.15,0.32-0.25,0.44c-0.1,0.12-0.2,0.21-0.29,0.29c-0.09,0.06-0.17,0.1-0.24,0.14c-0.08,0.04-0.16,0.08-0.25,0.13
				c-0.04,0.03-0.1,0.06-0.19,0.08c-0.06,0.02-0.1,0.04-0.13,0.07l-0.99,0.34l-1.16-3.38l1.05-0.36c0.34-0.12,0.67-0.19,0.98-0.23
				c0.32-0.04,0.63,0.07,0.94,0.31c0.14,0.12,0.26,0.25,0.34,0.39c0.08,0.14,0.15,0.29,0.21,0.46c0.09,0.27,0.13,0.51,0.12,0.74
				C149.28,207.02,149.24,207.22,149.18,207.39"/>
			<polygon class="st3" points="158.73,208 157.85,206.09 161.43,204.43 160.14,201.64 156.54,203.3 155.72,201.54 159.32,199.88 
				158.1,197.23 151.39,200.34 156.86,212.16 163.6,209.04 162.35,206.33 			"/>
			<path class="st3" d="M165.3,192.94l2.85,13.81l3.13-2.06l-0.5-1.86l3.65-2.41l1.54,1.17l3.2-2.11l-11.61-8.03L165.3,192.94z
				 M172.22,198.63L170,200.1l-1.15-4.08L172.22,198.63z"/>
			<polygon class="st3" points="181.11,193.77 174.7,186.14 172.13,188.3 180.51,198.27 186.07,193.6 184.1,191.25 			"/>
			<polygon class="st3" points="187.78,187.66 180.71,180.64 178.35,183.03 187.59,192.2 192.71,187.05 190.54,184.89 			"/>
			<polygon class="st3" points="196.2,178.21 194.53,176.93 196.94,173.8 194.5,171.92 192.08,175.06 190.55,173.88 192.97,170.74 
				190.66,168.96 186.14,174.82 196.46,182.77 201,176.88 198.63,175.06 			"/>
			<path class="st3" d="M206.87,162.73c-0.16,0.15-0.36,0.27-0.6,0.38l-0.49-0.8c-0.18-0.29-0.38-0.56-0.59-0.78
				c-0.21-0.23-0.41-0.43-0.61-0.6c-0.2-0.17-0.39-0.31-0.56-0.43c-0.17-0.12-0.31-0.21-0.42-0.27c-0.79-0.47-1.68-0.76-2.66-0.87
				c-0.98-0.11-1.92-0.03-2.82,0.26c-0.55,0.18-1.04,0.4-1.46,0.67c-0.43,0.27-0.8,0.55-1.11,0.83c-0.31,0.29-0.57,0.57-0.77,0.84
				c-0.2,0.27-0.35,0.49-0.45,0.66c-0.49,0.83-0.78,1.73-0.89,2.7c-0.11,0.97-0.02,1.91,0.27,2.83c0.26,0.8,0.65,1.52,1.17,2.18
				c0.52,0.66,1.13,1.19,1.84,1.61c0.83,0.49,1.73,0.78,2.7,0.89c0.97,0.11,1.91,0.01,2.81-0.28c0.8-0.26,1.53-0.66,2.19-1.19
				c0.67-0.54,1.21-1.17,1.64-1.9c0.22-0.37,0.39-0.73,0.51-1.07c0.12-0.34,0.21-0.66,0.27-0.95c0.04-0.26,0.07-0.5,0.08-0.72
				c0.02-0.22,0.03-0.44,0.05-0.66c0.12-0.03,0.21-0.06,0.27-0.08c0.06-0.02,0.13-0.04,0.2-0.07c0.1-0.04,0.2-0.09,0.31-0.15
				c0.11-0.06,0.23-0.13,0.35-0.21c0.4-0.26,0.73-0.58,0.99-0.96c0.13-0.17,0.25-0.35,0.37-0.53c0.12-0.19,0.23-0.39,0.35-0.61
				l-2.36-1.41C207.22,162.34,207.03,162.58,206.87,162.73 M199.86,165.51c-0.36,0.26-0.66,0.52-0.88,0.8
				c-0.22,0.28-0.37,0.49-0.46,0.64c-0.14,0.24-0.26,0.5-0.34,0.76c-0.08,0.26-0.16,0.61-0.22,1.03c-0.24-0.24-0.42-0.44-0.53-0.58
				c-0.11-0.14-0.22-0.31-0.31-0.49c-0.06-0.12-0.13-0.29-0.21-0.52c-0.08-0.23-0.14-0.48-0.17-0.77c-0.03-0.29-0.01-0.6,0.04-0.95
				c0.06-0.34,0.2-0.7,0.42-1.07c0.06-0.11,0.16-0.24,0.28-0.4c0.12-0.16,0.28-0.33,0.47-0.49c0.19-0.17,0.42-0.32,0.68-0.46
				c0.26-0.14,0.56-0.24,0.9-0.31c0.22-0.04,0.55-0.05,0.97-0.04c0.42,0.01,0.89,0.17,1.39,0.47c0.13,0.07,0.24,0.15,0.34,0.22
				c0.1,0.07,0.19,0.16,0.28,0.25c0.09,0.09,0.18,0.2,0.26,0.32c0.09,0.12,0.19,0.25,0.32,0.41c-0.24,0.06-0.45,0.12-0.64,0.17
				c-0.19,0.05-0.4,0.11-0.63,0.18c-0.32,0.1-0.65,0.22-0.99,0.36C200.48,165.15,200.16,165.32,199.86,165.51 M203.25,167.6
				c-0.05,0.13-0.11,0.24-0.17,0.35c-0.14,0.24-0.31,0.45-0.49,0.62c-0.19,0.17-0.37,0.31-0.55,0.42c-0.18,0.11-0.35,0.19-0.51,0.26
				c-0.16,0.06-0.28,0.11-0.36,0.13c-0.06,0.02-0.11,0.04-0.16,0.05c-0.05,0.01-0.09,0.01-0.14,0.02c-0.04,0-0.1,0.01-0.18,0.03
				c-0.07,0.01-0.2,0.04-0.38,0.08c0.02-0.23,0.06-0.41,0.11-0.55c0.05-0.14,0.11-0.27,0.18-0.38c0.12-0.2,0.33-0.44,0.63-0.73
				c0.3-0.28,0.74-0.52,1.31-0.72l0.89-0.2C203.37,167.25,203.3,167.47,203.25,167.6"/>
			<path class="st3" d="M212.26,152.93c-0.15-0.29-0.31-0.54-0.47-0.75c-0.17-0.21-0.33-0.38-0.49-0.52
				c-0.16-0.14-0.3-0.25-0.41-0.33c-0.3-0.23-0.64-0.44-1.02-0.61c-0.38-0.17-0.74-0.33-1.09-0.48l-6.82-2.87l-1.29,3.06l7.55,3.18
				l0.39,0.16c0.4,0.17,0.66,0.45,0.8,0.84c0.14,0.39,0.12,0.79-0.05,1.2c-0.01,0.03-0.03,0.08-0.06,0.14
				c-0.03,0.06-0.06,0.13-0.1,0.19c-0.04,0.07-0.1,0.14-0.17,0.21c-0.07,0.07-0.14,0.13-0.22,0.19c-0.3,0.18-0.59,0.25-0.87,0.22
				c-0.28-0.03-0.57-0.11-0.86-0.23l-7.62-3.21l-1.29,3.06l7.24,3.05c0.29,0.12,0.55,0.23,0.77,0.31c0.22,0.08,0.42,0.14,0.59,0.2
				c0.17,0.05,0.33,0.09,0.49,0.13c0.15,0.03,0.31,0.05,0.46,0.06c0.32,0.04,0.68,0.03,1.08-0.02c0.4-0.05,0.81-0.18,1.23-0.4
				c0.42-0.22,0.82-0.53,1.22-0.94c0.39-0.41,0.74-0.96,1.03-1.67c0.31-0.74,0.46-1.36,0.47-1.87c0-0.51-0.04-0.93-0.12-1.27
				C212.53,153.57,212.42,153.22,212.26,152.93"/>
			<path class="st3" d="M203.23,142.91l11.17,8.6l1.02-3.6l-1.59-1.08l1.19-4.21l1.93-0.12l1.05-3.69l-14.04,1.5L203.23,142.91z
				 M212.18,142.71l-0.73,2.56l-3.53-2.35L212.18,142.71z"/>
			<polygon class="st3" points="216.36,129.37 215.74,133.23 205.9,131.64 205.37,134.96 218.22,137.03 219.38,129.85 			"/>
			<path class="st3" d="M15.4,116.92c0,1.98,1.61,3.59,3.59,3.59c1.98,0,3.59-1.61,3.59-3.59c0-1.98-1.61-3.59-3.59-3.59
				C17.01,113.33,15.4,114.93,15.4,116.92"/>
			<polygon class="st3" points="101.23,174.36 103.11,174.36 103.11,172.89 101.22,172.89 101.22,171.97 103.11,171.97 
				103.11,170.59 99.59,170.59 99.59,176.77 103.13,176.77 103.13,175.35 101.23,175.35 			"/>
			<path class="st3" d="M107.77,173.88c-0.05-0.08-0.11-0.14-0.16-0.18c-0.04-0.04-0.08-0.08-0.12-0.11
				c-0.08-0.08-0.21-0.16-0.37-0.26c-0.16-0.1-0.38-0.21-0.65-0.33c-0.11-0.05-0.21-0.09-0.29-0.12c-0.08-0.03-0.15-0.07-0.22-0.1
				c-0.12-0.07-0.22-0.15-0.29-0.24c-0.02-0.02-0.04-0.06-0.06-0.1c-0.02-0.04-0.03-0.1-0.03-0.16c0-0.15,0.04-0.27,0.13-0.36
				c0.09-0.09,0.2-0.13,0.35-0.13c0.11,0,0.21,0.03,0.3,0.09c0.09,0.06,0.15,0.14,0.18,0.25c0.01,0.03,0.02,0.06,0.02,0.1
				c0,0.03,0,0.09,0,0.18h1.47c-0.01-0.08-0.02-0.15-0.01-0.21c0-0.06,0-0.12-0.01-0.18c-0.01-0.03-0.02-0.06-0.02-0.09
				c0-0.03-0.01-0.06-0.02-0.09c-0.01-0.03-0.02-0.06-0.03-0.09c-0.01-0.03-0.02-0.06-0.04-0.1c-0.03-0.07-0.07-0.16-0.13-0.26
				c-0.06-0.1-0.13-0.21-0.22-0.31c-0.09-0.1-0.2-0.2-0.34-0.3c-0.14-0.09-0.3-0.17-0.49-0.24c-0.15-0.05-0.29-0.08-0.41-0.09
				c-0.12-0.01-0.21-0.01-0.29-0.01c-0.07,0-0.16,0.01-0.28,0.02c-0.11,0.01-0.24,0.04-0.38,0.08c-0.14,0.04-0.29,0.1-0.44,0.18
				c-0.15,0.08-0.3,0.19-0.44,0.32c-0.13,0.12-0.23,0.25-0.3,0.37c-0.07,0.12-0.13,0.24-0.17,0.35c-0.04,0.11-0.06,0.22-0.07,0.32
				c-0.01,0.1-0.01,0.18-0.01,0.25c0,0.24,0.04,0.46,0.12,0.64c0.08,0.18,0.17,0.34,0.28,0.47c0.1,0.13,0.21,0.24,0.33,0.32
				c0.11,0.08,0.21,0.14,0.28,0.18c0.11,0.06,0.22,0.11,0.33,0.16c0.11,0.05,0.22,0.1,0.34,0.14l0.29,0.11
				c0.15,0.08,0.28,0.16,0.39,0.26c0.11,0.1,0.17,0.24,0.17,0.42c0,0.15-0.05,0.28-0.15,0.38c-0.1,0.1-0.23,0.15-0.39,0.15
				c-0.08,0-0.14-0.01-0.18-0.03c-0.05-0.02-0.09-0.03-0.11-0.05c-0.13-0.08-0.22-0.18-0.24-0.31c-0.03-0.13-0.04-0.27-0.04-0.42
				h-1.51c0.01,0.19,0.02,0.36,0.03,0.52c0.02,0.15,0.05,0.3,0.11,0.46c0.04,0.12,0.11,0.24,0.2,0.38c0.09,0.14,0.22,0.27,0.37,0.39
				c0.15,0.12,0.35,0.22,0.57,0.3c0.23,0.08,0.49,0.12,0.8,0.12c0.07,0,0.15,0,0.25-0.01c0.1-0.01,0.2-0.02,0.32-0.05
				c0.11-0.03,0.24-0.07,0.37-0.12c0.13-0.06,0.27-0.14,0.41-0.24c0.19-0.14,0.34-0.29,0.44-0.44c0.11-0.15,0.19-0.3,0.25-0.44
				c0.06-0.14,0.09-0.28,0.11-0.41c0.01-0.13,0.02-0.24,0.02-0.33c0-0.1-0.01-0.24-0.04-0.41
				C108.02,174.28,107.93,174.09,107.77,173.88"/>
			<polygon class="st3" points="112.67,170.59 108.65,170.59 108.65,171.98 109.86,171.98 109.86,176.77 111.44,176.77 
				111.44,171.99 112.67,171.99 			"/>
			<rect x="112.59" y="175.31" class="st3" width="1.45" height="1.46"/>
			<polygon class="st3" points="116.85,171.77 117.57,171.77 117.57,176.77 119.12,176.77 119.12,170.59 116.85,170.59 			"/>
			<path class="st3" d="M124.11,171.54c-0.1-0.16-0.22-0.29-0.33-0.4c-0.12-0.11-0.22-0.19-0.31-0.26c-0.27-0.19-0.52-0.3-0.76-0.35
				c-0.24-0.04-0.42-0.07-0.55-0.07c-0.32,0-0.62,0.06-0.9,0.18c-0.28,0.12-0.53,0.28-0.74,0.5c-0.21,0.21-0.38,0.46-0.51,0.74
				c-0.13,0.28-0.19,0.58-0.19,0.9c0,0.23,0.03,0.45,0.1,0.67c0.06,0.22,0.16,0.42,0.28,0.61c0.12,0.19,0.27,0.35,0.44,0.49
				c0.17,0.14,0.37,0.24,0.59,0.3c0.12,0.04,0.23,0.06,0.35,0.06c0.11,0.01,0.25,0,0.42-0.01l-1.46,1.87h1.92l1.37-2.08
				c0.1-0.15,0.19-0.29,0.27-0.43c0.08-0.14,0.15-0.28,0.21-0.43c0.06-0.15,0.1-0.3,0.13-0.46c0.03-0.16,0.04-0.33,0.04-0.52
				c0-0.29-0.04-0.54-0.11-0.76C124.3,171.89,124.21,171.7,124.11,171.54 M122.73,173.37c-0.15,0.16-0.35,0.24-0.58,0.24
				c-0.11,0-0.22-0.02-0.32-0.06c-0.1-0.04-0.19-0.1-0.26-0.17c-0.07-0.07-0.13-0.15-0.18-0.25c-0.04-0.1-0.07-0.21-0.07-0.32
				c0-0.11,0.02-0.21,0.06-0.31c0.04-0.1,0.1-0.18,0.17-0.25c0.07-0.07,0.16-0.13,0.26-0.18c0.1-0.04,0.2-0.07,0.32-0.07
				c0.15,0,0.28,0.03,0.37,0.09c0.09,0.06,0.16,0.11,0.2,0.15c0.12,0.11,0.19,0.21,0.21,0.32c0.02,0.11,0.03,0.19,0.03,0.24
				C122.96,173.02,122.88,173.21,122.73,173.37"/>
			<path class="st3" d="M129.29,171.54c-0.11-0.16-0.22-0.29-0.33-0.4c-0.12-0.11-0.22-0.19-0.31-0.26
				c-0.27-0.19-0.52-0.3-0.76-0.35c-0.24-0.04-0.43-0.07-0.55-0.07c-0.32,0-0.62,0.06-0.9,0.18c-0.28,0.12-0.53,0.28-0.74,0.5
				c-0.21,0.21-0.38,0.46-0.5,0.74c-0.13,0.28-0.19,0.58-0.19,0.9c0,0.23,0.03,0.45,0.1,0.67c0.06,0.22,0.16,0.42,0.28,0.61
				c0.12,0.19,0.27,0.35,0.44,0.49c0.17,0.14,0.37,0.24,0.59,0.3c0.12,0.04,0.23,0.06,0.35,0.06c0.11,0.01,0.25,0,0.42-0.01
				l-1.46,1.87h1.92l1.37-2.08c0.1-0.15,0.19-0.29,0.27-0.43c0.08-0.14,0.15-0.28,0.21-0.43c0.06-0.15,0.1-0.3,0.13-0.46
				c0.03-0.16,0.04-0.33,0.04-0.52c0-0.29-0.03-0.54-0.1-0.76C129.48,171.89,129.4,171.7,129.29,171.54 M127.91,173.37
				c-0.15,0.16-0.35,0.24-0.58,0.24c-0.11,0-0.22-0.02-0.32-0.06c-0.1-0.04-0.19-0.1-0.26-0.17c-0.07-0.07-0.13-0.15-0.18-0.25
				c-0.04-0.1-0.07-0.21-0.07-0.32c0-0.11,0.02-0.21,0.06-0.31c0.04-0.1,0.1-0.18,0.17-0.25c0.07-0.07,0.16-0.13,0.26-0.18
				c0.1-0.04,0.2-0.07,0.32-0.07c0.15,0,0.28,0.03,0.37,0.09c0.09,0.06,0.16,0.11,0.2,0.15c0.12,0.11,0.19,0.21,0.21,0.32
				c0.02,0.11,0.04,0.19,0.04,0.24C128.14,173.02,128.06,173.21,127.91,173.37"/>
			<path class="st3" d="M134.43,171.54c-0.1-0.16-0.22-0.29-0.33-0.4c-0.12-0.11-0.22-0.19-0.31-0.26c-0.27-0.19-0.52-0.3-0.76-0.35
				c-0.24-0.04-0.42-0.07-0.55-0.07c-0.32,0-0.62,0.06-0.9,0.18c-0.28,0.12-0.53,0.28-0.74,0.5c-0.21,0.21-0.38,0.46-0.51,0.74
				c-0.13,0.28-0.19,0.58-0.19,0.9c0,0.23,0.03,0.45,0.1,0.67c0.06,0.22,0.16,0.42,0.28,0.61c0.12,0.19,0.27,0.35,0.44,0.49
				c0.17,0.14,0.37,0.24,0.59,0.3c0.12,0.04,0.23,0.06,0.35,0.06c0.11,0.01,0.25,0,0.42-0.01l-1.46,1.87h1.92l1.37-2.08
				c0.1-0.15,0.19-0.29,0.27-0.43c0.08-0.14,0.15-0.28,0.21-0.43c0.06-0.15,0.1-0.3,0.13-0.46c0.03-0.16,0.04-0.33,0.04-0.52
				c0-0.29-0.04-0.54-0.11-0.76C134.62,171.89,134.53,171.7,134.43,171.54 M133.05,173.37c-0.15,0.16-0.35,0.24-0.58,0.24
				c-0.11,0-0.22-0.02-0.32-0.06c-0.1-0.04-0.19-0.1-0.26-0.17c-0.07-0.07-0.13-0.15-0.18-0.25c-0.04-0.1-0.07-0.21-0.07-0.32
				c0-0.11,0.02-0.21,0.06-0.31c0.04-0.1,0.1-0.18,0.17-0.25c0.07-0.07,0.16-0.13,0.26-0.18c0.1-0.04,0.21-0.07,0.32-0.07
				c0.15,0,0.28,0.03,0.37,0.09c0.09,0.06,0.16,0.11,0.2,0.15c0.12,0.11,0.19,0.21,0.21,0.32c0.02,0.11,0.03,0.19,0.03,0.24
				C133.28,173.02,133.2,173.21,133.05,173.37"/>
			<path class="st3" d="M90.44,180.98h52.96v-14.12H90.44V180.98z M91.18,167.6h51.49v12.64H91.18V167.6z"/>
			<path class="st3" d="M112.81,154.04v-17.96c0-1.86-0.74-1.86-1.86-1.86H97.48c-1.12,0-1.86,0-1.86,1.86v4.88H79.13v-9.37
				c0-2.29,0-3.67,2.54-4.31l11.22-2.81c17.94-4.48,19.91-5.46,19.91-19.83V88.94c0-13.08-8.74-13.08-19.81-13.08H81.77
				c-11.07,0-19.82,0-19.82,13.08v12.35c0,1.86,0.74,1.86,1.86,1.86h13.47c1.12,0,1.86,0,1.86-1.86v-7.86
				c0-2.63,1.52-2.63,2.63-2.63h11.22c1.11,0,2.63,0,2.63,2.63v11.22c0,2.29,0,3.67-2.54,4.31l-11.22,2.81
				c-17.94,4.48-19.91,5.46-19.91,19.83v22.45c0,1.86,0.74,1.86,1.86,1.86h47.14C112.07,155.9,112.81,155.9,112.81,154.04"/>
			<path class="st2" d="M113.58,154.04v-17.96c0-2.63-1.52-2.63-2.63-2.63H97.48c-1.11,0-2.63,0-2.63,2.63v4.1H79.91v-8.59
				c0-2.23,0-3.06,1.95-3.55l11.23-2.81c18.18-4.54,20.5-5.7,20.5-20.58V88.94c0-13.86-9.54-13.86-20.59-13.86H81.77
				c-11.05,0-20.59,0-20.59,13.86v12.35c0,2.63,1.52,2.63,2.63,2.63h13.47c1.11,0,2.63,0,2.63-2.63v-7.86
				c0-1.86,0.74-1.86,1.86-1.86h11.22c1.12,0,1.86,0,1.86,1.86v11.22c0,2.23,0,3.06-1.95,3.55l-11.22,2.81
				c-18.18,4.54-20.5,5.7-20.5,20.58v22.45c0,2.63,1.52,2.63,2.63,2.63h47.14C112.06,156.68,113.58,156.68,113.58,154.04
				 M61.95,154.04v-22.45c0-14.37,1.97-15.34,19.91-19.83l11.22-2.81c2.54-0.63,2.54-2.02,2.54-4.31V93.43
				c0-2.63-1.52-2.63-2.63-2.63H81.77c-1.11,0-2.63,0-2.63,2.63v7.86c0,1.86-0.74,1.86-1.86,1.86H63.81c-1.12,0-1.86,0-1.86-1.86
				V88.94c0-13.08,8.74-13.08,19.82-13.08h11.22c11.07,0,19.81,0,19.81,13.08v15.71c0,14.37-1.97,15.34-19.91,19.83l-11.22,2.81
				c-2.54,0.64-2.54,2.02-2.54,4.31v9.37h16.49v-4.88c0-1.86,0.74-1.86,1.86-1.86h13.47c1.12,0,1.86,0,1.86,1.86v17.96
				c0,1.86-0.74,1.86-1.86,1.86H63.81C62.69,155.9,61.95,155.9,61.95,154.04"/>
			<path class="st3" d="M152.48,75.86h-11.22c-11.07,0-19.81,0-19.81,13.08v53.88c0,13.08,8.74,13.08,19.81,13.08h11.22
				c11.07,0,19.81,0,19.81-13.08V88.94C172.29,75.86,163.55,75.86,152.48,75.86 M155.11,138.33c0,2.63-1.52,2.63-2.63,2.63h-11.22
				c-1.11,0-2.63,0-2.63-2.63v-44.9c0-2.63,1.52-2.63,2.63-2.63h11.22c1.11,0,2.63,0,2.63,2.63V138.33z"/>
			<path class="st2" d="M152.48,75.08h-11.22c-11.05,0-20.59,0-20.59,13.86v53.88c0,13.86,9.54,13.86,20.59,13.86h11.22
				c11.05,0,20.59,0,20.59-13.86V88.94C173.07,75.08,163.53,75.08,152.48,75.08 M172.29,142.82c0,13.08-8.74,13.08-19.81,13.08
				h-11.22c-11.07,0-19.81,0-19.81-13.08V88.94c0-13.08,8.74-13.08,19.81-13.08h11.22c11.07,0,19.81,0,19.81,13.08V142.82z"/>
			<path class="st2" d="M152.48,90.8h-11.22c-1.11,0-2.63,0-2.63,2.63v44.9c0,2.63,1.52,2.63,2.63,2.63h11.22
				c1.11,0,2.63,0,2.63-2.63v-44.9C155.11,90.8,153.59,90.8,152.48,90.8 M154.34,138.33c0,1.86-0.74,1.86-1.86,1.86h-11.22
				c-1.12,0-1.85,0-1.85-1.86v-44.9c0-1.86,0.74-1.86,1.85-1.86h11.22c1.12,0,1.86,0,1.86,1.86V138.33z"/>
			<polygon class="st3" points="29.19,101.08 23.63,99.94 24.56,95.43 30.12,96.57 30.88,92.83 16.14,89.8 15.37,93.55 20.96,94.71 
				20.04,99.2 14.44,98.05 13.66,101.83 28.41,104.86 			"/>
			<path class="st3" d="M19.67,86.24c0.31,0.58,0.66,1.07,1.04,1.48c0.38,0.41,0.77,0.76,1.15,1.04c0.39,0.28,0.75,0.51,1.08,0.67
				c0.33,0.17,0.61,0.29,0.82,0.37c0.96,0.36,1.96,0.53,3.02,0.5c1.05-0.03,2.05-0.26,2.98-0.68c0.94-0.42,1.77-1.01,2.49-1.78
				c0.73-0.77,1.27-1.63,1.63-2.58c0.41-1.08,0.58-2.19,0.51-3.35c-0.07-1.16-0.39-2.24-0.97-3.23c-0.32-0.56-0.67-1.05-1.05-1.46
				c-0.38-0.41-0.76-0.76-1.13-1.04c-0.37-0.28-0.73-0.5-1.06-0.67c-0.33-0.16-0.61-0.29-0.82-0.37c-1.08-0.41-2.19-0.58-3.35-0.5
				c-1.15,0.08-2.23,0.39-3.23,0.94c-0.19,0.11-0.45,0.27-0.76,0.49c-0.31,0.22-0.64,0.49-0.98,0.83c-0.34,0.33-0.67,0.73-1,1.19
				c-0.33,0.46-0.61,0.99-0.83,1.59c-0.4,1.05-0.56,2.16-0.49,3.32C18.81,84.16,19.12,85.24,19.67,86.24 M22.9,82.27
				c0.06-0.51,0.13-0.88,0.22-1.1c0.27-0.72,0.73-1.3,1.37-1.74c0.64-0.44,1.34-0.66,2.1-0.66c0.47,0.01,0.91,0.09,1.32,0.25
				c0.31,0.12,0.58,0.26,0.81,0.42c0.23,0.17,0.43,0.34,0.59,0.51c0.16,0.18,0.29,0.34,0.39,0.5c0.1,0.16,0.17,0.29,0.22,0.41
				c0.05,0.11,0.11,0.26,0.18,0.47c0.07,0.2,0.12,0.43,0.16,0.68c0.04,0.25,0.05,0.53,0.02,0.84c-0.03,0.31-0.1,0.63-0.23,0.96
				c-0.17,0.45-0.43,0.86-0.77,1.22c-0.34,0.36-0.74,0.64-1.18,0.84c-0.31,0.14-0.62,0.23-0.92,0.28c-0.3,0.05-0.57,0.06-0.82,0.04
				c-0.24-0.02-0.46-0.05-0.66-0.1c-0.19-0.05-0.34-0.1-0.45-0.14c-0.46-0.18-0.88-0.44-1.24-0.78c-0.36-0.34-0.64-0.74-0.83-1.2
				C22.93,83.35,22.84,82.78,22.9,82.27"/>
			<path class="st3" d="M32.39,75.1c0.24,0.12,0.46,0.22,0.65,0.31c0.19,0.08,0.37,0.15,0.54,0.21c0.17,0.06,0.35,0.1,0.52,0.14
				c0.36,0.09,0.77,0.13,1.24,0.13c0.47,0,0.96-0.1,1.47-0.29c0.51-0.19,1.02-0.49,1.53-0.91c0.51-0.41,0.98-1,1.42-1.77
				c0.46-0.8,0.72-1.49,0.8-2.08c0.07-0.58,0.08-1.07,0.04-1.48c-0.04-0.47-0.13-0.88-0.26-1.23c-0.13-0.35-0.28-0.66-0.44-0.93
				c-0.16-0.26-0.32-0.48-0.49-0.66c-0.17-0.18-0.31-0.32-0.42-0.44c-0.31-0.31-0.67-0.59-1.08-0.84c-0.41-0.25-0.8-0.48-1.18-0.7
				l-7.42-4.25l-1.91,3.33l8.22,4.7l0.43,0.24c0.43,0.25,0.7,0.61,0.8,1.07c0.1,0.47,0.02,0.92-0.23,1.37
				c-0.02,0.04-0.05,0.09-0.09,0.16c-0.04,0.07-0.09,0.14-0.14,0.2c-0.06,0.08-0.14,0.15-0.22,0.22c-0.09,0.07-0.18,0.13-0.28,0.19
				c-0.37,0.16-0.72,0.21-1.03,0.13c-0.32-0.07-0.64-0.2-0.96-0.39l-8.29-4.75l-1.91,3.33l7.88,4.51
				C31.87,74.82,32.15,74.98,32.39,75.1"/>
			<path class="st3" d="M32.74,58.75c0.13,0.32,0.28,0.6,0.44,0.84c0.16,0.24,0.34,0.44,0.51,0.6c0.17,0.16,0.33,0.29,0.47,0.39
				c0.48,0.36,0.95,0.6,1.42,0.72c0.47,0.12,0.91,0.17,1.32,0.16c0.41-0.01,0.77-0.07,1.09-0.17c0.32-0.11,0.57-0.2,0.75-0.27
				c0.28-0.13,0.54-0.26,0.8-0.4c0.25-0.14,0.51-0.28,0.78-0.44l0.65-0.39c0.36-0.17,0.72-0.3,1.07-0.38
				c0.35-0.08,0.71,0.02,1.08,0.29c0.3,0.22,0.47,0.5,0.51,0.84c0.05,0.34-0.04,0.66-0.28,0.97c-0.11,0.15-0.22,0.25-0.32,0.32
				c-0.1,0.07-0.19,0.11-0.27,0.14c-0.34,0.15-0.66,0.15-0.96,0.01c-0.29-0.14-0.59-0.32-0.88-0.55l-2.21,2.93
				c0.38,0.27,0.74,0.5,1.05,0.69c0.32,0.19,0.67,0.34,1.04,0.46c0.29,0.09,0.63,0.15,1.04,0.17c0.4,0.02,0.84-0.03,1.3-0.16
				c0.46-0.13,0.93-0.35,1.42-0.66c0.49-0.32,0.96-0.78,1.41-1.38c0.1-0.14,0.22-0.3,0.35-0.5c0.13-0.2,0.25-0.42,0.37-0.68
				c0.12-0.26,0.22-0.56,0.3-0.89c0.08-0.34,0.13-0.72,0.13-1.14c0-0.57-0.06-1.07-0.2-1.5c-0.14-0.43-0.3-0.81-0.5-1.13
				c-0.2-0.32-0.41-0.58-0.64-0.8c-0.23-0.22-0.43-0.39-0.61-0.53c-0.19-0.15-0.48-0.32-0.85-0.52c-0.37-0.2-0.87-0.3-1.49-0.31
				c-0.22-0.01-0.42,0-0.59,0.04c-0.13,0.01-0.26,0.03-0.4,0.07c-0.27,0.05-0.62,0.16-1.04,0.34c-0.43,0.18-0.96,0.44-1.59,0.78
				c-0.25,0.15-0.47,0.27-0.66,0.37c-0.18,0.1-0.36,0.2-0.53,0.28c-0.32,0.13-0.61,0.21-0.88,0.21c-0.07,0-0.16-0.01-0.28-0.04
				c-0.12-0.02-0.24-0.08-0.36-0.18c-0.3-0.22-0.46-0.48-0.5-0.78c-0.04-0.3,0.04-0.59,0.26-0.87c0.16-0.21,0.36-0.36,0.61-0.45
				c0.24-0.08,0.49-0.08,0.73,0.02c0.07,0.02,0.15,0.05,0.22,0.1c0.07,0.05,0.19,0.13,0.35,0.25l2.15-2.84
				c-0.18-0.1-0.32-0.19-0.42-0.28c-0.1-0.09-0.23-0.17-0.37-0.24c-0.07-0.02-0.14-0.05-0.21-0.09c-0.07-0.04-0.14-0.07-0.21-0.09
				c-0.06-0.03-0.13-0.06-0.21-0.08c-0.07-0.02-0.15-0.05-0.24-0.07c-0.18-0.05-0.41-0.09-0.69-0.12c-0.28-0.04-0.59-0.04-0.93-0.02
				c-0.34,0.02-0.7,0.1-1.08,0.23c-0.38,0.13-0.77,0.33-1.17,0.6c-0.33,0.22-0.58,0.44-0.78,0.66c-0.19,0.22-0.34,0.4-0.44,0.53
				c-0.1,0.14-0.23,0.32-0.37,0.56c-0.14,0.24-0.28,0.52-0.41,0.86c-0.13,0.33-0.22,0.7-0.29,1.11c-0.07,0.41-0.08,0.85-0.02,1.32
				C32.52,58.06,32.61,58.43,32.74,58.75"/>
			<polygon class="st3" points="55.28,52.42 52.78,50.04 49.6,53.38 47.84,51.7 50.99,48.39 48.4,45.94 45.25,49.27 43.62,47.72 
				46.78,44.4 44.34,42.08 38.45,48.28 49.36,58.65 			"/>
			<path class="st3" d="M61.05,47.33l-3.47-4.81c-0.13-0.18-0.27-0.38-0.42-0.58c-0.15-0.2-0.32-0.43-0.51-0.68
				c-0.19-0.25-0.41-0.55-0.66-0.88c-0.25-0.33-0.54-0.72-0.87-1.16l2.53,1.94c0.32,0.26,0.64,0.5,0.94,0.72
				c0.3,0.23,0.62,0.45,0.95,0.67l4.08,2.92l2.27-1.63c-0.17-0.49-0.32-0.98-0.46-1.46c-0.14-0.48-0.28-0.94-0.42-1.41
				c-0.16-0.57-0.34-1.13-0.53-1.68c-0.19-0.56-0.37-1.12-0.53-1.68c-0.08-0.23-0.15-0.46-0.22-0.69c-0.07-0.24-0.16-0.5-0.26-0.8
				c-0.1-0.3-0.21-0.63-0.34-1c-0.13-0.37-0.27-0.82-0.43-1.33c0.3,0.45,0.57,0.83,0.78,1.16c0.22,0.33,0.41,0.61,0.59,0.87
				c0.17,0.25,0.33,0.47,0.47,0.66c0.14,0.19,0.27,0.38,0.41,0.56l3.56,4.93l2.94-2.12l-8.81-12.21l-4.15,3
				c0.14,0.46,0.27,0.88,0.39,1.27c0.12,0.39,0.25,0.77,0.38,1.15c0.17,0.56,0.35,1.11,0.52,1.65c0.17,0.54,0.35,1.09,0.54,1.64
				c0.19,0.55,0.38,1.11,0.58,1.7c0.2,0.58,0.45,1.28,0.73,2.09c-0.7-0.53-1.3-0.98-1.8-1.36c-0.5-0.38-0.99-0.74-1.47-1.09
				c-0.79-0.59-1.58-1.16-2.36-1.73c-0.78-0.56-1.6-1.15-2.44-1.75l-4.1,2.96l8.81,12.21L61.05,47.33z"/>
			<path class="st3" d="M69.76,35.24c0.13,0.24,0.26,0.44,0.37,0.61c0.11,0.18,0.22,0.33,0.33,0.48c0.11,0.14,0.23,0.28,0.36,0.4
				c0.25,0.27,0.57,0.54,0.96,0.79c0.39,0.26,0.85,0.45,1.38,0.57c0.53,0.12,1.12,0.15,1.77,0.09c0.65-0.06,1.37-0.29,2.16-0.69
				c0.83-0.41,1.43-0.85,1.81-1.29c0.38-0.45,0.66-0.85,0.85-1.21c0.22-0.41,0.37-0.8,0.46-1.17s0.13-0.71,0.15-1.02
				c0.01-0.31,0-0.58-0.04-0.83c-0.04-0.24-0.08-0.44-0.11-0.6c-0.09-0.43-0.24-0.86-0.44-1.3c-0.2-0.43-0.4-0.85-0.6-1.24
				l-3.83-7.64l-3.43,1.72l4.25,8.46l0.22,0.44c0.22,0.45,0.25,0.89,0.07,1.33c-0.17,0.45-0.49,0.78-0.95,1.01
				c-0.04,0.02-0.09,0.05-0.16,0.08c-0.07,0.03-0.15,0.07-0.23,0.09c-0.1,0.03-0.2,0.05-0.31,0.06c-0.11,0.01-0.22,0.01-0.33,0
				c-0.4-0.07-0.71-0.22-0.94-0.46c-0.22-0.24-0.42-0.52-0.58-0.85l-4.28-8.54l-3.43,1.72l4.07,8.12
				C69.47,34.73,69.62,35.01,69.76,35.24"/>
			<path class="st3" d="M79.23,24.14c0.2,0.56,0.46,1.02,0.79,1.38c0.33,0.36,0.67,0.65,1.01,0.86c0.35,0.22,0.68,0.37,1.01,0.46
				c0.32,0.09,0.58,0.15,0.78,0.19c0.3,0.04,0.6,0.08,0.89,0.11c0.29,0.03,0.58,0.05,0.89,0.06l0.76,0.03
				c0.4,0.06,0.76,0.15,1.1,0.28c0.34,0.13,0.58,0.41,0.73,0.84c0.12,0.35,0.11,0.68-0.04,0.99c-0.15,0.31-0.4,0.53-0.77,0.65
				c-0.17,0.06-0.32,0.09-0.44,0.09c-0.12,0-0.22-0.01-0.3-0.03c-0.37-0.07-0.64-0.24-0.8-0.52c-0.17-0.28-0.31-0.6-0.43-0.94
				l-3.46,1.21c0.17,0.44,0.33,0.82,0.5,1.16c0.16,0.34,0.36,0.66,0.61,0.96c0.19,0.24,0.44,0.47,0.77,0.71
				c0.33,0.24,0.71,0.44,1.17,0.58c0.45,0.15,0.97,0.23,1.55,0.24c0.58,0.01,1.23-0.11,1.94-0.36c0.16-0.06,0.35-0.13,0.57-0.22
				c0.22-0.09,0.45-0.21,0.69-0.36c0.24-0.15,0.49-0.34,0.75-0.58c0.26-0.23,0.5-0.53,0.74-0.88c0.32-0.47,0.54-0.93,0.66-1.36
				c0.13-0.44,0.19-0.84,0.21-1.21c0.01-0.37-0.02-0.71-0.09-1.02c-0.07-0.31-0.14-0.57-0.22-0.78c-0.08-0.23-0.22-0.53-0.42-0.9
				c-0.2-0.38-0.56-0.74-1.07-1.08c-0.18-0.13-0.35-0.23-0.51-0.3c-0.11-0.06-0.24-0.12-0.37-0.16c-0.25-0.11-0.6-0.21-1.05-0.3
				c-0.45-0.09-1.04-0.17-1.75-0.23c-0.29-0.02-0.54-0.04-0.75-0.05c-0.21-0.02-0.41-0.04-0.6-0.06c-0.34-0.06-0.62-0.17-0.85-0.31
				c-0.06-0.04-0.13-0.1-0.21-0.19c-0.08-0.08-0.15-0.2-0.2-0.35c-0.12-0.35-0.12-0.66,0.01-0.93c0.13-0.27,0.36-0.47,0.7-0.58
				c0.25-0.09,0.51-0.1,0.75-0.04c0.25,0.06,0.45,0.2,0.6,0.42c0.05,0.06,0.09,0.13,0.13,0.2c0.03,0.08,0.09,0.21,0.15,0.4
				l3.36-1.18c-0.09-0.18-0.16-0.33-0.2-0.46c-0.04-0.13-0.1-0.26-0.18-0.4c-0.05-0.06-0.09-0.12-0.12-0.19
				c-0.03-0.07-0.07-0.14-0.12-0.19c-0.04-0.06-0.08-0.12-0.13-0.18c-0.05-0.06-0.1-0.12-0.16-0.19c-0.12-0.14-0.29-0.3-0.51-0.49
				c-0.22-0.19-0.47-0.37-0.76-0.53c-0.29-0.17-0.63-0.3-1.02-0.41c-0.39-0.1-0.83-0.15-1.31-0.15c-0.39,0-0.73,0.04-1.01,0.12
				c-0.28,0.08-0.5,0.14-0.66,0.2c-0.16,0.06-0.37,0.14-0.62,0.26c-0.25,0.12-0.52,0.28-0.81,0.49c-0.29,0.21-0.58,0.46-0.86,0.77
				c-0.29,0.3-0.54,0.67-0.75,1.09c-0.2,0.38-0.33,0.75-0.4,1.09c-0.07,0.34-0.1,0.66-0.1,0.95c0,0.29,0.04,0.55,0.09,0.78
				C79.12,23.78,79.17,23.98,79.23,24.14"/>
			
				<rect x="91.27" y="15.67" transform="matrix(0.9695 -0.245 0.245 0.9695 -2.844 23.5384)" class="st3" width="3.84" height="15.05"/>
			<path class="st3" d="M96.78,23.67c0.14,0.43,0.3,0.81,0.48,1.14c0.18,0.33,0.36,0.62,0.54,0.86c0.18,0.24,0.35,0.44,0.5,0.59
				c0.22,0.26,0.53,0.56,0.94,0.9c0.4,0.34,0.9,0.66,1.48,0.94c0.58,0.29,1.26,0.51,2.02,0.67c0.77,0.16,1.62,0.17,2.57,0.05
				c0.44-0.06,0.81-0.14,1.13-0.24c0.32-0.1,0.55-0.17,0.7-0.22c0.26-0.09,0.58-0.25,0.97-0.46c0.39-0.22,0.79-0.51,1.2-0.87
				c0.41-0.36,0.81-0.8,1.2-1.32c0.39-0.52,0.72-1.13,1-1.84c0.09-0.21,0.16-0.45,0.23-0.72c0.07-0.27,0.16-0.67,0.27-1.22
				l-4.14,0.55l-0.22,0.46c-0.02,0.05-0.05,0.1-0.08,0.15s-0.06,0.1-0.1,0.15c-0.24,0.39-0.51,0.7-0.81,0.93
				c-0.31,0.23-0.52,0.36-0.65,0.41c-0.12,0.06-0.28,0.13-0.49,0.2c-0.21,0.08-0.46,0.14-0.77,0.18c-0.58,0.08-1.09,0.05-1.55-0.07
				c-0.45-0.13-0.85-0.3-1.18-0.52c-0.33-0.22-0.6-0.46-0.8-0.71c-0.21-0.25-0.35-0.46-0.45-0.62c-0.07-0.12-0.16-0.29-0.26-0.52
				c-0.1-0.23-0.18-0.53-0.23-0.89c-0.12-0.79-0.01-1.53,0.34-2.23c0.34-0.7,0.85-1.26,1.53-1.68c0.13-0.09,0.33-0.19,0.58-0.29
				c0.26-0.11,0.58-0.19,0.98-0.24c0.61-0.08,1.18-0.03,1.73,0.15c0.55,0.18,1.04,0.49,1.47,0.93c0.05,0.07,0.11,0.14,0.18,0.22
				c0.07,0.08,0.14,0.18,0.23,0.28l4.17-0.55c-0.04-0.11-0.09-0.22-0.15-0.32c-0.06-0.11-0.12-0.22-0.17-0.34
				c-0.19-0.36-0.39-0.71-0.61-1.04c-0.25-0.35-0.55-0.71-0.92-1.06c-0.36-0.35-0.8-0.69-1.32-1.01c-0.55-0.33-1.08-0.58-1.59-0.76
				c-0.52-0.18-1-0.29-1.45-0.36c-0.45-0.06-0.85-0.09-1.21-0.08c-0.36,0.01-0.67,0.03-0.91,0.07c-0.49,0.07-0.94,0.16-1.33,0.28
				c-0.39,0.12-0.74,0.26-1.05,0.41c-0.31,0.15-0.58,0.3-0.81,0.44c-0.23,0.15-0.42,0.28-0.56,0.4c-0.27,0.22-0.61,0.54-1,0.95
				c-0.4,0.41-0.76,0.93-1.1,1.54c-0.33,0.62-0.59,1.33-0.78,2.15c-0.19,0.81-0.21,1.73-0.08,2.74
				C96.54,22.76,96.64,23.24,96.78,23.67"/>
			<path class="st3" d="M120.31,25.7l5.04,0.33l0.61,2.15l4.43,0.28l-5.11-15.5l-3.13-0.2l-7,14.72l4.32,0.28L120.31,25.7z
				 M123.28,18.07l1.27,4.76l-3.06-0.2L123.28,18.07z"/>
			<polygon class="st3" points="139.46,26.9 135.03,26.01 137.31,14.72 133.5,13.95 130.53,28.71 138.76,30.37 			"/>
			<polygon class="st3" points="148.74,29.74 144.42,28.39 147.87,17.4 144.17,16.24 139.66,30.6 147.68,33.12 			"/>
			<polygon class="st3" points="161,35.26 156.93,33.29 161.94,22.92 158.45,21.23 151.9,34.79 159.46,38.44 			"/>
			
				<rect x="158.32" y="31.6" transform="matrix(0.5067 -0.8621 0.8621 0.5067 52.9178 159.5249)" class="st3" width="15.05" height="3.84"/>
			<polygon class="st3" points="167.8,43.7 171.1,39.01 175.09,41.83 177.12,38.95 173.13,36.14 174.5,34.18 178.51,37.01 
				180.48,34.22 173.35,29.2 164.68,41.5 			"/>
			<polygon class="st3" points="178.96,52.75 181.24,50.15 177.78,47.12 179.38,45.29 182.81,48.3 185.16,45.62 181.71,42.6 
				183.19,40.92 186.64,43.94 188.86,41.41 182.43,35.77 172.5,47.08 			"/>
			<polygon class="st3" points="187.59,62.4 190.29,60.11 187.36,56.66 196.13,49.2 193.61,46.25 182.15,56 			"/>
			<path class="st3" d="M194.59,57.27c-0.33,0.17-0.59,0.32-0.78,0.44c-0.86,0.56-1.59,1.27-2.18,2.14c-0.6,0.87-1,1.81-1.21,2.81
				c-0.21,1-0.22,2.02-0.03,3.06c0.19,1.04,0.57,1.99,1.12,2.84c0.63,0.97,1.43,1.76,2.41,2.39c0.98,0.63,2.04,1,3.18,1.12
				c0.64,0.07,1.24,0.08,1.8,0.01c0.56-0.07,1.06-0.17,1.51-0.3c0.45-0.14,0.83-0.29,1.16-0.46c0.33-0.17,0.59-0.32,0.78-0.44
				c0.97-0.63,1.76-1.43,2.38-2.41c0.62-0.98,1-2.03,1.15-3.16c0.03-0.22,0.04-0.52,0.05-0.9c0.01-0.38-0.02-0.8-0.09-1.27
				c-0.07-0.47-0.19-0.98-0.37-1.51c-0.18-0.54-0.44-1.07-0.79-1.61c-0.61-0.94-1.41-1.72-2.39-2.35c-0.98-0.63-2.04-1.01-3.17-1.16
				c-0.65-0.09-1.25-0.1-1.81-0.03c-0.56,0.07-1.07,0.17-1.52,0.32C195.32,56.94,194.92,57.1,194.59,57.27 M197.41,60.65
				c0.49-0.09,0.98-0.08,1.46,0.03c0.65,0.17,1.17,0.43,1.55,0.78c0.38,0.35,0.63,0.62,0.77,0.83c0.42,0.64,0.62,1.35,0.6,2.13
				c-0.02,0.78-0.26,1.47-0.7,2.09c-0.28,0.37-0.61,0.68-0.98,0.92c-0.27,0.18-0.55,0.31-0.82,0.4c-0.27,0.09-0.52,0.15-0.76,0.18
				c-0.24,0.03-0.45,0.03-0.64,0.02c-0.19-0.01-0.34-0.03-0.46-0.06c-0.12-0.03-0.28-0.07-0.48-0.13c-0.2-0.06-0.42-0.15-0.64-0.27
				c-0.23-0.12-0.46-0.27-0.69-0.48c-0.23-0.2-0.45-0.46-0.64-0.75c-0.26-0.41-0.44-0.85-0.53-1.35c-0.09-0.49-0.09-0.97,0.01-1.45
				c0.07-0.34,0.18-0.64,0.32-0.9c0.14-0.27,0.29-0.5,0.45-0.68c0.16-0.19,0.31-0.34,0.47-0.47c0.15-0.13,0.28-0.22,0.38-0.28
				C196.47,60.92,196.92,60.74,197.41,60.65"/>
			<path class="st3" d="M197.57,78.77l7.54-3.3l-5.27,8.48l1.35,3.09l13.79-6.04l-1.52-3.48l-7.6,3.33l1.77-2.71
				c0.63-0.97,1.23-1.94,1.8-2.88c0.57-0.95,1.16-1.92,1.76-2.91l-1.34-3.07l-13.79,6.04L197.57,78.77z"/>
			<path class="st3" d="M213.07,85.53c-0.58-0.2-1.24-0.32-1.97-0.38c-0.73-0.06-1.53,0.03-2.4,0.25c-0.81,0.21-1.52,0.5-2.11,0.87
				c-0.6,0.37-1.1,0.77-1.51,1.19c-0.41,0.42-0.75,0.84-1,1.26c-0.25,0.42-0.44,0.76-0.56,1.04c-0.25,0.56-0.43,1.1-0.53,1.61
				c-0.1,0.51-0.15,0.98-0.17,1.42c-0.01,0.44,0.01,0.83,0.06,1.17c0.05,0.35,0.11,0.64,0.17,0.87c0.3,1.17,0.83,2.21,1.59,3.13
				c0.76,0.91,1.69,1.63,2.79,2.14c0.51,0.24,1.01,0.4,1.48,0.5c0.47,0.1,0.95,0.15,1.44,0.16c0.49,0.01,0.99-0.02,1.5-0.08
				c0.51-0.06,1.05-0.16,1.63-0.27l-2.19-8.6l-3.1,0.79l1.03,4.03c-0.22-0.06-0.38-0.11-0.47-0.15c-0.09-0.04-0.18-0.08-0.26-0.13
				c-0.1-0.06-0.24-0.16-0.4-0.28c-0.16-0.13-0.33-0.29-0.49-0.48c-0.16-0.19-0.31-0.43-0.46-0.7c-0.15-0.27-0.27-0.58-0.36-0.92
				c-0.1-0.4-0.14-0.78-0.11-1.14c0.03-0.36,0.08-0.69,0.17-0.98c0.09-0.29,0.19-0.55,0.31-0.77c0.12-0.22,0.22-0.39,0.31-0.5
				c0.38-0.51,0.77-0.86,1.17-1.06c0.4-0.2,0.73-0.33,0.99-0.39c0.38-0.1,0.78-0.14,1.18-0.12c0.4,0.02,0.78,0.09,1.14,0.21
				c0.36,0.13,0.7,0.3,1.01,0.52c0.31,0.22,0.59,0.49,0.83,0.81c0.24,0.31,0.4,0.59,0.5,0.84c0.09,0.25,0.16,0.46,0.2,0.61
				c0.11,0.44,0.16,0.9,0.13,1.37c-0.03,0.48-0.15,0.93-0.38,1.35l-0.12,0.21L214.02,95l-0.05,0.08l-0.19,0.22l1.07,4.22
				c0.25-0.18,0.45-0.33,0.62-0.46c0.17-0.12,0.31-0.24,0.43-0.34c0.12-0.1,0.23-0.2,0.32-0.3c0.09-0.1,0.19-0.2,0.29-0.32
				c0.21-0.25,0.46-0.58,0.75-1.02c0.28-0.43,0.53-0.95,0.74-1.55c0.21-0.6,0.35-1.28,0.41-2.04c0.06-0.76-0.02-1.58-0.25-2.48
				c-0.42-1.65-1.28-3.01-2.59-4.07c-0.25-0.2-0.59-0.44-1.01-0.71C214.15,85.96,213.65,85.73,213.07,85.53"/>
			<path class="st3" d="M214.66,113.38c-1.96,0-3.54,1.59-3.54,3.54c0,1.96,1.59,3.54,3.54,3.54c1.96,0,3.54-1.59,3.54-3.54
				C218.21,114.96,216.62,113.38,214.66,113.38"/>
		</g>
	</g>
</g>
</svg>
