<?xml version="1.0" encoding="utf-8"?>
<!-- Generator: Adobe Illustrator 23.0.1, SVG Export Plug-In . SVG Version: 6.00 Build 0)  -->
<svg version="1.1" id="Layer_1" xmlns="http://www.w3.org/2000/svg" xmlns:xlink="http://www.w3.org/1999/xlink" x="0px" y="0px"
	 viewBox="0 0 3840.19 613.14" style="enable-background:new 0 0 3840.19 613.14;" xml:space="preserve">
<style type="text/css">
	.st0{fill-rule:evenodd;clip-rule:evenodd;fill:#FFFFFF;}
</style>
<path class="st0" d="M947.35,307.3c0,163.32-133.68,295.71-296.99,295.71l-7.79,0.01V448.78l13.77-0.03
	c75.73,0,137.12-63.09,137.12-141.63c0-78.54-61.39-141.74-137.12-142.21l-13.77-0.11V11.59l9.07,0
	C814.96,11.58,947.35,143.98,947.35,307.3z M0,0v613.14h613.14V0H0L0,0z M1282.62,28.28H964.43v560.19h319.78V460.73h-171.4v-92.04
	h169.81V236.96h-170.6v-84.11h170.6V28.28z M1637.19,28.28h-324.53v560.19h142.04V375.02h181.71V244.1h-181.71v-89.65h182.5V28.28z
	 M1985.94,28.28h-318.19v560.19h319.78V460.73h-171.38v-92.04h169.8V236.96h-170.6v-84.11h170.6V28.28z M2577.01,237.76
	c-9.54-32.52-29.37-98.4-98.41-154.74c-73.78-60.31-148.38-66.67-184.87-66.67c-71.42,0-123,24.6-146.01,38.11
	c-45.22,26.98-145.19,105.51-145.19,257.88c0,80.15,30.15,131.71,48.39,157.91c28.57,41.26,103.94,128.54,245.99,128.54
	c32.52,0,57.93-4.77,69.81-7.94c39.7-9.53,129.34-44.46,183.3-144.41c8.72-16.65,15.87-32.52,27.78-69.03h-155.53
	c-8.72,14.26-11.9,19.04-17.45,26.17c-21.44,25.41-52.36,39.67-61.12,42.86c-9.51,3.17-25.38,7.92-48.39,7.92
	c-86.49,0-126.16-65.05-137.27-91.24c-3.95-9.52-10.32-27.77-11.12-54.74c0-58.73,33.34-111.88,88.1-134.9
	c10.3-4.75,30.93-12.69,60.28-12.69c45.22,0,85.7,19.83,112.69,55.54c4.76,7.14,9.52,13.49,13.49,21.44H2577.01z M2917.7,28.28
	h-363.4v125.37h109.49v434.82h142.03V154.44h111.88V28.28z M3265.97,28.28h-318.2v560.19h319.76V460.73h-171.36v-92.04h169.81
	V236.96h-170.61v-84.11h170.61V28.28z M3629.16,307.34c0-85.09-66.51-146.79-148.56-147.29l-33.16-0.31v295.31l33.16-0.07
	C3562.65,454.98,3629.16,392.43,3629.16,307.34z M3499.54,28.39l-199.73,0.06v560.02l198.52-0.06
	c154.64,0,281.22-125.37,281.22-280.01C3779.55,153.76,3654.19,28.39,3499.54,28.39z M3733.16,41.15v47.81h16.17V41.23h17.69V27.71
	h-51.63v13.44H3733.16z M3825.05,88.96h15.14V27.71h-22.46l-9.53,35.98c-0.34,1.45-0.68,3.15-1.02,5.87
	c-0.26,2.13-0.34,4.34-0.34,6.46c0-0.94-0.08-1.96-0.17-2.98c-0.18-4-0.68-7.15-1.28-9.36l-9.52-35.98h-22.46v61.25h14.41
	c0,0,0.31-44.32,0.14-45.43l0,0l0.6,2.64l0,0l11.73,42.79h13.02l11.74-42.79l0,0l0,0V88.96z"/>
</svg>
