<?xml version="1.0" encoding="utf-8"?>
<!-- Generator: Adobe Illustrator 23.0.1, SVG Export Plug-In . SVG Version: 6.00 Build 0)  -->
<svg version="1.1" id="Layer_1" xmlns="http://www.w3.org/2000/svg" xmlns:xlink="http://www.w3.org/1999/xlink" x="0px" y="0px"
	 viewBox="0 0 2194.14 614.93" style="enable-background:new 0 0 2194.14 614.93;" xml:space="preserve">
<style type="text/css">
	.st0{fill:#FFFFFF;}
</style>
<g>
	<path class="st0" d="M156.44,158.93v78.22H339.5v147.28H156.44v218.84H0V15.81h340.33v143.12H156.44z"/>
	<path class="st0" d="M677.49,574.15c-13.29,9.99-26.16,17.76-38.62,23.3c-12.45,5.55-24.08,9.57-34.87,12.06
		c-10.79,2.5-20.76,4.02-29.89,4.58c-9.14,0.55-17.03,0.83-23.66,0.83c-28.8,0-53.85-3.89-75.16-11.65s-39.43-17.48-54.39-29.12
		s-26.85-24.13-35.7-37.45c-8.87-13.31-15.22-25.51-19.1-36.61c-5.54-15.53-9.01-31.21-10.39-47.02s-2.35-33.41-2.9-52.84h151.44
		c0,16.1,1.1,30.24,3.33,42.44c2.21,12.21,8.87,21.36,19.97,27.46c1.66,1.12,4.43,2.37,8.32,3.75c3.87,1.39,8.87,2.08,14.98,2.08
		c12.76,0,23.01-3.87,30.79-11.65c7.76-7.76,11.65-17.75,11.65-29.96c0-16.08-4.86-28.15-14.56-36.19
		c-9.71-8.03-20.67-15.11-32.87-21.22l-26.63-10.82c-10.54-4.43-20.8-8.87-30.79-13.31c-9.99-4.43-20.26-9.7-30.79-15.81
		c-6.66-3.33-15.26-8.87-25.79-16.64c-10.54-7.76-20.95-18.02-31.2-30.79c-10.27-12.76-19.14-28.01-26.63-45.77
		c-7.49-17.74-11.23-38.55-11.23-62.4c0-6.66,0.42-14.69,1.25-24.13c0.83-9.43,3.04-19.55,6.64-30.37
		c3.59-10.82,8.86-22.18,15.77-34.12c6.92-11.92,16.46-23.71,28.64-35.36c13.29-13.31,27.12-23.72,41.51-31.2
		c14.39-7.49,28.23-13.17,41.52-17.06c13.28-3.87,25.33-6.37,36.12-7.49C545.04,0.56,553.76,0,560.4,0c6.08,0,14.81,0.42,26.16,1.25
		c11.34,0.83,24.5,3.75,39.45,8.74c17.71,6.11,33.06,13.73,46.08,22.88c13,9.15,23.81,18.87,32.39,29.12
		c8.58,10.27,15.63,20.26,21.17,29.96c5.54,9.71,9.69,17.89,12.46,24.55s4.85,12.77,6.22,18.31c1.38,5.55,2.63,11.38,3.75,17.48
		c1.09,6.11,1.65,12.21,1.65,18.3c0,6.11,0.55,14.43,1.66,24.97H603.27c0-9.99-0.14-16.77-0.42-20.39c-0.27-3.6-0.96-6.78-2.06-9.57
		c-2.2-7.76-6.59-14-13.17-18.72c-6.59-4.71-14.28-7.07-23.05-7.07c-11.52,0-20.71,3.47-27.57,10.4
		c-6.87,6.94-10.29,16.23-10.29,27.88c0,5.55,0.82,9.99,2.49,13.31c1.66,3.33,3.04,5.82,4.15,7.49
		c5.53,7.77,13.82,14.43,24.87,19.97c6.08,3.33,12.85,6.53,20.31,9.57c7.46,3.06,15.88,6.8,25.29,11.24
		c24.87,11.1,44.91,21.36,60.1,30.79c15.2,9.44,26.95,17.76,35.25,24.96c2.76,2.78,6.47,6.38,11.18,10.82
		c4.69,4.45,9.8,10.54,15.34,18.31c14.37,19.97,22.79,38.28,25.29,54.92c2.48,16.64,3.73,29.68,3.73,39.11
		c0,8.88-0.7,19.43-2.08,31.62c-1.38,12.21-4.71,25.25-9.96,39.11c-5.27,13.87-13.02,28.16-23.26,42.85
		C709.17,546.84,695.19,560.84,677.49,574.15z"/>
	<path class="st0" d="M1027.64,158.93v444.34H870.37V158.1H759.7V15.81h381.1v143.12H1027.64z"/>
	<path class="st0" d="M1555.18,603.28H1384.6L1149.95,15.81h173.91L1457,364.46l17.48,48.26c4.43-13.86,9.01-27.46,13.73-40.77
		c4.71-13.31,9.57-26.63,14.56-39.94c9.43-27.17,19.27-54.09,29.54-80.71c10.26-26.63,20.39-53.26,30.37-79.88
		c9.43-24.97,18.85-50.06,28.29-75.31c9.43-25.23,19.14-52,29.12-80.3h163.93L1555.18,603.28z"/>
	<path class="st0" d="M1793.16,603.28V15.81h158.93v439.35h168.92v148.11h-327.85V603.28z"/>
</g>
</svg>
