<?xml version="1.0" encoding="utf-8"?>
<!-- Generator: Adobe Illustrator 23.0.0, SVG Export Plug-In . SVG Version: 6.00 Build 0)  -->
<svg version="1.1" id="Layer_1" xmlns="http://www.w3.org/2000/svg" xmlns:xlink="http://www.w3.org/1999/xlink" x="0px" y="0px"
	 viewBox="0 0 1502 397.7" style="enable-background:new 0 0 1502 397.7;" xml:space="preserve">
<style type="text/css">
	.st0{fill:#6AF099;}
	.st1{fill-rule:evenodd;clip-rule:evenodd;fill:#FFFFFF;}
	.st2{fill:#FFFFFF;}
</style>
<g>
	<path class="st0" d="M439.1,394.5V280h-16.2v-27.1h51.7v141.6H439.1z"/>
	<path class="st0" d="M531.8,397.7c-1.5,0-3.3-0.1-5.4-0.3c-2.1-0.2-4.5-0.6-7.2-1.2c-2.7-0.6-5.5-1.5-8.5-2.8c-3-1.3-6-3-8.9-5.1
		c-2-1.5-4.3-3.4-7-5.9c-2.7-2.5-5.2-5.5-7.6-9.2c-2.4-3.7-4.4-8-6-13c-1.6-5-2.4-10.8-2.4-17.3c0-4.3,0.4-8.2,1.1-11.8
		c0.7-3.6,1.7-7.1,3-10.4c1.3-3.3,2.8-6.6,4.6-9.7c1.8-3.1,3.8-6.4,6.1-9.9l30.3-47.9h44.1L535.2,296c4.3-0.1,7.7-0.1,10.3,0.1
		c2.6,0.2,5,0.6,7.3,1.3c4.9,1.5,9.4,3.8,13.4,6.9c4,3.1,7.4,6.9,10.2,11.1c2.8,4.3,4.9,8.9,6.4,13.9c1.5,5,2.2,10.1,2.2,15.1
		c0,7.4-1.4,14.2-4.3,20.7c-2.9,6.4-6.7,12-11.5,16.8c-4.8,4.8-10.5,8.6-16.9,11.4C545.9,396.3,539,397.7,531.8,397.7z M531.8,325.9
		c-5.3,0-9.8,1.8-13.2,5.4c-3.5,3.6-5.2,8-5.2,13.2c0,1.2,0.3,3,0.8,5.5c0.5,2.5,2.1,4.9,4.8,7.3c0.9,0.9,2.5,2.1,4.6,3.4
		c2.1,1.3,4.9,2,8.4,2c2.5,0,4.9-0.5,7.2-1.4c2.3-0.9,4.2-2.2,5.9-3.9c1.7-1.7,3-3.6,3.9-5.9c0.9-2.3,1.4-4.7,1.4-7.2
		c0-2.7-0.5-5.1-1.5-7.4c-1-2.3-2.3-4.2-4-5.8c-1.7-1.6-3.6-2.9-5.9-3.8C536.7,326.4,534.3,325.9,531.8,325.9z"/>
	<path class="st0" d="M589.1,394.5V361h33.1v33.5H589.1z"/>
	<path class="st0" d="M756,372.6c-7,8-15.3,14.2-25.2,18.5c-9.8,4.3-20,6.5-30.6,6.5c-9.6,0-19-1.9-28.2-5.7
		c-9.2-3.8-17.1-9.1-24-15.9c-6.8-6.8-12.1-14.8-15.9-24c-3.8-9.2-5.7-18.6-5.7-28.4c0-9.2,1.7-18.1,5-26.6c3.3-8.5,8-16.1,14-23
		c7-7.8,15.2-13.8,24.9-18c9.6-4.3,19.7-6.4,30.1-6.4c2.1,0,5,0.2,8.5,0.5c3.5,0.3,7.5,1.1,11.7,2.4c4.3,1.3,8.8,3.1,13.6,5.4
		c4.8,2.3,9.6,5.5,14.2,9.5c8.2,7,14.5,15.4,19.1,25.3c4.5,9.9,6.8,20.3,6.8,31.1c0,8.8-1.6,17.4-4.7,25.9
		C766.6,358.2,762,365.8,756,372.6z M730.9,298.6c-2.7-3.2-5.5-5.7-8.4-7.6c-2.9-1.9-5.8-3.3-8.6-4.3c-2.8-1-5.4-1.6-7.8-1.9
		c-2.4-0.3-4.3-0.4-5.6-0.4c-5.6,0-11,1.2-16.2,3.6c-7,3.1-12.6,7.9-16.8,14.3c-4.3,6.5-6.4,13.7-6.4,21.6c0,1.2,0.1,2.9,0.3,5
		c0.2,2.1,0.7,4.4,1.5,6.9c0.8,2.5,2,5.1,3.5,7.9c1.5,2.8,3.6,5.5,6.3,8.2c3.9,3.7,8.2,6.6,13,8.5c4.8,1.9,9.8,2.9,14.8,2.9
		c1.2,0,2.7-0.1,4.5-0.3c1.8-0.2,3.8-0.6,6.1-1.2c2.3-0.6,4.7-1.5,7.2-2.8c2.5-1.3,5-2.9,7.4-4.9c3.2-2.5,5.7-5.3,7.6-8.3
		c1.9-3,3.3-5.9,4.3-8.7c1-2.8,1.6-5.4,1.9-7.7c0.3-2.3,0.4-4.2,0.4-5.7C740,314.2,737,305.8,730.9,298.6z"/>
	<path class="st0" d="M779.9,394.5V368c4.8-4.4,9.4-8.7,13.8-12.7c4.4-4.1,8.8-8.2,13-12.3l11.4-11c3.9-3.7,7.2-7.2,9.9-10.3
		c2.7-3.1,5-6.1,6.8-8.8c1.8-2.7,3.1-5.4,4-8.1c0.9-2.7,1.3-5.4,1.3-8.2c0-0.8,0-1.5-0.1-2.1c-0.1-0.6-0.2-1.2-0.3-1.7
		c-0.1-0.4-0.2-0.8-0.3-1.1c-0.1-0.3-0.2-0.8-0.3-1.3c-0.9-2.5-2.4-4.6-4.5-6.2c-2.1-1.6-4.5-2.4-7.3-2.4c-2.4,0-4.5,0.7-6.4,2
		c-2.7,1.9-4.5,4.2-5.4,7.1c-0.9,2.9-1.5,5.9-1.6,8.9c-0.1,0.8-0.2,1.6-0.2,2.5c0,0.9,0,1.9,0,3.1l-35.3-0.2v-6
		c0-1.3,0.1-2.7,0.3-4.2c0.2-1.5,0.4-3,0.7-4.6c0.7-3.3,1.7-6.8,3.1-10.4c1.4-3.6,3.5-7.2,6.3-10.6c1.6-2,3.6-4.1,5.9-6.3
		c2.3-2.2,5.2-4.2,8.6-6.1c3.4-1.9,7.4-3.4,11.8-4.6c4.5-1.2,9.7-1.8,15.7-1.8c1.2,0,2.8,0.1,4.9,0.2c2.1,0.1,4.4,0.4,7,0.9
		c2.6,0.5,5.4,1.2,8.3,2.3c2.9,1.1,5.9,2.5,9,4.4c1.5,1.2,3.2,2.7,5.3,4.6c2.1,1.9,4.1,4.2,6,7.1c1.9,2.9,3.6,6.2,4.9,10
		c1.3,3.8,2,8.2,2,13.1v2.8c0,0.5,0,1.1-0.1,1.6c-0.1,0.5-0.2,1.1-0.3,1.8c-0.3,1.5-0.5,3-0.8,4.5c-0.3,1.5-0.7,3.2-1.4,4.9
		c-1.2,3.2-2.8,6.4-4.7,9.4c-1.9,3.1-4,6.1-6.3,9c-2.3,2.9-4.6,5.8-7.1,8.5c-2.5,2.7-4.9,5.4-7.3,7.9l-17.2,17.9H880v33.1H779.9z"/>
	<path class="st0" d="M886,394.5V361h33.1v33.5H886z"/>
	<path class="st0" d="M939.5,394.5V280h-16.2v-27.1H975v141.6H939.5z"/>
	<path class="st0" d="M1062.6,388.9c-2.7,1.9-6.7,3.8-11.9,5.8c-5.3,2-12,3-20.2,3c-1.9,0-4.7-0.2-8.4-0.5
		c-3.7-0.3-7.9-1.3-12.4-2.9c-4.4-1.6-8.5-3.8-12.2-6.5c-3.7-2.7-7-5.9-9.7-9.6c-2.7-3.7-4.9-7.7-6.4-12c-1.5-4.3-2.3-8.9-2.3-13.7
		c0-4.5,0.6-8.6,1.9-12.1c1.3-3.5,2.8-6.6,4.5-9.2c1.7-2.6,3.5-4.8,5.4-6.5c1.9-1.7,3.4-3,4.6-3.8l5-3.2c-2.4-1.9-4.3-3.4-5.7-4.7
		c-1.4-1.3-2.6-2.5-3.5-3.7c-1.5-2-2.7-4.4-3.6-7.3c-0.9-2.9-1.4-6.5-1.4-10.7c0-4.3,0.5-7.8,1.4-10.4c0.9-2.7,1.8-4.7,2.6-6.2
		c1.2-2.1,2.8-4.6,4.9-7.4c2.1-2.8,4.8-5.4,8.2-7.8c3.4-2.4,7.5-4.4,12.2-6.1c4.7-1.7,10.3-2.5,16.7-2.5c1.2,0,2.7,0.1,4.6,0.2
		c1.9,0.1,4,0.4,6.3,0.9c2.3,0.5,4.8,1.2,7.5,2.3c2.7,1.1,5.3,2.5,8,4.4c4.7,3.5,8.6,7.9,11.7,13.1c3.1,5.3,4.7,11,4.7,17.1
		c0,5.6-0.9,10.3-2.7,14.1c-1.8,3.8-3.4,6.5-4.7,7.9c-0.7,0.9-1.5,1.8-2.4,2.6c-0.9,0.8-2.3,1.9-4.2,3.4c1.9,1.1,3.2,1.8,3.9,2.2
		c0.7,0.4,1.3,0.8,1.7,1.2c0.4,0.3,0.8,0.6,1.2,0.9c0.4,0.3,0.9,0.7,1.4,1.1c3.1,2.4,5.5,5.1,7.3,8.1c1.8,3,3.2,5.9,4.1,8.7
		c0.9,2.8,1.5,5.4,1.8,7.7c0.3,2.3,0.4,4.2,0.4,5.5c0,5.2-0.8,9.9-2.5,13.9c-1.7,4.1-3.6,7.7-5.8,10.7c-2.2,3.1-4.4,5.6-6.7,7.6
		C1065.7,386.5,1063.9,387.9,1062.6,388.9z M1031,333.3c-2.4,0-4.6,0.4-6.6,1.3c-2,0.9-3.8,2.1-5.3,3.6c-1.5,1.5-2.7,3.3-3.6,5.3
		c-0.9,2-1.3,4.1-1.3,6.4c0.3,1.1,0.4,2,0.5,2.8c0.1,0.8,0.2,1.5,0.5,2c0.7,2.7,2.1,5,4.2,7c2.1,2.1,4.3,3.5,6.5,4
		c2.2,0.5,3.9,0.8,5.1,0.8c4.7,0,8.6-1.6,11.8-4.9c3.2-3.3,4.8-7.2,4.8-11.7c0-2.4-0.4-4.6-1.3-6.6c-0.9-2-2.1-3.7-3.6-5.2
		c-1.5-1.5-3.3-2.6-5.3-3.5C1035.4,333.8,1033.2,333.3,1031,333.3z M1030.8,280.2c-3.7,0-6.8,1.3-9.2,3.8c-2.4,2.5-3.6,5.6-3.6,9.2
		c0,0.8,0.2,2,0.5,3.7c0.3,1.7,1.4,3.4,3.3,5.1c1.9,1.9,3.6,3,5.3,3.3c1.7,0.3,2.9,0.5,3.7,0.5c3.7,0,6.8-1.2,9.2-3.7
		c2.4-2.5,3.6-5.5,3.6-9.1c0-3.7-1.2-6.8-3.6-9.2S1034.5,280.2,1030.8,280.2z"/>
</g>
<g>
	<path id="XMLID_90_" class="st1" d="M355.3,115.3c0,61.3-50.1,110.9-111.4,110.9H241v-57.9l5.2,0c28.4,0,51.4-23.7,51.4-53.1
		c0-29.5-23-53.2-51.4-53.3l-5.2,0V4.3l3.4,0C305.7,4.3,355.3,54,355.3,115.3z"/>
	<g id="XMLID_88_">
		<polygon id="XMLID_89_" class="st2" points="0,0 230,0 230,230 0,230 0,0 		"/>
	</g>
	<path id="XMLID_86_" class="st2" d="M636.1,57.9h-68.5v33.6h68.2v49.1h-68.2v80.1h-53.3V10.6h121.7V57.9z"/>
	<path id="XMLID_84_" class="st2" d="M949.6,89.2c-1.5-3-3.3-5.4-5.1-8c-10.1-13.4-25.3-20.8-42.3-20.8c-11,0-18.7,3-22.6,4.8
		c-20.5,8.6-33,28.6-33,50.6c0.3,10.1,2.7,17,4.2,20.5c4.2,9.8,19,34.2,51.5,34.2c8.6,0,14.6-1.8,18.2-3c3.3-1.2,14.9-6.5,22.9-16.1
		c2.1-2.7,3.3-4.5,6.5-9.8h58.3c-4.5,13.7-7.1,19.6-10.4,25.9c-20.2,37.5-53.9,50.6-68.8,54.2c-4.5,1.2-14,3-26.2,3
		c-53.3,0-81.5-32.7-92.3-48.2c-6.8-9.8-18.2-29.2-18.2-59.2c0-57.1,37.5-86.6,54.5-96.7c8.6-5.1,28-14.3,54.8-14.3
		c13.7,0,41.7,2.4,69.3,25c25.9,21.1,33.3,45.8,36.9,58H949.6z"/>
	<path id="XMLID_82_" class="st2" d="M1138.1,57.9h-42v162.8h-53.3V57.6h-41.1v-47h136.3V57.9z"/>
	<path id="XMLID_79_" class="st1" d="M1422.8,115.3c0-31.9-25-55.1-55.7-55.2l-12.4-0.1v110.8l12.4,0
		C1397.9,170.7,1422.8,147.2,1422.8,115.3z M1479.2,115.7c0,58-47.5,105-105.5,105l-74.5,0V10.7l74.9,0
		C1432.2,10.6,1479.2,57.7,1479.2,115.7z"/>
	<g id="XMLID_35_">
		<path id="XMLID_77_" class="st2" d="M1455.2,15.4v-5h19.4v5.1h-6.6v17.9h-6.1V15.4H1455.2z"/>
		<path id="XMLID_75_" class="st2" d="M1496.3,17.3L1496.3,17.3L1496.3,17.3l-4.4,16h-4.9l-4.4-16l0,0l-0.2-1l0,0
			c0.1,0.4-0.1,17-0.1,17h-5.4v-23h8.4l3.6,13.5c0.2,0.8,0.4,2,0.5,3.5c0,0.4,0.1,0.8,0.1,1.1c0-0.8,0-1.6,0.1-2.4
			c0.1-1,0.3-1.7,0.4-2.2l3.6-13.5h8.4v23h-5.7V17.3z"/>
	</g>
	<path class="st2" d="M482,208.1c-7.6,6.4-15.5,10.8-23.9,13.4s-17.4,3.9-27.2,3.9c-7.4,0-14.6-0.8-21.8-2.4c-7.2-1.6-13.8-4-20-7.3
		c-6.2-3.3-11.7-7.6-16.6-12.8c-4.9-5.3-8.7-11.6-11.5-19c-0.8-2.2-1.4-4.4-1.9-6.6c-0.5-2.2-0.9-4.4-1.3-6.6
		c-0.4-1.6-0.6-3.4-0.7-5.5c-0.1-2.1-0.3-4.6-0.7-7.6h53.1c0.2,1.2,0.3,2.2,0.3,3.1c0,0.9,0.1,1.6,0.3,2.2c0.2,0.8,0.3,1.4,0.4,1.9
		c0.1,0.5,0.2,1.1,0.4,1.9c1.6,4,4.2,7.1,7.9,9.4c3.7,2.3,7.7,3.4,12.1,3.4c6.4,0,11.3-2.2,14.9-6.6c3.6-4.4,5.4-9.4,5.4-15.2
		c0-1.8-0.4-4.5-1.2-8.1c-0.8-3.6-3.2-6.8-7.2-9.6c-3.4-2.2-6.7-3.5-9.9-3.9c-3.2-0.4-6.7-0.6-10.4-0.6h-14V95.6h7.5
		c5.2,0,9.9-0.6,14.2-1.9c4.3-1.3,7.8-4.3,10.6-9.1c0.8-1.4,1.5-3.2,2.1-5.5c0.6-2.3,0.9-5.2,0.9-8.8c0-4.6-1.1-8.8-3.3-12.7
		c-2.2-3.9-5.9-5.8-11-5.8c-4.8,0-8.5,1.6-11,4.8c-2.6,3.2-4.2,6.8-4.8,10.7v4.5H362c0.6-5.2,1.2-9.9,1.9-14.2
		c0.7-4.3,1.7-8.3,3-11.9c1.3-3.7,3.1-7.2,5.4-10.6c2.3-3.4,5.2-6.8,8.8-10.1c1-1,3.2-2.9,6.6-5.7c3.6-2.6,7.5-4.9,11.6-6.9
		c1.6-0.6,3.3-1.2,5.1-1.8s4.4-1.3,7.8-2.1c1.6-0.4,4-0.8,7.2-1.3c3.2-0.5,7-0.7,11.3-0.7c6,0,11.3,0.6,16,1.6c4.7,1.1,8,2,10,2.8
		c11.3,4.2,20.6,10.9,27.8,20.1c7.2,9.3,10.7,20.1,10.7,32.7c0,14.5-5.4,26.9-16.1,37c-1,0.8-2.1,1.7-3.3,2.7
		c-1.2,1-3.3,2.5-6.3,4.5l10.1,5.7c7.6,4,12.9,8.3,16,13c3.1,4.7,5.3,8.7,6.7,12.1c0.6,1.6,1.4,4.1,2.4,7.5c1,3.4,1.5,7.7,1.5,12.8
		c0,2.6-0.3,5.8-0.9,9.6c-0.6,3.8-1.7,7.9-3.4,12.2c-1.7,4.4-4.1,9-7.3,13.7C491.4,199.1,487.2,203.7,482,208.1z"/>
	<path class="st2" d="M764.8,208.1c-7.6,6.4-15.5,10.8-23.9,13.4c-8.4,2.6-17.4,3.9-27.2,3.9c-7.4,0-14.6-0.8-21.8-2.4
		c-7.2-1.6-13.8-4-20-7.3c-6.2-3.3-11.7-7.6-16.6-12.8c-4.9-5.3-8.7-11.6-11.5-19c-0.8-2.2-1.4-4.4-1.9-6.6
		c-0.5-2.2-0.9-4.4-1.3-6.6c-0.4-1.6-0.6-3.4-0.7-5.5c-0.1-2.1-0.3-4.6-0.7-7.6h53.1c0.2,1.2,0.3,2.2,0.3,3.1c0,0.9,0.1,1.6,0.3,2.2
		c0.2,0.8,0.3,1.4,0.4,1.9c0.1,0.5,0.2,1.1,0.4,1.9c1.6,4,4.2,7.1,7.9,9.4c3.7,2.3,7.7,3.4,12.1,3.4c6.4,0,11.3-2.2,14.9-6.6
		c3.6-4.4,5.4-9.4,5.4-15.2c0-1.8-0.4-4.5-1.2-8.1c-0.8-3.6-3.2-6.8-7.2-9.6c-3.4-2.2-6.7-3.5-9.9-3.9c-3.2-0.4-6.7-0.6-10.4-0.6
		h-14V95.6h7.5c5.2,0,9.9-0.6,14.2-1.9c4.3-1.3,7.8-4.3,10.6-9.1c0.8-1.4,1.5-3.2,2.1-5.5c0.6-2.3,0.9-5.2,0.9-8.8
		c0-4.6-1.1-8.8-3.3-12.7c-2.2-3.9-5.9-5.8-11-5.8c-4.8,0-8.5,1.6-11,4.8c-2.6,3.2-4.2,6.8-4.8,10.7v4.5h-51.6
		c0.6-5.2,1.2-9.9,1.9-14.2c0.7-4.3,1.7-8.3,3-11.9c1.3-3.7,3.1-7.2,5.4-10.6c2.3-3.4,5.2-6.8,8.8-10.1c1-1,3.2-2.9,6.6-5.7
		c3.6-2.6,7.5-4.9,11.6-6.9c1.6-0.6,3.3-1.2,5.1-1.8c1.8-0.6,4.4-1.3,7.8-2.1c1.6-0.4,4-0.8,7.2-1.3c3.2-0.5,7-0.7,11.3-0.7
		c6,0,11.3,0.6,16,1.6c4.7,1.1,8,2,10,2.8c11.3,4.2,20.6,10.9,27.8,20.1c7.2,9.3,10.7,20.1,10.7,32.7c0,14.5-5.4,26.9-16.1,37
		c-1,0.8-2.1,1.7-3.3,2.7c-1.2,1-3.3,2.5-6.3,4.5l10.1,5.7c7.6,4,12.9,8.3,16,13c3.1,4.7,5.3,8.7,6.7,12.1c0.6,1.6,1.4,4.1,2.4,7.5
		c1,3.4,1.5,7.7,1.5,12.8c0,2.6-0.3,5.8-0.9,9.6c-0.6,3.8-1.7,7.9-3.4,12.2c-1.7,4.4-4.1,9-7.3,13.7
		C774.1,199.1,769.9,203.7,764.8,208.1z"/>
	<path class="st2" d="M1258.7,212.9c-4,2.8-9.9,5.7-17.8,8.7c-7.9,3-17.9,4.5-30,4.5c-2.8,0-7-0.3-12.5-0.7
		c-5.6-0.5-11.7-1.9-18.5-4.3c-6.6-2.4-12.6-5.6-18.2-9.7c-5.6-4.1-10.4-8.9-14.4-14.3c-4.1-5.5-7.2-11.4-9.5-17.9
		c-2.3-6.5-3.4-13.3-3.4-20.4c0-6.8,0.9-12.8,2.8-18.1c1.9-5.3,4.1-9.8,6.7-13.7c2.6-3.9,5.3-7.1,8-9.7c2.8-2.6,5-4.5,6.8-5.7
		l7.4-4.8c-3.6-2.8-6.4-5.1-8.5-7c-2.1-1.9-3.8-3.7-5.2-5.5c-2.2-3-4-6.6-5.3-10.9c-1.4-4.3-2.1-9.6-2.1-16c0-6.4,0.7-11.5,2.1-15.5
		c1.4-4,2.7-7.1,3.9-9.3c1.8-3.2,4.2-6.9,7.3-11c3.1-4.2,7.1-8.1,12.2-11.6c5.1-3.6,11.1-6.6,18.2-9.1c7.1-2.5,15.4-3.7,24.9-3.7
		c1.8,0,4.1,0.1,6.9,0.3c2.8,0.2,5.9,0.6,9.4,1.3c3.5,0.7,7.2,1.8,11.2,3.4c4,1.6,8,3.8,11.9,6.6c7,5.2,12.8,11.7,17.5,19.6
		c4.7,7.9,7,16.4,7,25.5c0,8.4-1.3,15.4-4,21c-2.7,5.7-5,9.6-7,11.8c-1,1.4-2.2,2.7-3.6,3.9c-1.4,1.2-3.5,2.9-6.3,5.1
		c2.8,1.6,4.7,2.7,5.8,3.3c1.1,0.6,1.9,1.2,2.5,1.8c0.6,0.4,1.2,0.8,1.8,1.3c0.6,0.5,1.3,1,2.1,1.6c4.6,3.6,8.2,7.6,10.9,12.1
		c2.7,4.5,4.7,8.8,6.1,13c1.4,4.2,2.3,8,2.7,11.5c0.4,3.5,0.6,6.2,0.6,8.2c0,7.8-1.2,14.7-3.7,20.7c-2.5,6.1-5.4,11.4-8.7,16
		c-3.3,4.6-6.6,8.4-10,11.3C1263.4,209.3,1260.7,211.5,1258.7,212.9z M1211.7,130.2c-3.6,0-6.9,0.6-9.9,1.9c-3,1.3-5.6,3.1-7.9,5.4
		c-2.3,2.3-4.1,4.9-5.4,7.9c-1.3,3-1.9,6.2-1.9,9.6c0.4,1.6,0.6,3,0.7,4.2c0.1,1.2,0.3,2.2,0.7,3c1,4,3.1,7.5,6.3,10.4
		c3.2,3.2,6.4,5.2,9.7,6c3.3,0.8,5.8,1.2,7.6,1.2c7,0,12.8-2.4,17.6-7.3c4.8-4.9,7.2-10.7,7.2-17.5c0-3.6-0.6-6.9-1.9-9.9
		c-1.3-3-3.1-5.6-5.4-7.8c-2.3-2.2-4.9-3.9-7.9-5.2C1218.2,130.8,1215,130.2,1211.7,130.2z M1211.4,51.1c-5.6,0-10.1,1.9-13.7,5.7
		c-3.6,3.8-5.4,8.4-5.4,13.7c0,1.2,0.2,3,0.7,5.5c0.5,2.5,2.1,5,4.9,7.6c2.8,2.8,5.4,4.4,7.9,4.9c2.5,0.5,4.3,0.7,5.5,0.7
		c5.6,0,10.1-1.8,13.7-5.5c3.6-3.7,5.4-8.2,5.4-13.6c0-5.6-1.8-10.1-5.4-13.7C1221.5,52.9,1216.9,51.1,1211.4,51.1z"/>
</g>
</svg>
