<?xml version="1.0" encoding="utf-8"?>
<!-- Generator: Adobe Illustrator 23.0.1, SVG Export Plug-In . SVG Version: 6.00 Build 0)  -->
<svg version="1.1" id="Layer_1" xmlns="http://www.w3.org/2000/svg" xmlns:xlink="http://www.w3.org/1999/xlink" x="0px" y="0px"
	 viewBox="0 0 3840.19 613.14" style="enable-background:new 0 0 3840.19 613.14;" xml:space="preserve">
<style type="text/css">
	.st0{fill:#FFFFFF;}
</style>
<path class="st0" d="M0,602.51V13.19h159.43v440.74h169.45v148.58H0z"/>
<path class="st0" d="M845.59,504.85c-28.38,35.06-63.31,61.91-104.76,80.55c-41.46,18.64-84.73,27.96-129.8,27.96
	c-40.07,0-79.17-7.93-117.28-23.79c-38.12-15.86-71.37-37.98-99.75-66.36s-50.5-61.63-66.36-99.75
	c-15.86-38.11-23.79-77.21-23.79-117.28c0-8.9,0.69-20.58,2.09-35.06c1.38-14.46,4.59-30.74,9.6-48.83
	c5.01-18.08,12.38-37,22.12-56.76c9.73-19.75,22.95-39.36,39.65-58.85c28.93-33.94,64.13-60.37,105.6-79.3
	C524.35,8.47,567.06-1,611.03-1c25.04,0,48.27,2.79,69.7,8.35c21.42,5.57,40.62,12.25,57.6,20.04c16.97,7.8,31.58,15.86,43.82,24.21
	s21.7,15.31,28.38,20.87c33.93,28.94,60.37,64,79.3,105.18c18.91,41.19,28.38,84.31,28.38,129.38c0,8.91-0.7,20.59-2.09,35.06
	c-1.4,14.48-4.59,30.47-9.6,48c-5.01,17.53-12.39,36.18-22.12,55.93C874.67,465.76,861.73,485.38,845.59,504.85z M747.09,255.26
	c-10.58-27.82-28.38-50.36-53.42-67.61c-25.04-17.24-52.59-25.88-82.64-25.88c-9.47,0-23.93,2.5-43.41,7.51
	c-19.49,5.01-38.96,16.42-58.43,34.22c-13.92,13.35-24.62,29.08-32.14,47.16c-7.51,18.09-11.27,36.87-11.27,56.35
	c0,4.46,0.42,10.58,1.25,18.36c0.83,7.8,2.63,16.28,5.42,25.46c2.78,9.18,7.1,18.93,12.94,29.22c5.84,10.3,13.48,20.18,22.96,29.63
	c13.35,13.36,29.07,23.79,47.16,31.3c18.08,7.51,36.59,11.27,55.51,11.27c13.9,0,26.71-1.67,38.4-5.01s21.84-7.51,30.47-12.52
	c8.62-5.01,16.13-10.15,22.54-15.44c6.39-5.28,11.27-9.6,14.61-12.94c3.34-3.34,7.23-7.93,11.69-13.77
	c4.45-5.84,8.76-12.94,12.94-21.28c4.18-8.35,7.64-17.95,10.44-28.8c2.78-10.85,4.17-22.67,4.17-35.48
	C756.28,289.78,753.21,272.52,747.09,255.26z"/>
<path class="st0" d="M1297.17,602.51l-205.34-299.67v299.67H934.9V13.19h137.73c25.59,36.73,50.77,72.62,75.54,107.68
	c24.76,35.06,49.67,71.51,74.71,109.35l55.09,84.31V13.19h157.77v589.32H1297.17z"/>
<path class="st0" d="M1917.22,517.37c-6.68,7.8-17.53,18.51-32.56,32.14c-15.03,13.64-35.62,25.46-61.77,35.48
	c-22.27,8.35-43.55,13.36-63.86,15.03c-20.32,1.67-42.15,2.5-65.53,2.5h-226.21V13.19h232.89c3.89,0,9.6-0.13,17.11-0.42
	c7.51-0.27,16.28,0.14,26.29,1.25c10.02,1.12,21,2.38,32.97,3.76c11.96,1.39,24.06,4.04,36.31,7.93
	c22.81,7.24,43.54,17.82,62.19,31.72c18.64,13.92,35.19,29.78,49.67,47.58c14.46,17.82,26.57,37.29,36.31,58.43
	c9.73,21.16,17.11,42.86,22.12,65.11c1.67,7.8,3.47,17.67,5.42,29.63c1.94,11.97,2.92,27.13,2.92,45.49
	c0,10.02-0.56,22.82-1.67,38.4c-1.12,15.59-4.04,32.97-8.76,52.17c-4.73,19.2-12.1,39.38-22.12,60.52
	C1948.94,475.92,1935.02,496.79,1917.22,517.37z M1828.73,271.96c-5.01-23.92-13.77-45.49-26.29-64.69s-30.47-32.97-53.84-41.32
	c-11.69-4.45-22.96-7.1-33.81-7.93c-10.85-0.83-22.96-1.25-36.31-1.25h-50.92v299.67h75.96c11.13,0,21.29-0.42,30.47-1.25
	c9.18-0.84,18.49-3.2,27.96-7.1c17.24-7.23,30.6-17.95,40.07-32.14c9.46-14.19,16.55-28.66,21.29-43.41
	c4.72-14.74,7.51-28.09,8.35-40.07c0.83-11.96,1.25-19.33,1.25-22.12c0-3.89-0.29-9.04-0.83-15.44
	C1831.51,288.52,1830.41,280.87,1828.73,271.96z"/>
<path class="st0" d="M2554.63,504.85c-28.38,35.06-63.31,61.91-104.76,80.55c-41.46,18.64-84.73,27.96-129.8,27.96
	c-40.07,0-79.17-7.93-117.28-23.79c-38.12-15.86-71.37-37.98-99.75-66.36s-50.5-61.63-66.36-99.75
	c-15.86-38.11-23.79-77.21-23.79-117.28c0-8.9,0.69-20.58,2.09-35.06c1.38-14.46,4.59-30.74,9.6-48.83
	c5.01-18.08,12.38-37,22.12-56.76c9.73-19.75,22.95-39.36,39.65-58.85c28.93-33.94,64.13-60.37,105.6-79.3
	C2233.39,8.47,2276.11-1,2320.07-1c25.04,0,48.27,2.79,69.7,8.35c21.42,5.57,40.62,12.25,57.6,20.04
	c16.97,7.8,31.58,15.86,43.82,24.21s21.7,15.31,28.38,20.87c33.93,28.94,60.37,64,79.3,105.18c18.91,41.19,28.38,84.31,28.38,129.38
	c0,8.91-0.7,20.59-2.09,35.06c-1.4,14.48-4.59,30.47-9.6,48s-12.39,36.18-22.12,55.93C2583.71,465.76,2570.77,485.38,2554.63,504.85
	z M2456.13,255.26c-10.58-27.82-28.38-50.36-53.42-67.61c-25.04-17.24-52.59-25.88-82.64-25.88c-9.47,0-23.93,2.5-43.41,7.51
	c-19.49,5.01-38.96,16.42-58.43,34.22c-13.92,13.35-24.62,29.08-32.14,47.16c-7.51,18.09-11.27,36.87-11.27,56.35
	c0,4.46,0.42,10.58,1.25,18.36c0.83,7.8,2.63,16.28,5.42,25.46c2.78,9.18,7.1,18.93,12.94,29.22c5.84,10.3,13.48,20.18,22.96,29.63
	c13.35,13.36,29.07,23.79,47.16,31.3c18.08,7.51,36.59,11.27,55.51,11.27c13.9,0,26.71-1.67,38.4-5.01s21.83-7.51,30.47-12.52
	c8.62-5.01,16.13-10.15,22.54-15.44c6.39-5.28,11.27-9.6,14.61-12.94s7.23-7.93,11.69-13.77c4.45-5.84,8.76-12.94,12.94-21.28
	c4.18-8.35,7.64-17.95,10.44-28.8c2.78-10.85,4.17-22.67,4.17-35.48C2465.32,289.78,2462.25,272.52,2456.13,255.26z"/>
<path class="st0" d="M3006.21,602.51l-205.34-299.67v299.67h-156.93V13.19h137.73c25.59,36.73,50.77,72.62,75.54,107.68
	c24.76,35.06,49.67,71.51,74.71,109.35l55.09,84.31V13.19h157.77v589.32H3006.21z"/>
</svg>
